<?xml version="1.0" encoding="utf-8" standalone="no"?>
<!DOCTYPE svg PUBLIC "-//W3C//DTD SVG 1.1//EN"
  "http://www.w3.org/Graphics/SVG/1.1/DTD/svg11.dtd">
<!-- Created with matplotlib (https://matplotlib.org/) -->
<svg height="720pt" version="1.1" viewBox="0 0 720 720" width="720pt" xmlns="http://www.w3.org/2000/svg" xmlns:xlink="http://www.w3.org/1999/xlink">
 <metadata>
  <rdf:RDF xmlns:cc="http://creativecommons.org/ns#" xmlns:dc="http://purl.org/dc/elements/1.1/" xmlns:rdf="http://www.w3.org/1999/02/22-rdf-syntax-ns#">
   <cc:Work>
    <dc:type rdf:resource="http://purl.org/dc/dcmitype/StillImage"/>
    <dc:date>2020-12-08T20:14:50.236455</dc:date>
    <dc:format>image/svg+xml</dc:format>
    <dc:creator>
     <cc:Agent>
      <dc:title>Matplotlib v3.3.1, https://matplotlib.org/</dc:title>
     </cc:Agent>
    </dc:creator>
   </cc:Work>
  </rdf:RDF>
 </metadata>
 <defs>
  <style type="text/css">*{stroke-linecap:butt;stroke-linejoin:round;}</style>
 </defs>
 <g id="figure_1">
  <g id="patch_1">
   <path d="M 0 720 
L 720 720 
L 720 0 
L 0 0 
z
" style="fill:#ffffff;"/>
  </g>
  <g id="axes_1">
   <g id="patch_2">
    <path d="M 97.2 630 
L 640.8 630 
L 640.8 86.4 
L 97.2 86.4 
z
" style="fill:#eaeaf2;"/>
   </g>
   <g id="matplotlib.axis_1">
    <g id="xtick_1">
     <g id="line2d_1">
      <path clip-path="url(#p22d404fdc9)" d="M 151.56 630 
L 151.56 86.4 
" style="fill:none;stroke:#ffffff;stroke-linecap:round;"/>
     </g>
     <g id="line2d_2"/>
     <g id="text_1">
      <!-- −4 -->
      <g style="fill:#262626;" transform="translate(145.859219 644.157812)scale(0.1 -0.1)">
       <defs>
        <path d="M 52.828125 31.203125 
L 5.5625 31.203125 
L 5.5625 39.40625 
L 52.828125 39.40625 
z
" id="ArialMT-8722"/>
        <path d="M 32.328125 0 
L 32.328125 17.140625 
L 1.265625 17.140625 
L 1.265625 25.203125 
L 33.9375 71.578125 
L 41.109375 71.578125 
L 41.109375 25.203125 
L 50.78125 25.203125 
L 50.78125 17.140625 
L 41.109375 17.140625 
L 41.109375 0 
z
M 32.328125 25.203125 
L 32.328125 57.46875 
L 9.90625 25.203125 
z
" id="ArialMT-52"/>
       </defs>
       <use xlink:href="#ArialMT-8722"/>
       <use x="58.398438" xlink:href="#ArialMT-52"/>
      </g>
     </g>
    </g>
    <g id="xtick_2">
     <g id="line2d_3">
      <path clip-path="url(#p22d404fdc9)" d="M 260.28 630 
L 260.28 86.4 
" style="fill:none;stroke:#ffffff;stroke-linecap:round;"/>
     </g>
     <g id="line2d_4"/>
     <g id="text_2">
      <!-- −2 -->
      <g style="fill:#262626;" transform="translate(254.579219 644.157812)scale(0.1 -0.1)">
       <defs>
        <path d="M 50.34375 8.453125 
L 50.34375 0 
L 3.03125 0 
Q 2.9375 3.171875 4.046875 6.109375 
Q 5.859375 10.9375 9.828125 15.625 
Q 13.8125 20.3125 21.34375 26.46875 
Q 33.015625 36.03125 37.109375 41.625 
Q 41.21875 47.21875 41.21875 52.203125 
Q 41.21875 57.421875 37.46875 61 
Q 33.734375 64.59375 27.734375 64.59375 
Q 21.390625 64.59375 17.578125 60.78125 
Q 13.765625 56.984375 13.71875 50.25 
L 4.6875 51.171875 
Q 5.609375 61.28125 11.65625 66.578125 
Q 17.71875 71.875 27.9375 71.875 
Q 38.234375 71.875 44.234375 66.15625 
Q 50.25 60.453125 50.25 52 
Q 50.25 47.703125 48.484375 43.546875 
Q 46.734375 39.40625 42.65625 34.8125 
Q 38.578125 30.21875 29.109375 22.21875 
Q 21.1875 15.578125 18.9375 13.203125 
Q 16.703125 10.84375 15.234375 8.453125 
z
" id="ArialMT-50"/>
       </defs>
       <use xlink:href="#ArialMT-8722"/>
       <use x="58.398438" xlink:href="#ArialMT-50"/>
      </g>
     </g>
    </g>
    <g id="xtick_3">
     <g id="line2d_5">
      <path clip-path="url(#p22d404fdc9)" d="M 369 630 
L 369 86.4 
" style="fill:none;stroke:#ffffff;stroke-linecap:round;"/>
     </g>
     <g id="line2d_6"/>
     <g id="text_3">
      <!-- 0 -->
      <g style="fill:#262626;" transform="translate(366.219531 644.157812)scale(0.1 -0.1)">
       <defs>
        <path d="M 4.15625 35.296875 
Q 4.15625 48 6.765625 55.734375 
Q 9.375 63.484375 14.515625 67.671875 
Q 19.671875 71.875 27.484375 71.875 
Q 33.25 71.875 37.59375 69.546875 
Q 41.9375 67.234375 44.765625 62.859375 
Q 47.609375 58.5 49.21875 52.21875 
Q 50.828125 45.953125 50.828125 35.296875 
Q 50.828125 22.703125 48.234375 14.96875 
Q 45.65625 7.234375 40.5 3 
Q 35.359375 -1.21875 27.484375 -1.21875 
Q 17.140625 -1.21875 11.234375 6.203125 
Q 4.15625 15.140625 4.15625 35.296875 
z
M 13.1875 35.296875 
Q 13.1875 17.671875 17.3125 11.828125 
Q 21.4375 6 27.484375 6 
Q 33.546875 6 37.671875 11.859375 
Q 41.796875 17.71875 41.796875 35.296875 
Q 41.796875 52.984375 37.671875 58.78125 
Q 33.546875 64.59375 27.390625 64.59375 
Q 21.34375 64.59375 17.71875 59.46875 
Q 13.1875 52.9375 13.1875 35.296875 
z
" id="ArialMT-48"/>
       </defs>
       <use xlink:href="#ArialMT-48"/>
      </g>
     </g>
    </g>
    <g id="xtick_4">
     <g id="line2d_7">
      <path clip-path="url(#p22d404fdc9)" d="M 477.72 630 
L 477.72 86.4 
" style="fill:none;stroke:#ffffff;stroke-linecap:round;"/>
     </g>
     <g id="line2d_8"/>
     <g id="text_4">
      <!-- 2 -->
      <g style="fill:#262626;" transform="translate(474.939531 644.157812)scale(0.1 -0.1)">
       <use xlink:href="#ArialMT-50"/>
      </g>
     </g>
    </g>
    <g id="xtick_5">
     <g id="line2d_9">
      <path clip-path="url(#p22d404fdc9)" d="M 586.44 630 
L 586.44 86.4 
" style="fill:none;stroke:#ffffff;stroke-linecap:round;"/>
     </g>
     <g id="line2d_10"/>
     <g id="text_5">
      <!-- 4 -->
      <g style="fill:#262626;" transform="translate(583.659531 644.157812)scale(0.1 -0.1)">
       <use xlink:href="#ArialMT-52"/>
      </g>
     </g>
    </g>
   </g>
   <g id="matplotlib.axis_2">
    <g id="ytick_1">
     <g id="line2d_11">
      <path clip-path="url(#p22d404fdc9)" d="M 97.2 575.64 
L 640.8 575.64 
" style="fill:none;stroke:#ffffff;stroke-linecap:round;"/>
     </g>
     <g id="line2d_12"/>
     <g id="text_6">
      <!-- −4 -->
      <g style="fill:#262626;" transform="translate(78.798438 579.218906)scale(0.1 -0.1)">
       <use xlink:href="#ArialMT-8722"/>
       <use x="58.398438" xlink:href="#ArialMT-52"/>
      </g>
     </g>
    </g>
    <g id="ytick_2">
     <g id="line2d_13">
      <path clip-path="url(#p22d404fdc9)" d="M 97.2 466.92 
L 640.8 466.92 
" style="fill:none;stroke:#ffffff;stroke-linecap:round;"/>
     </g>
     <g id="line2d_14"/>
     <g id="text_7">
      <!-- −2 -->
      <g style="fill:#262626;" transform="translate(78.798438 470.498906)scale(0.1 -0.1)">
       <use xlink:href="#ArialMT-8722"/>
       <use x="58.398438" xlink:href="#ArialMT-50"/>
      </g>
     </g>
    </g>
    <g id="ytick_3">
     <g id="line2d_15">
      <path clip-path="url(#p22d404fdc9)" d="M 97.2 358.2 
L 640.8 358.2 
" style="fill:none;stroke:#ffffff;stroke-linecap:round;"/>
     </g>
     <g id="line2d_16"/>
     <g id="text_8">
      <!-- 0 -->
      <g style="fill:#262626;" transform="translate(84.639063 361.778906)scale(0.1 -0.1)">
       <use xlink:href="#ArialMT-48"/>
      </g>
     </g>
    </g>
    <g id="ytick_4">
     <g id="line2d_17">
      <path clip-path="url(#p22d404fdc9)" d="M 97.2 249.48 
L 640.8 249.48 
" style="fill:none;stroke:#ffffff;stroke-linecap:round;"/>
     </g>
     <g id="line2d_18"/>
     <g id="text_9">
      <!-- 2 -->
      <g style="fill:#262626;" transform="translate(84.639063 253.058906)scale(0.1 -0.1)">
       <use xlink:href="#ArialMT-50"/>
      </g>
     </g>
    </g>
    <g id="ytick_5">
     <g id="line2d_19">
      <path clip-path="url(#p22d404fdc9)" d="M 97.2 140.76 
L 640.8 140.76 
" style="fill:none;stroke:#ffffff;stroke-linecap:round;"/>
     </g>
     <g id="line2d_20"/>
     <g id="text_10">
      <!-- 4 -->
      <g style="fill:#262626;" transform="translate(84.639063 144.338906)scale(0.1 -0.1)">
       <use xlink:href="#ArialMT-52"/>
      </g>
     </g>
    </g>
   </g>
   <g id="line2d_21">
    <path clip-path="url(#p22d404fdc9)" d="M 423.36 303.84 
L 426.760692 306.405728 
L 430.029479 309.151119 
L 433.139788 312.052962 
L 436.100002 315.118073 
L 438.900875 318.338332 
L 441.533672 321.705163 
L 443.978042 325.191271 
L 446.240574 328.804721 
L 448.314143 332.535991 
L 450.183242 336.3558 
L 451.852845 340.272955 
L 453.317373 344.277287 
L 454.566135 348.338325 
L 455.602328 352.465296 
L 456.418361 356.627302 
L 457.016119 360.833748 
L 457.39112 365.053681 
L 457.543816 369.27652 
L 457.47409 373.511665 
L 457.181878 377.728386 
L 456.668682 381.916242 
L 455.936309 386.064938 
L 454.986877 390.164346 
L 453.822829 394.204517 
L 452.446944 398.175702 
L 450.862328 402.068306 
L 449.080882 405.855487 
L 447.099379 409.545747 
L 444.931937 413.113777 
L 442.574046 416.567418 
L 440.041912 419.882842 
L 437.329857 423.066987 
L 434.456077 426.097613 
L 431.427844 428.96803 
L 428.252571 431.671766 
L 424.937822 434.202556 
L 421.491325 436.554336 
L 417.920975 438.721232 
L 414.234849 440.697561 
L 410.458539 442.470245 
L 406.584069 444.04337 
L 402.638144 445.406149 
L 398.612138 446.561331 
L 394.533788 447.500468 
L 390.413111 448.222086 
L 386.240899 448.726838 
L 382.046086 449.010019 
L 380.218477 449.063854 
L 380.218477 449.063854 
" style="fill:none;stroke:#4682b4;stroke-linecap:round;stroke-width:1.75;"/>
   </g>
   <g id="line2d_22">
    <path clip-path="url(#p22d404fdc9)" d="M 380.218477 449.063854 
" style="fill:none;stroke:#4682b4;stroke-linecap:round;stroke-width:1.75;"/>
    <defs>
     <path d="M 0 3.5 
C 0.928211 3.5 1.81853 3.131218 2.474874 2.474874 
C 3.131218 1.81853 3.5 0.928211 3.5 0 
C 3.5 -0.928211 3.131218 -1.81853 2.474874 -2.474874 
C 1.81853 -3.131218 0.928211 -3.5 0 -3.5 
C -0.928211 -3.5 -1.81853 -3.131218 -2.474874 -2.474874 
C -3.131218 -1.81853 -3.5 -0.928211 -3.5 0 
C -3.5 0.928211 -3.131218 1.81853 -2.474874 2.474874 
C -1.81853 3.131218 -0.928211 3.5 0 3.5 
z
" id="m4afc49622d"/>
    </defs>
    <g clip-path="url(#p22d404fdc9)">
     <use style="fill:#4682b4;" x="380.218477" xlink:href="#m4afc49622d" y="449.063854"/>
    </g>
   </g>
   <g id="line2d_23">
    <path clip-path="url(#p22d404fdc9)" d="M 314.64 412.56 
L 311.239308 409.994272 
L 307.970521 407.248881 
L 304.860212 404.347038 
L 301.899998 401.281927 
L 299.099125 398.061668 
L 296.466328 394.694837 
L 294.021958 391.208729 
L 291.759426 387.595279 
L 289.685857 383.864009 
L 287.816758 380.0442 
L 286.147155 376.127045 
L 284.682627 372.122713 
L 283.433865 368.061675 
L 282.397672 363.934704 
L 281.581639 359.772698 
L 280.983881 355.566252 
L 280.60888 351.346319 
L 280.456184 347.12348 
L 280.52591 342.888335 
L 280.818122 338.671614 
L 281.331318 334.483758 
L 282.063691 330.335062 
L 283.013123 326.235654 
L 284.177171 322.195483 
L 285.553056 318.224298 
L 287.137672 314.331694 
L 288.919118 310.544513 
L 290.900621 306.854253 
L 293.068063 303.286223 
L 295.425954 299.832582 
L 297.958088 296.517158 
L 300.670143 293.333013 
L 303.543923 290.302387 
L 306.572156 287.43197 
L 309.747429 284.728234 
L 313.062178 282.197444 
L 316.508675 279.845664 
L 320.079025 277.678768 
L 323.765151 275.702439 
L 327.541461 273.929755 
L 331.415931 272.35663 
L 335.361856 270.993851 
L 339.387862 269.838669 
L 343.466212 268.899532 
L 347.586889 268.177914 
L 351.759101 267.673162 
L 355.953914 267.389981 
L 357.781523 267.336146 
L 357.781523 267.336146 
" style="fill:none;stroke:#2e8b57;stroke-linecap:round;stroke-width:1.75;"/>
   </g>
   <g id="line2d_24">
    <path clip-path="url(#p22d404fdc9)" d="M 357.781523 267.336146 
" style="fill:none;stroke:#2e8b57;stroke-linecap:round;stroke-width:1.75;"/>
    <defs>
     <path d="M 0 3.5 
C 0.928211 3.5 1.81853 3.131218 2.474874 2.474874 
C 3.131218 1.81853 3.5 0.928211 3.5 0 
C 3.5 -0.928211 3.131218 -1.81853 2.474874 -2.474874 
C 1.81853 -3.131218 0.928211 -3.5 0 -3.5 
C -0.928211 -3.5 -1.81853 -3.131218 -2.474874 -2.474874 
C -3.131218 -1.81853 -3.5 -0.928211 -3.5 0 
C -3.5 0.928211 -3.131218 1.81853 -2.474874 2.474874 
C -1.81853 3.131218 -0.928211 3.5 0 3.5 
z
" id="m5bf488a047"/>
    </defs>
    <g clip-path="url(#p22d404fdc9)">
     <use style="fill:#2e8b57;" x="357.781523" xlink:href="#m5bf488a047" y="267.336146"/>
    </g>
   </g>
   <g id="line2d_25">
    <path clip-path="url(#p22d404fdc9)" d="M 382.59 344.61 
L 387.825757 342.245283 
L 393.087871 339.62367 
L 398.662676 336.59307 
L 404.745919 333.028116 
L 412.152721 328.415332 
L 429.612047 317.430887 
L 432.317858 316.046041 
L 434.013945 315.361321 
L 435.137154 315.055656 
L 436.126573 314.974648 
L 436.738349 315.097865 
L 437.320923 315.503707 
L 437.641368 316.087807 
L 437.806471 317.125216 
L 437.69255 318.689526 
L 437.265204 320.743006 
L 436.407265 323.669592 
L 434.824404 328.177698 
L 431.956698 335.57173 
L 406.026902 400.354952 
L 402.651723 407.868864 
L 399.608471 414.114403 
L 396.752402 419.478549 
L 394.058364 424.075172 
L 391.522727 427.973389 
L 389.132836 431.250559 
L 386.90719 433.936313 
L 384.852331 436.076988 
L 382.998374 437.698045 
L 381.365036 438.841956 
L 379.954326 439.569346 
L 378.763709 439.944725 
L 377.770475 440.034665 
L 376.95387 439.89249 
L 376.289894 439.556159 
L 375.752458 439.03585 
L 375.332114 438.313437 
L 375.043361 437.361021 
L 374.915071 436.146774 
L 374.98593 434.643274 
L 375.300929 432.821852 
L 375.898121 430.70466 
L 376.785628 428.399685 
L 377.993116 425.891664 
L 379.49472 423.290322 
L 381.270175 420.663694 
L 383.302549 418.059047 
L 385.567771 415.519936 
L 387.980891 413.148352 
L 390.644494 410.841384 
L 393.442992 408.709428 
L 396.327644 406.790069 
L 399.288097 405.089053 
L 402.273774 403.628481 
L 405.339901 402.375456 
L 408.442561 401.345485 
L 411.483998 400.566002 
L 414.555964 400.007496 
L 417.620469 399.676077 
L 420.631464 399.569703 
L 423.623863 399.683295 
L 426.561036 400.016049 
L 429.408017 400.56091 
L 432.133155 401.304505 
L 434.792558 402.260845 
L 437.352448 403.422268 
L 439.784795 404.771796 
L 442.1506 406.345341 
L 444.343044 408.06845 
L 446.423167 409.981396 
L 448.366214 412.066295 
L 450.148758 414.300839 
L 451.816033 416.753353 
L 453.343542 419.409116 
L 454.666738 422.153674 
L 455.822921 425.058032 
L 456.797509 428.101089 
L 457.602703 431.358736 
L 458.202962 434.707424 
L 458.608976 438.223034 
L 458.807215 441.883933 
L 458.788602 445.666423 
L 458.54794 449.5459 
L 458.070624 453.586963 
L 457.36205 457.674428 
L 456.405043 461.875462 
L 455.195513 466.166757 
L 453.760016 470.444584 
L 452.076915 474.768742 
L 450.116114 479.187204 
L 447.91087 483.603715 
L 445.46695 488.000656 
L 442.788429 492.363302 
L 439.842896 496.732985 
L 436.674089 501.031803 
L 433.289497 505.246537 
L 429.697949 509.365255 
L 425.8651 513.421863 
L 421.843213 517.356295 
L 417.596226 521.198844 
L 413.174877 524.896659 
L 408.629088 528.407677 
L 403.924893 531.762003 
L 399.070788 534.950253 
L 394.120491 537.937277 
L 389.036424 540.746247 
L 383.827107 543.369631 
L 378.546635 545.780667 
L 373.157678 547.996553 
L 367.713206 549.994956 
L 362.219706 551.774974 
L 356.682579 553.335034 
L 352.462539 554.368708 
L 352.462539 554.368708 
" style="fill:none;stroke:#4b0082;stroke-linecap:round;stroke-width:1.75;"/>
   </g>
   <g id="line2d_26">
    <path clip-path="url(#p22d404fdc9)" d="M 352.462539 554.368708 
" style="fill:none;stroke:#4b0082;stroke-linecap:round;stroke-width:1.75;"/>
    <defs>
     <path d="M 0 3.5 
C 0.928211 3.5 1.81853 3.131218 2.474874 2.474874 
C 3.131218 1.81853 3.5 0.928211 3.5 0 
C 3.5 -0.928211 3.131218 -1.81853 2.474874 -2.474874 
C 1.81853 -3.131218 0.928211 -3.5 0 -3.5 
C -0.928211 -3.5 -1.81853 -3.131218 -2.474874 -2.474874 
C -3.131218 -1.81853 -3.5 -0.928211 -3.5 0 
C -3.5 0.928211 -3.131218 1.81853 -2.474874 2.474874 
C -1.81853 3.131218 -0.928211 3.5 0 3.5 
z
" id="m15b00dfc2a"/>
    </defs>
    <g clip-path="url(#p22d404fdc9)">
     <use style="fill:#4b0082;" x="352.462539" xlink:href="#m15b00dfc2a" y="554.368708"/>
    </g>
   </g>
   <g id="line2d_27">
    <path clip-path="url(#p22d404fdc9)" d="M 423.36 303.84 
L 426.760692 306.405728 
L 430.029479 309.151119 
L 433.139788 312.052962 
L 436.100002 315.118073 
L 438.900875 318.338332 
L 441.533672 321.705163 
L 443.978042 325.191271 
L 446.240575 328.804722 
L 448.314143 332.535989 
L 450.183237 336.355801 
L 451.852851 340.272972 
L 453.317392 344.2773 
L 454.56614 348.338289 
L 455.602293 352.465215 
L 456.418305 356.62726 
L 457.016096 360.833832 
L 457.391176 365.053888 
L 457.543912 369.27672 
L 457.474189 373.511682 
L 457.181904 377.728128 
L 456.668621 381.915787 
L 455.936217 386.064502 
L 454.986797 390.164086 
L 453.822825 394.204526 
L 452.447047 398.175923 
L 450.870192 402.05097 
L 449.08969 405.838585 
L 447.109115 409.529381 
L 444.942572 413.097994 
L 442.585556 416.552251 
L 440.054268 419.868327 
L 437.343032 423.05316 
L 434.47004 426.084507 
L 431.442563 428.955677 
L 428.268014 431.660197 
L 424.953956 434.191803 
L 421.508115 436.544429 
L 417.938385 438.712202 
L 414.252847 440.689434 
L 410.47708 442.463051 
L 406.603101 444.037138 
L 402.657632 445.400891 
L 398.632076 446.557067 
L 394.554145 447.497234 
L 390.433813 448.21992 
L 386.261868 448.725762 
L 382.067265 449.010042 
L 380.220269 449.064711 
L 380.220269 449.064711 
" style="fill:none;stroke:#4682b4;stroke-linecap:round;stroke-width:1.75;"/>
   </g>
   <g id="line2d_28">
    <path clip-path="url(#p22d404fdc9)" d="M 380.220269 449.064711 
" style="fill:none;stroke:#4682b4;stroke-linecap:round;stroke-width:1.75;"/>
    <g clip-path="url(#p22d404fdc9)">
     <use style="fill:#4682b4;" x="380.220269" xlink:href="#m4afc49622d" y="449.064711"/>
    </g>
   </g>
   <g id="line2d_29">
    <path clip-path="url(#p22d404fdc9)" d="M 314.64 412.56 
L 311.239308 409.994272 
L 307.970521 407.248881 
L 304.860212 404.347038 
L 301.899998 401.281927 
L 299.099125 398.061668 
L 296.466328 394.694837 
L 294.021958 391.208729 
L 291.759425 387.595278 
L 289.685857 383.864011 
L 287.816763 380.044199 
L 286.147149 376.127028 
L 284.682608 372.1227 
L 283.43386 368.061711 
L 282.397707 363.934785 
L 281.581695 359.77274 
L 280.983904 355.566168 
L 280.608824 351.346112 
L 280.456088 347.12328 
L 280.525811 342.888318 
L 280.818096 338.671872 
L 281.331379 334.484213 
L 282.063783 330.335498 
L 283.013203 326.235914 
L 284.177175 322.195474 
L 285.552953 318.224077 
L 287.129808 314.34903 
L 288.91031 310.561415 
L 290.890885 306.870619 
L 293.057428 303.302006 
L 295.414444 299.847749 
L 297.945732 296.531673 
L 300.656968 293.34684 
L 303.52996 290.315493 
L 306.557437 287.444323 
L 309.731986 284.739803 
L 313.046044 282.208197 
L 316.491885 279.855571 
L 320.061615 277.687798 
L 323.747153 275.710566 
L 327.52292 273.936949 
L 331.396899 272.362862 
L 335.342368 270.999109 
L 339.367924 269.842933 
L 343.445855 268.902766 
L 347.566187 268.18008 
L 351.738132 267.674238 
L 355.932735 267.389958 
L 357.779731 267.335289 
L 357.779731 267.335289 
" style="fill:none;stroke:#2e8b57;stroke-linecap:round;stroke-width:1.75;"/>
   </g>
   <g id="line2d_30">
    <path clip-path="url(#p22d404fdc9)" d="M 357.779731 267.335289 
" style="fill:none;stroke:#2e8b57;stroke-linecap:round;stroke-width:1.75;"/>
    <g clip-path="url(#p22d404fdc9)">
     <use style="fill:#2e8b57;" x="357.779731" xlink:href="#m5bf488a047" y="267.335289"/>
    </g>
   </g>
   <g id="line2d_31">
    <path clip-path="url(#p22d404fdc9)" d="M 382.59 344.61 
L 388.408485 341.771476 
L 394.18624 338.702215 
L 400.230777 335.234727 
L 406.887286 331.154509 
L 415.340314 325.695222 
L 426.906258 318.226734 
L 430.562322 316.136251 
L 432.735567 315.104619 
L 434.418637 314.540918 
L 435.348753 314.40627 
L 435.926916 314.446013 
L 436.558677 314.707143 
L 437.009079 315.245068 
L 437.273981 316.334016 
L 437.235939 317.595419 
L 436.898954 319.50301 
L 436.169528 322.16177 
L 434.843602 326.071385 
L 432.448687 332.347896 
L 426.584905 346.880309 
L 419.021302 365.870587 
L 407.825629 394.127907 
L 404.17597 402.622974 
L 401.029464 409.398567 
L 398.183042 415.013839 
L 395.531098 419.765779 
L 393.038948 423.785929 
L 390.695434 427.153141 
L 388.521094 429.897889 
L 386.534791 432.057843 
L 384.762273 433.669465 
L 383.211426 434.791962 
L 381.893048 435.485369 
L 380.792457 435.824773 
L 379.899293 435.878958 
L 379.174068 435.708179 
L 378.588294 435.345885 
L 378.127376 434.798253 
L 377.781985 434.030828 
L 377.572423 433.001182 
L 377.537254 431.674641 
L 377.721841 430.044073 
L 378.169092 428.1202 
L 378.901885 425.967823 
L 379.938629 423.626318 
L 381.2754 421.164223 
L 382.913332 418.617051 
L 384.867955 415.994146 
L 387.035025 413.456928 
L 389.421931 411.00547 
L 391.965755 408.709172 
L 394.650541 406.582105 
L 397.468216 404.632026 
L 400.376436 402.891102 
L 403.430892 401.323123 
L 406.496596 399.996345 
L 409.567771 398.904261 
L 412.652689 398.040048 
L 415.706823 397.41052 
L 418.757363 397.003611 
L 421.840647 396.812122 
L 424.767602 396.848062 
L 427.656565 397.104938 
L 430.473572 397.575443 
L 433.27177 398.266542 
L 436.020762 399.174808 
L 438.689267 400.291731 
L 441.246547 401.604726 
L 443.66355 403.098055 
L 445.911922 404.752012 
L 448.050254 406.605406 
L 450.056032 408.641656 
L 451.911009 410.842004 
L 453.601212 413.185517 
L 455.169641 415.742309 
L 456.589979 418.496354 
L 457.839742 421.422732 
L 458.90222 424.486022 
L 459.767863 427.661924 
L 460.433039 430.940461 
L 460.90752 434.398631 
L 461.174591 438.011348 
L 461.222033 441.752194 
L 461.042485 445.595887 
L 460.633674 449.521493 
L 459.997217 453.508333 
L 459.114311 457.619846 
L 458.001699 461.747707 
L 456.639217 465.952334 
L 455.026486 470.208153 
L 453.164841 474.492142 
L 451.054995 478.78544 
L 448.70128 483.068596 
L 446.108879 487.321706 
L 443.283309 491.527336 
L 440.232094 495.669371 
L 436.96398 499.73303 
L 433.444016 503.75292 
L 429.722389 507.662575 
L 425.849879 511.408849 
L 421.743699 515.067806 
L 417.505508 518.545726 
L 413.144115 521.839279 
L 408.621873 524.976655 
L 403.947687 527.947646 
L 399.177626 530.716829 
L 394.274158 533.306 
L 389.292679 535.685198 
L 384.240759 537.85255 
L 379.124574 539.805616 
L 373.994256 541.526863 
L 368.812252 543.030798 
L 363.63347 544.303522 
L 358.419742 545.355471 
L 353.222445 546.176786 
L 348.047507 546.769308 
L 343.795984 547.087056 
L 343.795984 547.087056 
" style="fill:none;stroke:#4b0082;stroke-linecap:round;stroke-width:1.75;"/>
   </g>
   <g id="line2d_32">
    <path clip-path="url(#p22d404fdc9)" d="M 343.795984 547.087056 
" style="fill:none;stroke:#4b0082;stroke-linecap:round;stroke-width:1.75;"/>
    <g clip-path="url(#p22d404fdc9)">
     <use style="fill:#4b0082;" x="343.795984" xlink:href="#m15b00dfc2a" y="547.087056"/>
    </g>
   </g>
   <g id="line2d_33">
    <path clip-path="url(#p22d404fdc9)" d="M 423.36 303.84 
L 426.760692 306.405728 
L 430.029479 309.151119 
L 433.139788 312.052962 
L 436.100002 315.118073 
L 438.900875 318.338332 
L 441.533672 321.705163 
L 443.978042 325.191271 
L 446.240574 328.804721 
L 448.314143 332.535991 
L 450.183241 336.3558 
L 451.852846 340.272955 
L 453.317376 344.27728 
L 454.566138 348.338287 
L 455.602313 352.465224 
L 456.418331 356.627218 
L 457.01612 360.833701 
L 457.39118 365.053678 
L 457.54391 369.276487 
L 457.474231 373.511509 
L 457.182048 377.728073 
L 456.668869 381.91581 
L 455.93653 386.064491 
L 454.987179 390.164016 
L 453.823272 394.204407 
L 452.447563 398.175794 
L 450.870788 402.050884 
L 449.090375 405.838561 
L 447.109885 409.529357 
L 444.94343 413.097956 
L 442.586502 416.552208 
L 440.055304 419.868283 
L 437.34416 423.053119 
L 434.471263 426.084473 
L 431.443881 428.955654 
L 428.269427 431.66019 
L 424.955466 434.191817 
L 421.509722 436.544468 
L 417.940086 438.712273 
L 414.25464 440.689543 
L 410.478974 442.463196 
L 406.605103 444.037328 
L 402.659722 445.401144 
L 398.63423 446.557386 
L 394.556363 447.497614 
L 390.436127 448.22036 
L 386.26428 448.726276 
L 382.069747 449.010636 
L 380.222781 449.065342 
L 380.222781 449.065342 
" style="fill:none;stroke:#4682b4;stroke-linecap:round;stroke-width:1.75;"/>
   </g>
   <g id="line2d_34">
    <path clip-path="url(#p22d404fdc9)" d="M 380.222781 449.065342 
" style="fill:none;stroke:#4682b4;stroke-linecap:round;stroke-width:1.75;"/>
    <g clip-path="url(#p22d404fdc9)">
     <use style="fill:#4682b4;" x="380.222781" xlink:href="#m4afc49622d" y="449.065342"/>
    </g>
   </g>
   <g id="line2d_35">
    <path clip-path="url(#p22d404fdc9)" d="M 314.64 412.56 
L 311.239308 409.994272 
L 307.970521 407.248881 
L 304.860212 404.347038 
L 301.899998 401.281927 
L 299.099125 398.061668 
L 296.466328 394.694837 
L 294.021958 391.208729 
L 291.759426 387.595279 
L 289.685857 383.864009 
L 287.816759 380.0442 
L 286.147154 376.127045 
L 284.682624 372.12272 
L 283.433862 368.061713 
L 282.397687 363.934776 
L 281.581669 359.772782 
L 280.98388 355.566299 
L 280.60882 351.346322 
L 280.45609 347.123513 
L 280.525769 342.888491 
L 280.817952 338.671927 
L 281.331131 334.48419 
L 282.06347 330.335509 
L 283.012821 326.235984 
L 284.176728 322.195593 
L 285.552437 318.224206 
L 287.129212 314.349116 
L 288.909625 310.561439 
L 290.890115 306.870643 
L 293.05657 303.302044 
L 295.413498 299.847792 
L 297.944696 296.531717 
L 300.65584 293.346881 
L 303.528737 290.315527 
L 306.556119 287.444346 
L 309.730573 284.73981 
L 313.044534 282.208183 
L 316.490278 279.855532 
L 320.059914 277.687727 
L 323.74536 275.710457 
L 327.521026 273.936804 
L 331.394897 272.362672 
L 335.340278 270.998856 
L 339.36577 269.842614 
L 343.443637 268.902386 
L 347.563873 268.17964 
L 351.73572 267.673724 
L 355.930253 267.389364 
L 357.777219 267.334658 
L 357.777219 267.334658 
" style="fill:none;stroke:#2e8b57;stroke-linecap:round;stroke-width:1.75;"/>
   </g>
   <g id="line2d_36">
    <path clip-path="url(#p22d404fdc9)" d="M 357.777219 267.334658 
" style="fill:none;stroke:#2e8b57;stroke-linecap:round;stroke-width:1.75;"/>
    <g clip-path="url(#p22d404fdc9)">
     <use style="fill:#2e8b57;" x="357.777219" xlink:href="#m5bf488a047" y="267.334658"/>
    </g>
   </g>
   <g id="line2d_37">
    <path clip-path="url(#p22d404fdc9)" d="M 382.59 344.61 
L 388.972775 341.294458 
L 395.231173 337.790786 
L 401.760848 333.87669 
L 408.875073 329.353095 
L 420.881975 321.385199 
L 427.155754 317.361 
L 430.44905 315.481098 
L 432.457944 314.532862 
L 433.815678 314.066339 
L 434.712589 313.902787 
L 435.269343 313.902537 
L 435.90258 314.080477 
L 436.431813 314.559628 
L 436.685187 315.142009 
L 436.806785 316.142025 
L 436.679014 317.66485 
L 436.250043 319.676632 
L 435.394897 322.539716 
L 433.880015 326.764131 
L 431.280237 333.294114 
L 418.276604 365.292561 
L 414.979845 374.30239 
L 412.487352 381.731113 
L 411.04466 386.67388 
L 410.405181 389.584144 
L 410.262067 391.161466 
L 410.389895 391.948874 
L 410.64874 392.296373 
L 411.000012 392.402054 
L 411.521966 392.304723 
L 412.361479 391.894548 
L 413.781801 390.922098 
L 416.436007 388.795685 
L 425.069928 381.764842 
L 430.173065 378.001285 
L 433.930503 375.499155 
L 437.47603 373.402051 
L 440.990929 371.582714 
L 444.038179 370.238261 
L 446.768324 369.262472 
L 449.224531 368.598406 
L 451.366882 368.226537 
L 453.436736 368.095308 
L 455.093663 368.193289 
L 456.63266 368.503923 
L 457.963396 369.00456 
L 459.001715 369.612626 
L 459.949269 370.409857 
L 460.751094 371.354683 
L 461.50743 372.645782 
L 462.018488 373.963847 
L 462.387148 375.499143 
L 462.606181 377.419529 
L 462.616574 379.612873 
L 462.384037 382.180539 
L 461.89618 385.002534 
L 461.124884 388.145227 
L 459.994615 391.770089 
L 458.518019 395.719086 
L 456.678932 399.980185 
L 454.469364 404.532236 
L 451.929634 409.250747 
L 449.017663 414.187722 
L 445.828447 419.159733 
L 442.447638 424.021124 
L 438.878658 428.762994 
L 435.203353 433.278399 
L 431.593915 437.369069 
L 428.03315 441.071436 
L 424.637975 444.285538 
L 421.445489 447.008132 
L 418.485664 449.246957 
L 415.805034 451.002848 
L 413.435164 452.296444 
L 411.378131 453.174314 
L 409.613208 453.693366 
L 408.135101 453.9029 
L 406.918589 453.856569 
L 405.938969 453.603186 
L 405.151737 453.173394 
L 404.535263 452.58487 
L 404.069614 451.83211 
L 403.751725 450.888905 
L 403.59925 449.724645 
L 403.64266 448.315666 
L 403.924554 446.65467 
L 404.480698 444.744078 
L 405.331646 442.626304 
L 406.495156 440.335744 
L 407.976003 437.961921 
L 410.050751 435.055752 
L 412.099781 432.55216 
L 414.208014 430.32625 
L 416.47665 428.261046 
L 418.90056 426.357768 
L 421.413265 424.663634 
L 423.721286 423.365536 
L 425.99163 422.346676 
L 428.09825 421.636749 
L 430.050322 421.216076 
L 431.680414 421.068281 
L 433.050928 421.126889 
L 434.53875 421.424016 
L 435.814649 421.923148 
L 436.79655 422.526398 
L 437.673191 423.304314 
L 438.401478 424.212226 
L 439.084216 425.434792 
L 439.618611 426.922137 
L 439.958464 428.594854 
L 440.108097 430.601593 
L 440.03051 432.840782 
L 439.724364 435.239841 
L 439.130589 438.063453 
L 438.230721 441.185147 
L 437.035039 444.512388 
L 435.51075 448.093334 
L 433.622073 451.945056 
L 431.394207 455.979938 
L 428.849926 460.125584 
L 426.015182 464.321094 
L 422.814619 468.655304 
L 419.379704 472.933917 
L 415.731215 477.119326 
L 411.940669 481.129241 
L 407.980474 484.992392 
L 403.916927 488.645976 
L 399.808856 492.042556 
L 395.7496 495.111124 
L 391.705598 497.891137 
L 387.765156 500.332605 
L 383.930548 502.45079 
L 380.204248 504.258548 
L 376.62335 505.752824 
L 373.186548 506.949251 
L 369.924428 507.851905 
L 366.862521 508.471658 
L 363.966354 508.832666 
L 361.290194 508.946391 
L 358.799102 508.834195 
L 356.48889 508.510938 
L 354.355742 507.99015 
L 352.396086 507.284243 
L 350.606483 506.404697 
L 348.98353 505.362232 
L 347.506536 504.151092 
L 346.176725 502.774283 
L 344.981495 501.213996 
L 343.939607 499.488245 
L 343.032034 497.548599 
L 342.30056 495.462266 
L 341.745919 493.200136 
L 341.37803 490.757668 
L 341.210308 488.16445 
L 341.210308 488.16445 
" style="fill:none;stroke:#4b0082;stroke-linecap:round;stroke-width:1.75;"/>
   </g>
   <g id="line2d_38">
    <path clip-path="url(#p22d404fdc9)" d="M 341.210308 488.16445 
" style="fill:none;stroke:#4b0082;stroke-linecap:round;stroke-width:1.75;"/>
    <g clip-path="url(#p22d404fdc9)">
     <use style="fill:#4b0082;" x="341.210308" xlink:href="#m15b00dfc2a" y="488.16445"/>
    </g>
   </g>
   <g id="line2d_39">
    <path clip-path="url(#p22d404fdc9)" d="M 423.36 303.84 
L 426.760692 306.405728 
L 430.029479 309.151119 
L 433.139788 312.052962 
L 436.100002 315.118073 
L 438.900875 318.338332 
L 441.533672 321.705163 
L 443.978042 325.191271 
L 446.240574 328.804721 
L 448.314142 332.535989 
L 450.183238 336.355796 
L 451.852846 340.272954 
L 453.317378 344.277277 
L 454.566137 348.338277 
L 455.60231 352.465212 
L 456.418337 356.627215 
L 457.01613 360.833698 
L 457.391191 365.053674 
L 457.543922 369.276482 
L 457.474243 373.511503 
L 457.182062 377.728066 
L 456.668885 381.915803 
L 455.936547 386.064483 
L 454.987197 390.164006 
L 453.823292 394.204394 
L 452.447585 398.175782 
L 450.870813 402.050872 
L 449.090403 405.838544 
L 447.109916 409.529339 
L 444.943462 413.097945 
L 442.586537 416.552198 
L 440.055342 419.868272 
L 437.3442 423.053109 
L 434.471305 426.084463 
L 431.443926 428.955644 
L 428.269473 431.660181 
L 424.955515 434.191807 
L 421.509773 436.544458 
L 417.940142 438.712263 
L 414.254702 440.689533 
L 410.479037 442.46319 
L 406.605166 444.037325 
L 402.659799 445.401138 
L 398.634327 446.557386 
L 394.556468 447.497628 
L 390.43622 448.220388 
L 386.264357 448.726313 
L 382.069827 449.010679 
L 380.222862 449.065387 
L 380.222862 449.065387 
" style="fill:none;stroke:#4682b4;stroke-linecap:round;stroke-width:1.75;"/>
   </g>
   <g id="line2d_40">
    <path clip-path="url(#p22d404fdc9)" d="M 380.222862 449.065387 
" style="fill:none;stroke:#4682b4;stroke-linecap:round;stroke-width:1.75;"/>
    <g clip-path="url(#p22d404fdc9)">
     <use style="fill:#4682b4;" x="380.222862" xlink:href="#m4afc49622d" y="449.065387"/>
    </g>
   </g>
   <g id="line2d_41">
    <path clip-path="url(#p22d404fdc9)" d="M 314.64 412.56 
L 311.239308 409.994272 
L 307.970521 407.248881 
L 304.860212 404.347038 
L 301.899998 401.281927 
L 299.099125 398.061668 
L 296.466328 394.694837 
L 294.021958 391.208729 
L 291.759426 387.595279 
L 289.685858 383.864011 
L 287.816762 380.044204 
L 286.147154 376.127046 
L 284.682622 372.122723 
L 283.433863 368.061723 
L 282.39769 363.934788 
L 281.581663 359.772785 
L 280.98387 355.566302 
L 280.608809 351.346326 
L 280.456078 347.123518 
L 280.525757 342.888497 
L 280.817938 338.671934 
L 281.331115 334.484197 
L 282.063453 330.335517 
L 283.012803 326.235994 
L 284.176708 322.195606 
L 285.552415 318.224218 
L 287.129187 314.349128 
L 288.909597 310.561456 
L 290.890084 306.870661 
L 293.056538 303.302055 
L 295.413463 299.847802 
L 297.944658 296.531728 
L 300.6558 293.346891 
L 303.528695 290.315537 
L 306.556074 287.444356 
L 309.730527 284.739819 
L 313.044485 282.208193 
L 316.490227 279.855542 
L 320.059858 277.687737 
L 323.745298 275.710467 
L 327.520963 273.93681 
L 331.394834 272.362675 
L 335.340201 270.998862 
L 339.365673 269.842614 
L 343.443532 268.902372 
L 347.56378 268.179612 
L 351.735643 267.673687 
L 355.930173 267.389321 
L 357.777138 267.334613 
L 357.777138 267.334613 
" style="fill:none;stroke:#2e8b57;stroke-linecap:round;stroke-width:1.75;"/>
   </g>
   <g id="line2d_42">
    <path clip-path="url(#p22d404fdc9)" d="M 357.777138 267.334613 
" style="fill:none;stroke:#2e8b57;stroke-linecap:round;stroke-width:1.75;"/>
    <g clip-path="url(#p22d404fdc9)">
     <use style="fill:#2e8b57;" x="357.777138" xlink:href="#m5bf488a047" y="267.334613"/>
    </g>
   </g>
   <g id="line2d_43">
    <path clip-path="url(#p22d404fdc9)" d="M 382.59 344.61 
L 389.559922 340.794627 
L 396.314919 336.841089 
L 403.335703 332.46957 
L 411.246052 327.275623 
L 427.735681 316.348621 
L 430.494037 314.797281 
L 432.373345 313.938766 
L 433.874801 313.488846 
L 434.94499 313.445179 
L 435.584961 313.682797 
L 436.058666 314.208599 
L 436.351464 315.28925 
L 436.337571 316.537439 
L 436.029383 318.409029 
L 435.333572 320.973386 
L 434.175989 324.326828 
L 432.276019 329.094215 
L 429.093447 336.395062 
L 423.965659 348.131967 
L 422.871838 351.189879 
L 422.534841 352.712775 
L 422.573599 353.422945 
L 422.784089 353.709847 
L 423.110795 353.773158 
L 423.644349 353.620894 
L 424.556848 353.105338 
L 426.125687 351.935907 
L 429.205666 349.31363 
L 438.148606 341.612132 
L 441.608825 338.967657 
L 444.171931 337.258099 
L 446.247751 336.120108 
L 447.663967 335.544441 
L 448.794582 335.274208 
L 449.77755 335.273107 
L 450.341928 335.446929 
L 450.850822 335.818384 
L 451.19325 336.314202 
L 451.485668 337.290143 
L 451.54669 338.508607 
L 451.376397 340.128005 
L 450.871679 342.41387 
L 450.008505 345.214803 
L 448.638208 348.861456 
L 446.696662 353.367491 
L 444.089823 358.841924 
L 440.706307 365.415684 
L 436.576554 372.938342 
L 432.140989 380.928226 
L 432.197818 380.915016 
L 432.581259 380.573012 
L 434.685898 378.276417 
L 438.744404 373.975382 
L 442.279154 370.545378 
L 445.500987 367.720534 
L 448.283118 365.555512 
L 450.803809 363.872792 
L 452.692553 362.848214 
L 454.18027 362.236176 
L 455.475302 361.911604 
L 456.283299 361.851665 
L 457.228543 362.007725 
L 457.716872 362.24009 
L 458.145121 362.593096 
L 458.68949 363.474545 
L 458.927086 364.333801 
L 459.026178 365.809809 
L 458.86032 367.609151 
L 458.410272 369.80212 
L 457.591303 372.579099 
L 456.393561 375.82579 
L 454.721186 379.690391 
L 452.629904 383.963991 
L 450.051872 388.717262 
L 447.194841 393.521676 
L 444.136232 398.230702 
L 441.196456 402.364255 
L 438.557993 405.707907 
L 436.398058 408.107812 
L 434.860021 409.513202 
L 433.912557 410.110484 
L 433.439691 410.187352 
L 433.237812 410.024697 
L 433.180483 409.666657 
L 433.319777 408.971675 
L 433.811055 407.753586 
L 434.797304 405.939752 
L 436.32218 403.618246 
L 438.391689 400.895572 
L 440.634362 398.297225 
L 443.040822 395.841312 
L 445.378181 393.751378 
L 447.539514 392.095005 
L 449.455271 390.881814 
L 451.150694 390.049173 
L 452.562042 389.598599 
L 453.64781 389.460584 
L 454.518318 389.548775 
L 455.426169 389.950589 
L 456.114865 390.691147 
L 456.491569 391.524137 
L 456.719414 392.681087 
L 456.750962 394.015037 
L 456.535017 395.965332 
L 456.025945 398.260734 
L 455.197906 400.932335 
L 453.968173 404.12026 
L 452.332442 407.728909 
L 450.301523 411.66378 
L 447.847264 415.929104 
L 445.111186 420.232274 
L 442.127285 424.507282 
L 439.099967 428.46232 
L 436.118574 431.996206 
L 433.293756 435.00628 
L 430.736763 437.418892 
L 428.522324 439.21594 
L 426.653151 440.458688 
L 425.164353 441.195426 
L 424.023414 441.528729 
L 423.162139 441.560698 
L 422.536735 441.369403 
L 422.088982 441.005466 
L 421.772408 440.457673 
L 421.600067 439.698524 
L 421.601373 438.659706 
L 421.837938 437.279549 
L 422.374082 435.544685 
L 423.254767 433.473339 
L 424.499461 431.121859 
L 426.056571 428.650913 
L 427.96237 426.054416 
L 429.964054 423.687806 
L 431.971907 421.645185 
L 433.958738 419.911595 
L 435.716434 418.641387 
L 437.256236 417.758775 
L 438.794383 417.13651 
L 439.796868 416.926074 
L 440.609603 416.910767 
L 441.517205 417.140548 
L 442.324484 417.747417 
L 442.825266 418.554882 
L 443.150435 419.732573 
L 443.242921 421.096847 
L 443.114603 422.823823 
L 442.711384 424.987891 
L 441.981995 427.601973 
L 440.892201 430.652238 
L 439.35829 434.240899 
L 437.433457 438.162191 
L 435.058517 442.474021 
L 432.352601 446.927446 
L 429.315791 451.492044 
L 426.00349 456.06783 
L 422.554146 460.458579 
L 419.04372 464.569797 
L 415.538487 468.335876 
L 412.055426 471.753726 
L 408.752702 474.689873 
L 405.624738 477.17565 
L 402.734705 479.192384 
L 400.10194 480.762921 
L 397.73902 481.920067 
L 395.627643 482.712502 
L 393.773583 483.177743 
L 392.155694 483.361885 
L 390.754577 483.305288 
L 389.557011 483.040721 
L 388.514896 482.586002 
L 387.621945 481.955916 
L 386.862711 481.148109 
L 386.231486 480.145871 
L 385.740179 478.938471 
L 385.403231 477.512627 
L 385.236448 475.823707 
L 385.269247 473.840389 
L 385.527363 471.633702 
L 386.070493 469.021932 
L 386.900712 466.131178 
L 387.975995 463.19794 
L 389.310327 460.209384 
L 390.922538 457.141373 
L 392.716457 454.187742 
L 394.64577 451.434917 
L 396.623834 449.001526 
L 398.490589 447.054282 
L 400.080197 445.677945 
L 401.38527 444.783621 
L 402.596558 444.199018 
L 403.431664 443.99149 
L 403.954552 443.982713 
L 404.528673 444.141739 
L 405.017704 444.532267 
L 405.313318 445.02614 
L 405.545288 445.956366 
L 405.57011 447.113999 
L 405.366941 448.671315 
L 404.868098 450.677442 
L 404.02353 453.128792 
L 402.729208 456.158757 
L 401.03878 459.532524 
L 398.874458 463.346198 
L 396.299383 467.419175 
L 393.308081 471.72985 
L 390.067964 476.009192 
L 386.503254 480.34491 
L 382.705052 484.613899 
L 378.849256 488.612661 
L 374.94717 492.342368 
L 371.008637 495.802177 
L 367.042811 498.990848 
L 363.219584 501.784836 
L 359.49399 504.234347 
L 355.902659 506.331745 
L 352.476125 508.07881 
L 349.207128 509.49888 
L 347.101987 510.27636 
L 347.101987 510.27636 
" style="fill:none;stroke:#4b0082;stroke-linecap:round;stroke-width:1.75;"/>
   </g>
   <g id="line2d_44">
    <path clip-path="url(#p22d404fdc9)" d="M 347.101987 510.27636 
" style="fill:none;stroke:#4b0082;stroke-linecap:round;stroke-width:1.75;"/>
    <g clip-path="url(#p22d404fdc9)">
     <use style="fill:#4b0082;" x="347.101987" xlink:href="#m15b00dfc2a" y="510.27636"/>
    </g>
   </g>
   <g id="line2d_45">
    <path clip-path="url(#p22d404fdc9)" d="M 423.36 303.84 
L 426.760692 306.405728 
L 430.029479 309.151119 
L 433.139788 312.052962 
L 436.100002 315.118073 
L 438.900875 318.338332 
L 441.533672 321.705163 
L 443.978042 325.191271 
L 446.240576 328.804723 
L 448.314143 332.535989 
L 450.183235 336.355805 
L 451.852849 340.272996 
L 453.317404 344.277345 
L 454.566167 348.338342 
L 455.602299 352.465246 
L 456.418276 356.627224 
L 457.016005 360.833818 
L 457.390974 365.054081 
L 457.543658 369.277251 
L 457.473973 373.512595 
L 457.181775 377.729329 
L 456.668506 381.917004 
L 455.935938 386.065365 
L 454.98619 390.164367 
L 453.821736 394.204198 
L 452.445421 398.175296 
L 450.867407 402.0511 
L 449.084645 405.840791 
L 447.101109 409.53454 
L 444.931289 413.106598 
L 442.570965 416.564365 
L 440.036595 419.88354 
L 437.33526 423.056605 
L 434.460803 426.089614 
L 431.432379 428.960794 
L 428.271977 431.651549 
L 424.97363 434.168731 
L 421.544734 436.506154 
L 417.992752 438.6579 
L 414.342053 440.609884 
L 410.584321 442.36695 
L 406.744851 443.917426 
L 402.814306 445.265016 
L 398.818762 446.400519 
L 394.749325 447.326578 
L 390.618125 448.03953 
L 386.453949 448.533367 
L 382.266886 448.807083 
L 380.101997 448.861966 
L 380.101997 448.861966 
" style="fill:none;stroke:#4682b4;stroke-linecap:round;stroke-width:1.75;"/>
   </g>
   <g id="line2d_46">
    <path clip-path="url(#p22d404fdc9)" d="M 380.101997 448.861966 
" style="fill:none;stroke:#4682b4;stroke-linecap:round;stroke-width:1.75;"/>
    <g clip-path="url(#p22d404fdc9)">
     <use style="fill:#4682b4;" x="380.101997" xlink:href="#m4afc49622d" y="448.861966"/>
    </g>
   </g>
   <g id="line2d_47">
    <path clip-path="url(#p22d404fdc9)" d="M 314.64 412.56 
L 311.239308 409.994272 
L 307.970521 407.248881 
L 304.860212 404.347038 
L 301.899998 401.281927 
L 299.099125 398.061668 
L 296.466328 394.694837 
L 294.021958 391.208729 
L 291.759424 387.595277 
L 289.685857 383.864011 
L 287.816765 380.044195 
L 286.147151 376.127004 
L 284.682596 372.122655 
L 283.433833 368.061658 
L 282.397701 363.934754 
L 281.581724 359.772776 
L 280.983995 355.566182 
L 280.609026 351.345919 
L 280.456342 347.122749 
L 280.526027 342.887405 
L 280.818225 338.670671 
L 281.331494 334.482996 
L 282.064062 330.334635 
L 283.01381 326.235633 
L 284.178264 322.195802 
L 285.554579 318.224704 
L 287.132593 314.3489 
L 288.915355 310.559209 
L 290.898891 306.86546 
L 293.068711 303.293402 
L 295.429035 299.835635 
L 297.963405 296.51646 
L 300.66474 293.343395 
L 303.539197 290.310386 
L 306.567621 287.439206 
L 309.728023 284.748451 
L 313.02637 282.231269 
L 316.455266 279.893846 
L 320.007248 277.7421 
L 323.657947 275.790116 
L 327.415679 274.03305 
L 331.255149 272.482574 
L 335.185694 271.134984 
L 339.181238 269.999481 
L 343.250675 269.073422 
L 347.381875 268.36047 
L 351.546051 267.866633 
L 355.733114 267.592917 
L 357.898003 267.538034 
L 357.898003 267.538034 
" style="fill:none;stroke:#2e8b57;stroke-linecap:round;stroke-width:1.75;"/>
   </g>
   <g id="line2d_48">
    <path clip-path="url(#p22d404fdc9)" d="M 357.898003 267.538034 
" style="fill:none;stroke:#2e8b57;stroke-linecap:round;stroke-width:1.75;"/>
    <g clip-path="url(#p22d404fdc9)">
     <use style="fill:#2e8b57;" x="357.898003" xlink:href="#m5bf488a047" y="267.538034"/>
    </g>
   </g>
   <g id="line2d_49">
    <path clip-path="url(#p22d404fdc9)" d="M 382.59 344.61 
L 390.169684 340.272119 
L 397.379043 335.88954 
L 405.079903 330.940163 
L 413.176447 325.47172 
L 425.71497 316.991898 
L 429.415717 314.764557 
L 431.64984 313.654569 
L 433.026083 313.162056 
L 433.950688 312.994098 
L 434.533985 313.011537 
L 435.177163 313.249678 
L 435.649166 313.776945 
L 435.961139 314.860741 
L 435.991199 316.135397 
L 435.773403 318.100264 
L 435.173423 321.132461 
L 433.931143 326.057327 
L 431.366512 335.13634 
L 421.136868 370.018021 
L 414.942535 390.558953 
L 410.201675 405.520531 
L 405.772267 418.769185 
L 401.371727 431.23291 
L 396.853471 443.365194 
L 392.045666 455.637337 
L 386.922261 468.104635 
L 381.399303 480.956033 
L 375.364922 494.426664 
L 368.65333 508.854448 
L 361.078915 524.601205 
L 352.757851 541.378825 
L 343.417902 559.699856 
L 332.715912 580.191709 
L 320.130469 603.796604 
L 305.700807 630.382064 
L 289.429097 659.875695 
L 270.504299 693.714604 
L 255.087041 721 
L 255.087041 721 
" style="fill:none;stroke:#4b0082;stroke-linecap:round;stroke-width:1.75;"/>
   </g>
   <g id="line2d_50">
    <path clip-path="url(#p22d404fdc9)" style="fill:none;stroke:#4b0082;stroke-linecap:round;stroke-width:1.75;"/>
    <g clip-path="url(#p22d404fdc9)">
     <use style="fill:#4b0082;" x="170.361587" xlink:href="#m15b00dfc2a" y="868.274453"/>
    </g>
   </g>
   <g id="line2d_51">
    <path clip-path="url(#p22d404fdc9)" d="M 423.36 303.84 
L 426.760692 306.405728 
L 430.029479 309.151119 
L 433.139788 312.052962 
L 436.100002 315.118073 
L 438.900875 318.338332 
L 441.533672 321.705163 
L 443.978042 325.191271 
L 446.240574 328.804721 
L 448.314143 332.535989 
L 450.183238 336.355796 
L 451.852846 340.272954 
L 453.317378 344.277278 
L 454.566137 348.338277 
L 455.60231 352.465212 
L 456.418337 356.627215 
L 457.01613 360.833698 
L 457.391191 365.053674 
L 457.543922 369.276482 
L 457.474243 373.511503 
L 457.182062 377.728066 
L 456.668885 381.915803 
L 455.936547 386.064483 
L 454.987197 390.164006 
L 453.823292 394.204394 
L 452.447585 398.175782 
L 450.870813 402.050872 
L 449.090403 405.838544 
L 447.109916 409.529339 
L 444.943462 413.097944 
L 442.586537 416.552198 
L 440.055342 419.868272 
L 437.3442 423.053109 
L 434.471305 426.084462 
L 431.443926 428.955644 
L 428.269475 431.66018 
L 424.955516 434.191807 
L 421.509774 436.544459 
L 417.940144 438.712263 
L 414.254704 440.689533 
L 410.479038 442.463191 
L 406.605167 444.037326 
L 402.659801 445.40114 
L 398.634328 446.557388 
L 394.55647 447.497629 
L 390.436222 448.22039 
L 386.26436 448.726315 
L 382.06983 449.010681 
L 380.222865 449.065389 
L 380.222865 449.065389 
" style="fill:none;stroke:#4682b4;stroke-linecap:round;stroke-width:1.75;"/>
   </g>
   <g id="line2d_52">
    <path clip-path="url(#p22d404fdc9)" d="M 380.222865 449.065389 
" style="fill:none;stroke:#4682b4;stroke-linecap:round;stroke-width:1.75;"/>
    <g clip-path="url(#p22d404fdc9)">
     <use style="fill:#4682b4;" x="380.222865" xlink:href="#m4afc49622d" y="449.065389"/>
    </g>
   </g>
   <g id="line2d_53">
    <path clip-path="url(#p22d404fdc9)" d="M 314.64 412.56 
L 311.239308 409.994272 
L 307.970521 407.248881 
L 304.860212 404.347038 
L 301.899998 401.281927 
L 299.099125 398.061668 
L 296.466328 394.694837 
L 294.021958 391.208729 
L 291.759426 387.595279 
L 289.685857 383.864011 
L 287.816762 380.044204 
L 286.147154 376.127046 
L 284.682622 372.122722 
L 283.433863 368.061723 
L 282.39769 363.934788 
L 281.581663 359.772785 
L 280.98387 355.566302 
L 280.608809 351.346326 
L 280.456078 347.123518 
L 280.525757 342.888497 
L 280.817938 338.671934 
L 281.331115 334.484197 
L 282.063453 330.335517 
L 283.012803 326.235994 
L 284.176708 322.195606 
L 285.552415 318.224218 
L 287.129187 314.349128 
L 288.909597 310.561456 
L 290.890084 306.870661 
L 293.056538 303.302056 
L 295.413463 299.847802 
L 297.944658 296.531728 
L 300.6558 293.346891 
L 303.528695 290.315538 
L 306.556074 287.444356 
L 309.730525 284.73982 
L 313.044484 282.208193 
L 316.490226 279.855541 
L 320.059856 277.687737 
L 323.745296 275.710467 
L 327.520962 273.936809 
L 331.394833 272.362674 
L 335.340199 270.99886 
L 339.365672 269.842612 
L 343.44353 268.902371 
L 347.563778 268.17961 
L 351.73564 267.673685 
L 355.93017 267.389319 
L 357.777135 267.334611 
L 357.777135 267.334611 
" style="fill:none;stroke:#2e8b57;stroke-linecap:round;stroke-width:1.75;"/>
   </g>
   <g id="line2d_54">
    <path clip-path="url(#p22d404fdc9)" d="M 357.777135 267.334611 
" style="fill:none;stroke:#2e8b57;stroke-linecap:round;stroke-width:1.75;"/>
    <g clip-path="url(#p22d404fdc9)">
     <use style="fill:#2e8b57;" x="357.777135" xlink:href="#m5bf488a047" y="267.334611"/>
    </g>
   </g>
   <g id="line2d_55">
    <path clip-path="url(#p22d404fdc9)" d="M 382.59 344.61 
L 390.802559 339.726584 
L 398.539252 334.864747 
L 406.796592 329.40368 
L 416.726147 322.537417 
L 425.484637 316.577377 
L 429.029277 314.410638 
L 431.259802 313.278069 
L 432.636506 312.772162 
L 433.565426 312.596112 
L 434.150243 312.610482 
L 434.79673 312.855236 
L 435.261915 313.385492 
L 435.560887 314.450404 
L 435.572291 315.687271 
L 435.309581 317.551707 
L 434.67881 320.110356 
L 433.60803 323.448482 
L 431.883315 328.045647 
L 429.119149 334.711285 
L 424.478862 345.83456 
L 423.917751 347.747437 
L 423.897141 348.474428 
L 424.071234 348.687933 
L 424.359386 348.67948 
L 424.899949 348.409927 
L 425.989075 347.577778 
L 427.980148 345.740827 
L 437.077327 337.077317 
L 440.130164 334.524012 
L 442.603399 332.727079 
L 444.329717 331.697381 
L 445.833101 331.040547 
L 446.647273 330.833405 
L 447.709094 330.84008 
L 448.298821 331.095058 
L 448.747299 331.561841 
L 449.132525 332.57375 
L 449.23431 333.82671 
L 449.100214 335.468194 
L 448.649502 337.768178 
L 447.807532 340.754456 
L 446.506642 344.502604 
L 444.609879 349.259935 
L 442.019602 355.128086 
L 438.648998 362.193272 
L 433.059046 373.669891 
L 433.127246 373.659971 
L 433.47546 373.367289 
L 434.871836 371.812662 
L 440.056127 365.994494 
L 443.763048 362.226882 
L 446.619698 359.633428 
L 449.124885 357.628342 
L 451.259682 356.188113 
L 452.820442 355.350703 
L 453.993727 354.892406 
L 455.146193 354.655187 
L 456.135584 354.72484 
L 456.664267 354.939825 
L 457.121607 355.309213 
L 457.656582 356.228429 
L 457.915112 357.493039 
L 457.929193 358.886786 
L 457.693836 360.865665 
L 457.142915 363.365692 
L 456.205558 366.487645 
L 454.841774 370.218816 
L 452.998267 374.593366 
L 450.673675 379.524097 
L 447.920901 384.834544 
L 444.945832 390.089745 
L 441.953352 394.932059 
L 439.303561 398.811557 
L 437.241713 401.462344 
L 435.940152 402.8167 
L 435.328615 403.190893 
L 435.137125 403.113861 
L 435.110853 402.824953 
L 435.309599 402.123594 
L 435.952289 400.758948 
L 437.237446 398.588764 
L 439.110579 395.884994 
L 441.45306 392.853358 
L 443.748854 390.239919 
L 446.208712 387.767126 
L 448.48834 385.754445 
L 450.616067 384.180705 
L 452.352074 383.157145 
L 453.622134 382.590603 
L 454.968621 382.250381 
L 455.827923 382.228463 
L 456.793707 382.511544 
L 457.236021 382.823898 
L 457.837594 383.649966 
L 458.127548 384.49003 
L 458.285045 385.61722 
L 458.254881 387.203131 
L 457.94826 389.282291 
L 457.365861 391.629783 
L 456.431757 394.454762 
L 455.073034 397.809811 
L 453.357865 401.42803 
L 451.258049 405.325345 
L 448.915218 409.19702 
L 446.366197 412.979519 
L 443.816657 416.366994 
L 441.393825 419.226664 
L 439.161305 421.528829 
L 437.273814 423.170987 
L 435.752283 424.220421 
L 434.577614 424.778104 
L 433.733698 424.949865 
L 433.156344 424.858304 
L 432.760037 424.580034 
L 432.493655 424.11225 
L 432.366532 423.408932 
L 432.428516 422.397159 
L 432.746505 421.031029 
L 433.381489 419.308546 
L 434.393006 417.22146 
L 435.772643 414.894106 
L 437.414352 412.560121 
L 439.282672 410.267014 
L 441.14506 408.325413 
L 443.083555 406.631135 
L 444.747699 405.46617 
L 446.074703 404.740361 
L 447.240645 404.316293 
L 448.382741 404.146784 
L 449.307191 404.283276 
L 449.77757 404.501654 
L 450.191439 404.827432 
L 450.744833 405.642865 
L 451.015018 406.457538 
L 451.160537 407.555031 
L 451.116748 409.105292 
L 450.833073 410.90449 
L 450.273438 413.034982 
L 449.395334 415.506465 
L 448.169091 418.283398 
L 446.643999 421.190465 
L 444.816057 424.198624 
L 442.803138 427.091614 
L 440.658503 429.79012 
L 438.481275 432.182231 
L 436.395891 434.151912 
L 434.46333 435.679305 
L 432.764705 436.750308 
L 431.318744 437.414892 
L 430.103467 437.737636 
L 429.150367 437.772184 
L 428.403196 437.588275 
L 427.822438 437.222715 
L 427.384916 436.684858 
L 427.084441 435.958771 
L 426.935051 435.002067 
L 426.97331 433.780792 
L 427.244765 432.294839 
L 427.787416 430.56274 
L 428.629694 428.626143 
L 429.774913 426.55954 
L 431.126658 424.572167 
L 432.603325 422.775722 
L 434.196168 421.186438 
L 435.603707 420.061161 
L 436.867605 419.285011 
L 437.989278 418.809046 
L 439.10193 418.592861 
L 440.019849 418.685868 
L 440.49167 418.882601 
L 441.248297 419.575154 
L 441.661565 420.396728 
L 441.913006 421.539402 
L 441.961385 422.85088 
L 441.802258 424.50859 
L 441.372372 426.578153 
L 440.614662 429.055329 
L 439.554182 431.754668 
L 438.107202 434.809124 
L 436.383593 437.923799 
L 434.316027 441.186033 
L 432.128393 444.228214 
L 429.802705 447.087647 
L 427.380069 449.713304 
L 425.076442 451.892576 
L 422.854759 453.694632 
L 420.808242 455.072719 
L 418.969967 456.048706 
L 417.361262 456.659223 
L 415.992693 456.952043 
L 414.81845 456.981416 
L 413.849067 456.788705 
L 413.046084 456.405938 
L 412.384777 455.840932 
L 411.866754 455.101586 
L 411.485946 454.166358 
L 411.253612 452.98996 
L 411.20311 451.539024 
L 411.374375 449.859811 
L 411.794713 447.938933 
L 412.470456 445.877867 
L 413.450018 443.62087 
L 414.643738 441.414227 
L 416.073245 439.244509 
L 417.530206 437.40876 
L 419.056826 435.825478 
L 420.517111 434.622092 
L 421.862556 433.790319 
L 423.122085 433.319522 
L 423.951602 433.217326 
L 424.91612 433.421072 
L 425.366532 433.705214 
L 425.977214 434.49751 
L 426.268057 435.310055 
L 426.420085 436.400151 
L 426.372395 437.928299 
L 426.076192 439.690275 
L 425.49347 441.764735 
L 424.57627 444.155687 
L 423.357144 446.694541 
L 421.876873 449.268826 
L 420.113931 451.89036 
L 418.175355 454.373687 
L 416.157929 456.604084 
L 414.034484 458.620468 
L 411.991784 460.255414 
L 410.039081 461.535533 
L 408.230113 462.456559 
L 406.604837 463.039433 
L 405.15331 463.327077 
L 403.901147 463.353069 
L 402.834763 463.160533 
L 401.914276 462.771761 
L 401.13851 462.20134 
L 400.507775 461.461056 
L 400.009262 460.527495 
L 399.658768 459.38953 
L 399.474662 458.033412 
L 399.484633 456.493158 
L 399.736647 454.631244 
L 400.229989 452.607818 
L 400.955723 450.5868 
L 401.891468 448.632824 
L 403.03976 446.720084 
L 404.290275 445.032294 
L 405.667421 443.545407 
L 406.889584 442.517292 
L 408.102307 441.778079 
L 409.101744 441.408001 
L 409.966139 441.31813 
L 410.459428 441.394873 
L 410.947243 441.603131 
L 411.36224 441.937516 
L 411.878944 442.753906 
L 412.173613 443.91747 
L 412.222443 445.231776 
L 412.040605 446.864713 
L 411.56827 448.872028 
L 410.813711 451.072745 
L 409.742594 453.502149 
L 408.32342 456.14377 
L 406.663744 458.749802 
L 404.740791 461.341637 
L 402.716766 463.695789 
L 400.617608 465.798981 
L 398.467836 467.637936 
L 396.390488 469.127937 
L 394.390831 470.289388 
L 392.566913 471.098807 
L 390.869326 471.612477 
L 389.337301 471.845678 
L 387.998069 471.833069 
L 386.804195 471.60725 
L 385.754839 471.184335 
L 384.845189 470.581301 
L 384.050408 469.78578 
L 383.400323 468.822088 
L 382.885889 467.657948 
L 382.527951 466.277387 
L 382.354555 464.712821 
L 382.380187 462.903302 
L 382.633759 460.887667 
L 383.159195 458.642298 
L 383.911266 456.409715 
L 384.832615 454.350348 
L 385.96017 452.34627 
L 387.189353 450.584889 
L 388.531641 449.031086 
L 389.730839 447.954163 
L 390.92415 447.167617 
L 391.917396 446.761509 
L 392.788398 446.640943 
L 393.291217 446.711066 
L 393.788785 446.923788 
L 394.201241 447.269074 
L 394.690798 448.096664 
L 394.948356 449.244336 
L 394.962882 450.52549 
L 394.741901 452.103376 
L 394.221665 454.022093 
L 393.411822 456.095391 
L 392.276891 458.341536 
L 390.924919 460.512106 
L 389.32564 462.650598 
L 387.583582 464.598906 
L 385.793171 466.268212 
L 383.974647 467.665985 
L 382.200625 468.752794 
L 380.534558 469.520297 
L 378.978059 469.998985 
L 377.532879 470.211921 
L 376.242142 470.179916 
L 375.097813 469.933809 
L 374.096121 469.497226 
L 373.202177 468.864951 
L 372.451605 468.065929 
L 371.823617 467.073238 
L 371.335172 465.875369 
L 371.007152 464.457023 
L 370.864359 462.799114 
L 370.932244 461.024301 
L 371.23659 459.062967 
L 371.76609 457.095023 
L 372.543118 455.060636 
L 373.467103 453.23205 
L 374.536031 451.580516 
L 375.673242 450.198255 
L 375.828686 450.036131 
L 375.828686 450.036131 
" style="fill:none;stroke:#4b0082;stroke-linecap:round;stroke-width:1.75;"/>
   </g>
   <g id="line2d_56">
    <path clip-path="url(#p22d404fdc9)" d="M 375.828686 450.036131 
" style="fill:none;stroke:#4b0082;stroke-linecap:round;stroke-width:1.75;"/>
    <g clip-path="url(#p22d404fdc9)">
     <use style="fill:#4b0082;" x="375.828686" xlink:href="#m15b00dfc2a" y="450.036131"/>
    </g>
   </g>
   <g id="line2d_57">
    <path clip-path="url(#p22d404fdc9)" d="M 423.36 303.84 
L 426.760692 306.405728 
L 430.029479 309.151119 
L 433.139788 312.052962 
L 436.100002 315.118073 
L 438.900875 318.338332 
L 441.533672 321.705163 
L 443.978042 325.191272 
L 446.240576 328.804722 
L 448.314142 332.535989 
L 450.183235 336.355811 
L 451.852855 340.272997 
L 453.317406 344.277335 
L 454.566155 348.338321 
L 455.60228 352.465227 
L 456.418274 356.627244 
L 457.015995 360.833902 
L 457.391009 365.05416 
L 457.543739 369.277256 
L 457.47407 373.512469 
L 457.181845 377.729046 
L 456.668512 381.91658 
L 455.935872 386.064873 
L 454.986092 390.163955 
L 453.82172 394.204106 
L 452.451822 398.158151 
L 450.874002 402.035636 
L 449.09192 405.826665 
L 447.109465 409.52137 
L 444.941024 413.093979 
L 442.582286 416.551892 
L 440.0496 419.870819 
L 437.349939 423.04328 
L 434.490338 426.062075 
L 431.47789 428.920288 
L 428.319754 431.611287 
L 425.023145 434.128722 
L 421.595342 436.466527 
L 418.043685 438.618918 
L 414.392423 440.571958 
L 410.633119 442.33066 
L 406.790955 443.883525 
L 402.856462 445.234459 
L 398.821096 446.384009 
L 394.732693 447.317279 
L 390.601287 448.032662 
L 386.436943 448.528864 
L 382.249751 448.804894 
L 380.084804 448.860956 
L 380.084804 448.860956 
" style="fill:none;stroke:#4682b4;stroke-linecap:round;stroke-width:1.75;"/>
   </g>
   <g id="line2d_58">
    <path clip-path="url(#p22d404fdc9)" d="M 380.084804 448.860956 
" style="fill:none;stroke:#4682b4;stroke-linecap:round;stroke-width:1.75;"/>
    <g clip-path="url(#p22d404fdc9)">
     <use style="fill:#4682b4;" x="380.084804" xlink:href="#m4afc49622d" y="448.860956"/>
    </g>
   </g>
   <g id="line2d_59">
    <path clip-path="url(#p22d404fdc9)" d="M 314.64 412.56 
L 311.239308 409.994272 
L 307.970521 407.248881 
L 304.860212 404.347038 
L 301.899998 401.281927 
L 299.099125 398.061668 
L 296.466328 394.694837 
L 294.021958 391.208728 
L 291.759424 387.595278 
L 289.685858 383.864011 
L 287.816765 380.044189 
L 286.147145 376.127003 
L 284.682594 372.122665 
L 283.433845 368.061679 
L 282.39772 363.934773 
L 281.581726 359.772756 
L 280.984005 355.566098 
L 280.608991 351.34584 
L 280.456261 347.122744 
L 280.52593 342.887531 
L 280.818155 338.670954 
L 281.331488 334.48342 
L 282.064128 330.335127 
L 283.013908 326.236045 
L 284.17828 322.195894 
L 285.548178 318.241849 
L 287.125998 314.364364 
L 288.90808 310.573335 
L 290.890535 306.87863 
L 293.058976 303.306021 
L 295.417714 299.848108 
L 297.9504 296.529181 
L 300.650061 293.35672 
L 303.509662 290.337925 
L 306.52211 287.479712 
L 309.680246 284.788713 
L 312.976855 282.271278 
L 316.404658 279.933473 
L 319.956315 277.781082 
L 323.607577 275.828042 
L 327.366881 274.06934 
L 331.209045 272.516475 
L 335.143538 271.165541 
L 339.178904 270.015991 
L 343.267307 269.082721 
L 347.398713 268.367338 
L 351.563057 267.871136 
L 355.750249 267.595106 
L 357.915196 267.539044 
L 357.915196 267.539044 
" style="fill:none;stroke:#2e8b57;stroke-linecap:round;stroke-width:1.75;"/>
   </g>
   <g id="line2d_60">
    <path clip-path="url(#p22d404fdc9)" d="M 357.915196 267.539044 
" style="fill:none;stroke:#2e8b57;stroke-linecap:round;stroke-width:1.75;"/>
    <g clip-path="url(#p22d404fdc9)">
     <use style="fill:#2e8b57;" x="357.915196" xlink:href="#m5bf488a047" y="267.539044"/>
    </g>
   </g>
   <g id="line2d_61">
    <path clip-path="url(#p22d404fdc9)" d="M 382.59 344.61 
L 391.399726 339.195087 
L 399.608303 333.88738 
L 408.240696 328.032771 
L 427.894507 314.535156 
L 430.386354 313.167797 
L 431.963462 312.508225 
L 432.805229 312.283806 
L 433.320487 312.220899 
L 433.930108 312.26882 
L 434.566188 312.586302 
L 434.965795 313.144782 
L 435.221218 314.193748 
L 435.217636 315.792383 
L 434.934914 317.912375 
L 434.239321 321.187794 
L 432.899704 326.292235 
L 430.115979 335.868366 
L 416.452878 381.4335 
L 411.766666 396.320683 
L 407.74693 408.362498 
L 403.918341 419.137613 
L 400.095705 429.235649 
L 396.154777 439.01936 
L 392.07121 448.56208 
L 387.797855 457.980788 
L 383.316117 467.320823 
L 378.536265 476.767854 
L 373.374924 486.472742 
L 367.925455 496.242513 
L 362.129686 506.173003 
L 355.960933 516.298578 
L 349.348115 526.72167 
L 342.279502 537.445073 
L 334.749646 548.462775 
L 326.85096 559.625963 
L 318.44014 571.120162 
L 309.696937 582.693042 
L 300.654474 594.292845 
L 291.288385 605.945688 
L 281.609049 617.632875 
L 271.714441 629.231924 
L 261.824508 640.485209 
L 252.297632 650.993034 
L 243.47251 660.40218 
L 234.878983 669.243099 
L 227.178341 676.872083 
L 227.178341 676.872083 
" style="fill:none;stroke:#4b0082;stroke-linecap:round;stroke-width:1.75;"/>
   </g>
   <g id="line2d_62">
    <path clip-path="url(#p22d404fdc9)" d="M 227.178341 676.872083 
" style="fill:none;stroke:#4b0082;stroke-linecap:round;stroke-width:1.75;"/>
    <g clip-path="url(#p22d404fdc9)">
     <use style="fill:#4b0082;" x="227.178341" xlink:href="#m15b00dfc2a" y="676.872083"/>
    </g>
   </g>
   <g id="line2d_63">
    <path clip-path="url(#p22d404fdc9)" d="M 423.36 303.84 
L 426.760692 306.405728 
L 430.029479 309.151119 
L 433.139788 312.052962 
L 436.100002 315.118073 
L 438.900875 318.338332 
L 441.533672 321.705163 
L 443.978043 325.191271 
L 446.240574 328.804721 
L 448.314141 332.535996 
L 450.183246 336.35582 
L 451.852865 340.272984 
L 453.317385 344.277296 
L 454.566116 348.338282 
L 455.602257 352.465278 
L 456.418253 356.627451 
L 457.01606 360.834139 
L 457.391157 365.05427 
L 457.543886 369.277112 
L 457.474958 373.492118 
L 457.183587 377.708637 
L 456.671116 381.896359 
L 455.939481 386.0453 
L 454.99026 390.14607 
L 453.825897 394.188725 
L 452.449444 398.163074 
L 450.864175 402.058985 
L 449.082159 405.849345 
L 447.100258 409.542315 
L 444.932614 413.112193 
L 442.574673 416.566484 
L 440.042545 419.881083 
L 437.342969 423.048728 
L 434.482757 426.062492 
L 431.468784 428.915781 
L 428.307998 431.60233 
L 425.007411 434.11621 
L 421.574106 436.451823 
L 418.015234 438.603903 
L 414.338418 440.567412 
L 410.554044 442.336657 
L 406.670979 443.906145 
L 402.716027 445.264977 
L 398.680608 446.415791 
L 394.592554 447.350098 
L 390.461915 448.06637 
L 386.298723 448.563386 
L 382.112988 448.840219 
L 380.066049 448.895154 
L 380.066049 448.895154 
" style="fill:none;stroke:#4682b4;stroke-linecap:round;stroke-width:1.75;"/>
   </g>
   <g id="line2d_64">
    <path clip-path="url(#p22d404fdc9)" d="M 380.066049 448.895154 
" style="fill:none;stroke:#4682b4;stroke-linecap:round;stroke-width:1.75;"/>
    <g clip-path="url(#p22d404fdc9)">
     <use style="fill:#4682b4;" x="380.066049" xlink:href="#m4afc49622d" y="448.895154"/>
    </g>
   </g>
   <g id="line2d_65">
    <path clip-path="url(#p22d404fdc9)" d="M 314.64 412.56 
L 311.239308 409.994272 
L 307.970521 407.248881 
L 304.860212 404.347038 
L 301.899998 401.281927 
L 299.099125 398.061668 
L 296.466328 394.694837 
L 294.021957 391.208729 
L 291.759426 387.595279 
L 289.685859 383.864004 
L 287.816754 380.04418 
L 286.147135 376.127016 
L 284.682615 372.122704 
L 283.433884 368.061718 
L 282.397743 363.934722 
L 281.581747 359.772549 
L 280.98394 355.565861 
L 280.608843 351.34573 
L 280.456114 347.122888 
L 280.525042 342.907882 
L 280.816413 338.691363 
L 281.328884 334.503641 
L 282.060519 330.3547 
L 283.00974 326.25393 
L 284.174103 322.211275 
L 285.550556 318.236926 
L 287.135825 314.341015 
L 288.917841 310.550655 
L 290.899742 306.857685 
L 293.067386 303.287807 
L 295.425327 299.833516 
L 297.957455 296.518917 
L 300.657031 293.351272 
L 303.517243 290.337508 
L 306.531216 287.484219 
L 309.692002 284.79767 
L 312.992589 282.28379 
L 316.425894 279.948177 
L 319.984766 277.796097 
L 323.661582 275.832588 
L 327.445956 274.063343 
L 331.329021 272.493855 
L 335.283973 271.135023 
L 339.319392 269.984209 
L 343.407446 269.049902 
L 347.538085 268.33363 
L 351.701277 267.836614 
L 355.887012 267.559781 
L 357.933951 267.504846 
L 357.933951 267.504846 
" style="fill:none;stroke:#2e8b57;stroke-linecap:round;stroke-width:1.75;"/>
   </g>
   <g id="line2d_66">
    <path clip-path="url(#p22d404fdc9)" d="M 357.933951 267.504846 
" style="fill:none;stroke:#2e8b57;stroke-linecap:round;stroke-width:1.75;"/>
    <g clip-path="url(#p22d404fdc9)">
     <use style="fill:#2e8b57;" x="357.933951" xlink:href="#m5bf488a047" y="267.504846"/>
    </g>
   </g>
   <g id="line2d_67">
    <path clip-path="url(#p22d404fdc9)" d="M 382.59 344.61 
L 392.013831 338.646584 
L 400.705668 332.882508 
L 409.921755 326.494825 
L 426.572636 314.861641 
L 429.440751 313.165976 
L 431.142517 312.358224 
L 432.300599 311.979862 
L 433.369432 311.888362 
L 434.023154 312.093366 
L 434.522176 312.600075 
L 434.866654 313.67898 
L 434.921202 314.951516 
L 434.733183 316.906069 
L 434.173029 319.902045 
L 433.039018 324.542495 
L 430.793073 332.630631 
L 421.574879 364.388452 
L 414.944111 386.819325 
L 410.71925 400.326789 
L 406.916393 411.751852 
L 403.196554 422.225761 
L 399.455969 432.099643 
L 395.61975 441.60379 
L 391.615896 450.929499 
L 387.401765 460.180113 
L 382.918013 469.486377 
L 378.176151 478.816504 
L 373.140133 488.233485 
L 367.777741 497.786021 
L 362.086198 507.468901 
L 356.017603 517.353027 
L 349.554784 527.452736 
L 342.708965 537.736538 
L 335.493429 548.171479 
L 327.907403 558.753352 
L 320.043398 569.341362 
L 311.862366 579.982474 
L 303.36046 590.675345 
L 294.54584 601.403451 
L 285.533485 612.022459 
L 276.556445 622.258851 
L 267.981756 631.704681 
L 259.894561 640.285578 
L 251.959279 648.388392 
L 244.533938 655.65799 
L 237.647647 662.094252 
L 234.871167 664.596151 
L 234.871167 664.596151 
" style="fill:none;stroke:#4b0082;stroke-linecap:round;stroke-width:1.75;"/>
   </g>
   <g id="line2d_68">
    <path clip-path="url(#p22d404fdc9)" d="M 234.871167 664.596151 
" style="fill:none;stroke:#4b0082;stroke-linecap:round;stroke-width:1.75;"/>
    <g clip-path="url(#p22d404fdc9)">
     <use style="fill:#4b0082;" x="234.871167" xlink:href="#m15b00dfc2a" y="664.596151"/>
    </g>
   </g>
   <g id="line2d_69">
    <path clip-path="url(#p22d404fdc9)" d="M 423.36 303.84 
L 426.760692 306.405728 
L 430.029479 309.151119 
L 433.139788 312.052962 
L 436.100002 315.118073 
L 438.900875 318.338332 
L 441.533672 321.705163 
L 443.978042 325.191272 
L 446.240576 328.804723 
L 448.314142 332.535989 
L 450.183234 336.355809 
L 451.852852 340.272999 
L 453.317406 344.277344 
L 454.566162 348.338335 
L 455.602288 352.465237 
L 456.418275 356.627228 
L 457.015995 360.833855 
L 457.390983 365.05412 
L 457.543688 369.27726 
L 457.474013 373.512548 
L 457.181807 377.72921 
L 456.668512 381.916817 
L 455.93591 386.065138 
L 454.986139 390.164159 
L 453.821704 394.204107 
L 452.445424 398.175466 
L 450.867645 402.051173 
L 449.085871 405.839941 
L 447.103849 409.532069 
L 444.935846 413.101974 
L 442.57746 416.557239 
L 440.04497 419.873789 
L 437.34531 423.044357 
L 434.472206 426.075263 
L 431.444706 428.945048 
L 428.270107 431.647239 
L 424.955794 434.175655 
L 421.509243 436.524419 
L 417.954375 438.678625 
L 414.283506 440.644046 
L 410.504685 442.415565 
L 406.627341 443.987533 
L 402.678331 445.349042 
L 398.649073 446.502785 
L 394.567357 447.440304 
L 390.443216 448.160114 
L 386.267411 448.662838 
L 382.068865 448.943753 
L 380.161613 448.997837 
L 380.161613 448.997837 
" style="fill:none;stroke:#4682b4;stroke-linecap:round;stroke-width:1.75;"/>
   </g>
   <g id="line2d_70">
    <path clip-path="url(#p22d404fdc9)" d="M 380.161613 448.997837 
" style="fill:none;stroke:#4682b4;stroke-linecap:round;stroke-width:1.75;"/>
    <g clip-path="url(#p22d404fdc9)">
     <use style="fill:#4682b4;" x="380.161613" xlink:href="#m4afc49622d" y="448.997837"/>
    </g>
   </g>
   <g id="line2d_71">
    <path clip-path="url(#p22d404fdc9)" d="M 314.64 412.56 
L 311.239308 409.994272 
L 307.970521 407.248881 
L 304.860212 404.347038 
L 301.899998 401.281927 
L 299.099125 398.061668 
L 296.466328 394.694837 
L 294.021958 391.208728 
L 291.759424 387.595277 
L 289.685858 383.864011 
L 287.816766 380.044191 
L 286.147148 376.127001 
L 284.682594 372.122656 
L 283.433838 368.061665 
L 282.397712 363.934763 
L 281.581725 359.772772 
L 280.984005 355.566145 
L 280.609017 351.34588 
L 280.456312 347.12274 
L 280.525987 342.887452 
L 280.818193 338.67079 
L 281.331488 334.483183 
L 282.06409 330.334862 
L 283.013861 326.235841 
L 284.178296 322.195893 
L 285.554576 318.224534 
L 287.132355 314.348827 
L 288.914129 310.560059 
L 290.896151 306.867931 
L 293.064154 303.298026 
L 295.42254 299.842761 
L 297.95503 296.526211 
L 300.65469 293.355643 
L 303.527794 290.324737 
L 306.555294 287.454952 
L 309.729893 284.752761 
L 313.044206 282.224345 
L 316.490757 279.875581 
L 320.045625 277.721375 
L 323.716494 275.755954 
L 327.495315 273.984435 
L 331.372659 272.412467 
L 335.321669 271.050958 
L 339.350927 269.897215 
L 343.432643 268.959696 
L 347.556784 268.239886 
L 351.732589 267.737162 
L 355.931135 267.456247 
L 357.838387 267.402163 
L 357.838387 267.402163 
" style="fill:none;stroke:#2e8b57;stroke-linecap:round;stroke-width:1.75;"/>
   </g>
   <g id="line2d_72">
    <path clip-path="url(#p22d404fdc9)" d="M 357.838387 267.402163 
" style="fill:none;stroke:#2e8b57;stroke-linecap:round;stroke-width:1.75;"/>
    <g clip-path="url(#p22d404fdc9)">
     <use style="fill:#2e8b57;" x="357.838387" xlink:href="#m5bf488a047" y="267.402163"/>
    </g>
   </g>
   <g id="line2d_73">
    <path clip-path="url(#p22d404fdc9)" d="M 382.59 344.61 
L 392.712255 338.036325 
L 401.903116 331.800185 
L 411.759278 324.83442 
L 425.603095 315.028417 
L 428.693904 313.11697 
L 430.564917 312.165435 
L 432.081207 311.646954 
L 432.589971 311.568151 
L 433.193955 311.590086 
L 433.84329 311.871721 
L 434.272907 312.416673 
L 434.560575 313.467587 
L 434.60411 314.710088 
L 434.420921 316.635107 
L 433.87673 319.595121 
L 432.770934 324.170262 
L 430.620965 331.955781 
L 420.141884 368.203344 
L 414.306616 388.015275 
L 410.470572 400.256991 
L 407.023122 410.525667 
L 403.700634 419.730952 
L 400.370407 428.308956 
L 396.969909 436.457207 
L 393.479431 444.244181 
L 389.882645 451.724864 
L 386.14634 458.981466 
L 382.264543 466.036196 
L 378.232952 472.904275 
L 374.087292 479.529733 
L 369.82441 485.926349 
L 365.443641 492.100484 
L 360.967687 498.025227 
L 356.440771 503.651288 
L 351.867366 508.982566 
L 347.310609 513.955615 
L 342.828042 518.522776 
L 338.452923 522.667168 
L 334.185405 526.408168 
L 330.110703 529.689673 
L 326.256392 532.513612 
L 322.660577 534.878066 
L 319.353639 536.79223 
L 316.357624 538.275524 
L 313.685914 539.356758 
L 311.332723 540.075927 
L 309.287533 540.475313 
L 307.526806 540.599299 
L 306.018822 540.488056 
L 304.735149 540.174479 
L 303.650649 539.684993 
L 302.727586 539.026362 
L 301.950545 538.198246 
L 301.338441 537.219519 
L 300.865917 536.038352 
L 300.544539 534.622272 
L 300.398745 532.946472 
L 300.456905 530.993522 
L 300.752414 528.719276 
L 301.323002 526.097577 
L 302.207398 523.101961 
L 303.452103 519.687076 
L 305.111178 515.799963 
L 305.220269 515.561213 
L 305.220269 515.561213 
" style="fill:none;stroke:#4b0082;stroke-linecap:round;stroke-width:1.75;"/>
   </g>
   <g id="line2d_74">
    <path clip-path="url(#p22d404fdc9)" d="M 305.220269 515.561213 
" style="fill:none;stroke:#4b0082;stroke-linecap:round;stroke-width:1.75;"/>
    <g clip-path="url(#p22d404fdc9)">
     <use style="fill:#4b0082;" x="305.220269" xlink:href="#m15b00dfc2a" y="515.561213"/>
    </g>
   </g>
   <g id="line2d_75">
    <path clip-path="url(#p22d404fdc9)" d="M 423.36 303.84 
L 426.760692 306.405728 
L 430.029479 309.151119 
L 433.139788 312.052962 
L 436.100002 315.118073 
L 438.900875 318.338332 
L 441.533672 321.705163 
L 443.978043 325.191272 
L 446.240575 328.804721 
L 448.31414 332.535995 
L 450.183243 336.355825 
L 451.852868 340.272997 
L 453.317398 344.277313 
L 454.56612 348.33829 
L 455.602263 352.465237 
L 456.41823 356.627396 
L 457.015992 360.834136 
L 457.391072 365.054372 
L 457.543828 369.277348 
L 457.474966 373.492476 
L 457.183661 377.709049 
L 456.671194 381.896685 
L 455.939434 386.045292 
L 454.990644 390.145039 
L 453.826684 394.186687 
L 452.450158 398.160488 
L 450.872154 402.038777 
L 449.090363 405.830057 
L 447.108544 409.524447 
L 444.940951 413.096193 
L 442.583144 416.552732 
L 440.051334 419.869849 
L 437.352365 423.040157 
L 434.493142 426.056575 
L 431.480632 428.912334 
L 428.321867 431.60097 
L 425.023941 434.116327 
L 421.59401 436.452558 
L 418.039296 438.604123 
L 414.38395 440.55735 
L 410.61941 442.317537 
L 406.7544 443.879948 
L 402.799867 445.239448 
L 398.764622 446.391072 
L 394.676482 447.326291 
L 390.5455 448.043538 
L 386.381739 448.541558 
L 382.195261 448.819393 
L 380.069786 448.875879 
L 380.069786 448.875879 
" style="fill:none;stroke:#4682b4;stroke-linecap:round;stroke-width:1.75;"/>
   </g>
   <g id="line2d_76">
    <path clip-path="url(#p22d404fdc9)" d="M 380.069786 448.875879 
" style="fill:none;stroke:#4682b4;stroke-linecap:round;stroke-width:1.75;"/>
    <g clip-path="url(#p22d404fdc9)">
     <use style="fill:#4682b4;" x="380.069786" xlink:href="#m4afc49622d" y="448.875879"/>
    </g>
   </g>
   <g id="line2d_77">
    <path clip-path="url(#p22d404fdc9)" d="M 314.64 412.56 
L 311.239308 409.994272 
L 307.970521 407.248881 
L 304.860212 404.347038 
L 301.899998 401.281927 
L 299.099125 398.061668 
L 296.466328 394.694837 
L 294.021957 391.208728 
L 291.759425 387.595279 
L 289.68586 383.864005 
L 287.816757 380.044175 
L 286.147132 376.127003 
L 284.682602 372.122687 
L 283.43388 368.06171 
L 282.397737 363.934763 
L 281.58177 359.772604 
L 280.984008 355.565864 
L 280.608928 351.345628 
L 280.456172 347.122652 
L 280.525034 342.907524 
L 280.816339 338.690951 
L 281.328806 334.503315 
L 282.060566 330.354708 
L 283.009356 326.254961 
L 284.173316 322.213313 
L 285.549842 318.239512 
L 287.127846 314.361223 
L 288.909637 310.569943 
L 290.891456 306.875553 
L 293.059049 303.303807 
L 295.416856 299.847268 
L 297.948666 296.530151 
L 300.647635 293.359843 
L 303.506858 290.343425 
L 306.519368 287.487666 
L 309.678133 284.79903 
L 312.976059 282.283673 
L 316.40599 279.947442 
L 319.960704 277.795877 
L 323.61605 275.84265 
L 327.38059 274.082463 
L 331.2456 272.520052 
L 335.200133 271.160552 
L 339.235378 270.008928 
L 343.323518 269.073709 
L 347.4545 268.356462 
L 351.618261 267.858442 
L 355.804739 267.580607 
L 357.930214 267.524121 
L 357.930214 267.524121 
" style="fill:none;stroke:#2e8b57;stroke-linecap:round;stroke-width:1.75;"/>
   </g>
   <g id="line2d_78">
    <path clip-path="url(#p22d404fdc9)" d="M 357.930214 267.524121 
" style="fill:none;stroke:#2e8b57;stroke-linecap:round;stroke-width:1.75;"/>
    <g clip-path="url(#p22d404fdc9)">
     <use style="fill:#2e8b57;" x="357.930214" xlink:href="#m5bf488a047" y="267.524121"/>
    </g>
   </g>
   <g id="line2d_79">
    <path clip-path="url(#p22d404fdc9)" d="M 382.59 344.61 
L 393.364509 337.449928 
L 402.98516 330.789787 
L 413.689576 323.095499 
L 424.802154 315.136923 
L 428.148288 312.999833 
L 430.237823 311.899685 
L 431.742992 311.364028 
L 432.84723 311.286474 
L 433.503639 311.545112 
L 433.953309 312.080129 
L 434.262884 313.135164 
L 434.32481 314.38669 
L 434.169271 316.331015 
L 433.669722 319.336732 
L 432.634359 324.022881 
L 430.523012 332.38028 
L 421.831011 365.230179 
L 415.93948 386.977732 
L 411.914396 400.992392 
L 408.231854 413.023055 
L 404.612067 424.097366 
L 400.886976 434.778917 
L 397.032117 445.160651 
L 392.97741 455.442171 
L 388.678524 465.734786 
L 384.04737 476.240589 
L 379.027386 487.073276 
L 373.657167 498.128452 
L 367.879562 509.508464 
L 361.64327 521.296918 
L 354.854624 533.649625 
L 347.454964 546.64845 
L 339.442386 560.271959 
L 330.933274 574.298873 
L 321.633007 589.198955 
L 311.797891 604.533342 
L 301.296691 620.491207 
L 290.004772 637.242061 
L 277.929911 654.753564 
L 265.420635 672.504327 
L 253.366316 689.230671 
L 241.202507 705.718091 
L 229.664365 721 
L 229.664365 721 
" style="fill:none;stroke:#4b0082;stroke-linecap:round;stroke-width:1.75;"/>
   </g>
   <g id="line2d_80">
    <path clip-path="url(#p22d404fdc9)" style="fill:none;stroke:#4b0082;stroke-linecap:round;stroke-width:1.75;"/>
    <g clip-path="url(#p22d404fdc9)">
     <use style="fill:#4b0082;" x="225.497262" xlink:href="#m15b00dfc2a" y="726.430157"/>
    </g>
   </g>
   <g id="patch_3">
    <path d="M 97.2 630 
L 97.2 86.4 
" style="fill:none;"/>
   </g>
   <g id="patch_4">
    <path d="M 640.8 630 
L 640.8 86.4 
" style="fill:none;"/>
   </g>
   <g id="patch_5">
    <path d="M 97.2 630 
L 640.8 630 
" style="fill:none;"/>
   </g>
   <g id="patch_6">
    <path d="M 97.2 86.4 
L 640.8 86.4 
" style="fill:none;"/>
   </g>
   <g id="text_11">
    <!-- Chaotic Trajectories after small Velocity Perturbations -->
    <g style="fill:#262626;" transform="translate(179.59375 80.4)scale(0.16 -0.16)">
     <defs>
      <path d="M 58.796875 25.09375 
L 68.265625 22.703125 
Q 65.28125 11.03125 57.546875 4.90625 
Q 49.8125 -1.21875 38.625 -1.21875 
Q 27.046875 -1.21875 19.796875 3.484375 
Q 12.546875 8.203125 8.765625 17.140625 
Q 4.984375 26.078125 4.984375 36.328125 
Q 4.984375 47.515625 9.25 55.828125 
Q 13.53125 64.15625 21.40625 68.46875 
Q 29.296875 72.796875 38.765625 72.796875 
Q 49.515625 72.796875 56.828125 67.328125 
Q 64.15625 61.859375 67.046875 51.953125 
L 57.71875 49.75 
Q 55.21875 57.5625 50.484375 61.125 
Q 45.75 64.703125 38.578125 64.703125 
Q 30.328125 64.703125 24.78125 60.734375 
Q 19.234375 56.78125 16.984375 50.109375 
Q 14.75 43.453125 14.75 36.375 
Q 14.75 27.25 17.40625 20.4375 
Q 20.0625 13.625 25.671875 10.25 
Q 31.296875 6.890625 37.84375 6.890625 
Q 45.796875 6.890625 51.3125 11.46875 
Q 56.84375 16.0625 58.796875 25.09375 
z
" id="ArialMT-67"/>
      <path d="M 6.59375 0 
L 6.59375 71.578125 
L 15.375 71.578125 
L 15.375 45.90625 
Q 21.53125 53.03125 30.90625 53.03125 
Q 36.671875 53.03125 40.921875 50.75 
Q 45.171875 48.484375 47 44.484375 
Q 48.828125 40.484375 48.828125 32.859375 
L 48.828125 0 
L 40.046875 0 
L 40.046875 32.859375 
Q 40.046875 39.453125 37.1875 42.453125 
Q 34.328125 45.453125 29.109375 45.453125 
Q 25.203125 45.453125 21.75 43.421875 
Q 18.3125 41.40625 16.84375 37.9375 
Q 15.375 34.46875 15.375 28.375 
L 15.375 0 
z
" id="ArialMT-104"/>
      <path d="M 40.4375 6.390625 
Q 35.546875 2.25 31.03125 0.53125 
Q 26.515625 -1.171875 21.34375 -1.171875 
Q 12.796875 -1.171875 8.203125 3 
Q 3.609375 7.171875 3.609375 13.671875 
Q 3.609375 17.484375 5.34375 20.625 
Q 7.078125 23.78125 9.890625 25.6875 
Q 12.703125 27.59375 16.21875 28.5625 
Q 18.796875 29.25 24.03125 29.890625 
Q 34.671875 31.15625 39.703125 32.90625 
Q 39.75 34.71875 39.75 35.203125 
Q 39.75 40.578125 37.25 42.78125 
Q 33.890625 45.75 27.25 45.75 
Q 21.046875 45.75 18.09375 43.578125 
Q 15.140625 41.40625 13.71875 35.890625 
L 5.125 37.0625 
Q 6.296875 42.578125 8.984375 45.96875 
Q 11.671875 49.359375 16.75 51.1875 
Q 21.828125 53.03125 28.515625 53.03125 
Q 35.15625 53.03125 39.296875 51.46875 
Q 43.453125 49.90625 45.40625 47.53125 
Q 47.359375 45.171875 48.140625 41.546875 
Q 48.578125 39.3125 48.578125 33.453125 
L 48.578125 21.734375 
Q 48.578125 9.46875 49.140625 6.21875 
Q 49.703125 2.984375 51.375 0 
L 42.1875 0 
Q 40.828125 2.734375 40.4375 6.390625 
z
M 39.703125 26.03125 
Q 34.90625 24.078125 25.34375 22.703125 
Q 19.921875 21.921875 17.671875 20.9375 
Q 15.4375 19.96875 14.203125 18.09375 
Q 12.984375 16.21875 12.984375 13.921875 
Q 12.984375 10.40625 15.640625 8.0625 
Q 18.3125 5.71875 23.4375 5.71875 
Q 28.515625 5.71875 32.46875 7.9375 
Q 36.421875 10.15625 38.28125 14.015625 
Q 39.703125 17 39.703125 22.796875 
z
" id="ArialMT-97"/>
      <path d="M 3.328125 25.921875 
Q 3.328125 40.328125 11.328125 47.265625 
Q 18.015625 53.03125 27.640625 53.03125 
Q 38.328125 53.03125 45.109375 46.015625 
Q 51.90625 39.015625 51.90625 26.65625 
Q 51.90625 16.65625 48.90625 10.90625 
Q 45.90625 5.171875 40.15625 2 
Q 34.421875 -1.171875 27.640625 -1.171875 
Q 16.75 -1.171875 10.03125 5.8125 
Q 3.328125 12.796875 3.328125 25.921875 
z
M 12.359375 25.921875 
Q 12.359375 15.96875 16.703125 11.015625 
Q 21.046875 6.0625 27.640625 6.0625 
Q 34.1875 6.0625 38.53125 11.03125 
Q 42.875 16.015625 42.875 26.21875 
Q 42.875 35.84375 38.5 40.796875 
Q 34.125 45.75 27.640625 45.75 
Q 21.046875 45.75 16.703125 40.8125 
Q 12.359375 35.890625 12.359375 25.921875 
z
" id="ArialMT-111"/>
      <path d="M 25.78125 7.859375 
L 27.046875 0.09375 
Q 23.34375 -0.6875 20.40625 -0.6875 
Q 15.625 -0.6875 12.984375 0.828125 
Q 10.359375 2.34375 9.28125 4.8125 
Q 8.203125 7.28125 8.203125 15.1875 
L 8.203125 45.015625 
L 1.765625 45.015625 
L 1.765625 51.859375 
L 8.203125 51.859375 
L 8.203125 64.703125 
L 16.9375 69.96875 
L 16.9375 51.859375 
L 25.78125 51.859375 
L 25.78125 45.015625 
L 16.9375 45.015625 
L 16.9375 14.703125 
Q 16.9375 10.9375 17.40625 9.859375 
Q 17.875 8.796875 18.921875 8.15625 
Q 19.96875 7.515625 21.921875 7.515625 
Q 23.390625 7.515625 25.78125 7.859375 
z
" id="ArialMT-116"/>
      <path d="M 6.640625 61.46875 
L 6.640625 71.578125 
L 15.4375 71.578125 
L 15.4375 61.46875 
z
M 6.640625 0 
L 6.640625 51.859375 
L 15.4375 51.859375 
L 15.4375 0 
z
" id="ArialMT-105"/>
      <path d="M 40.4375 19 
L 49.078125 17.875 
Q 47.65625 8.9375 41.8125 3.875 
Q 35.984375 -1.171875 27.484375 -1.171875 
Q 16.84375 -1.171875 10.375 5.78125 
Q 3.90625 12.75 3.90625 25.734375 
Q 3.90625 34.125 6.6875 40.421875 
Q 9.46875 46.734375 15.15625 49.875 
Q 20.84375 53.03125 27.546875 53.03125 
Q 35.984375 53.03125 41.359375 48.75 
Q 46.734375 44.484375 48.25 36.625 
L 39.703125 35.296875 
Q 38.484375 40.53125 35.375 43.15625 
Q 32.28125 45.796875 27.875 45.796875 
Q 21.234375 45.796875 17.078125 41.03125 
Q 12.9375 36.28125 12.9375 25.984375 
Q 12.9375 15.53125 16.9375 10.796875 
Q 20.953125 6.0625 27.390625 6.0625 
Q 32.5625 6.0625 36.03125 9.234375 
Q 39.5 12.40625 40.4375 19 
z
" id="ArialMT-99"/>
      <path id="ArialMT-32"/>
      <path d="M 25.921875 0 
L 25.921875 63.140625 
L 2.34375 63.140625 
L 2.34375 71.578125 
L 59.078125 71.578125 
L 59.078125 63.140625 
L 35.40625 63.140625 
L 35.40625 0 
z
" id="ArialMT-84"/>
      <path d="M 6.5 0 
L 6.5 51.859375 
L 14.40625 51.859375 
L 14.40625 44 
Q 17.4375 49.515625 20 51.265625 
Q 22.5625 53.03125 25.640625 53.03125 
Q 30.078125 53.03125 34.671875 50.203125 
L 31.640625 42.046875 
Q 28.421875 43.953125 25.203125 43.953125 
Q 22.3125 43.953125 20.015625 42.21875 
Q 17.71875 40.484375 16.75 37.40625 
Q 15.28125 32.71875 15.28125 27.15625 
L 15.28125 0 
z
" id="ArialMT-114"/>
      <path d="M 6.546875 61.375 
L 6.546875 71.578125 
L 15.328125 71.578125 
L 15.328125 61.375 
z
M -4.59375 -20.125 
L -2.9375 -12.640625 
Q -0.296875 -13.328125 1.21875 -13.328125 
Q 3.90625 -13.328125 5.21875 -11.546875 
Q 6.546875 -9.765625 6.546875 -2.640625 
L 6.546875 51.859375 
L 15.328125 51.859375 
L 15.328125 -2.828125 
Q 15.328125 -12.40625 12.84375 -16.15625 
Q 9.671875 -21.046875 2.296875 -21.046875 
Q -1.265625 -21.046875 -4.59375 -20.125 
z
" id="ArialMT-106"/>
      <path d="M 42.09375 16.703125 
L 51.171875 15.578125 
Q 49.03125 7.625 43.21875 3.21875 
Q 37.40625 -1.171875 28.375 -1.171875 
Q 17 -1.171875 10.328125 5.828125 
Q 3.65625 12.84375 3.65625 25.484375 
Q 3.65625 38.578125 10.390625 45.796875 
Q 17.140625 53.03125 27.875 53.03125 
Q 38.28125 53.03125 44.875 45.953125 
Q 51.46875 38.875 51.46875 26.03125 
Q 51.46875 25.25 51.421875 23.6875 
L 12.75 23.6875 
Q 13.234375 15.140625 17.578125 10.59375 
Q 21.921875 6.0625 28.421875 6.0625 
Q 33.25 6.0625 36.671875 8.59375 
Q 40.09375 11.140625 42.09375 16.703125 
z
M 13.234375 30.90625 
L 42.1875 30.90625 
Q 41.609375 37.453125 38.875 40.71875 
Q 34.671875 45.796875 27.984375 45.796875 
Q 21.921875 45.796875 17.796875 41.75 
Q 13.671875 37.703125 13.234375 30.90625 
z
" id="ArialMT-101"/>
      <path d="M 3.078125 15.484375 
L 11.765625 16.84375 
Q 12.5 11.625 15.84375 8.84375 
Q 19.1875 6.0625 25.203125 6.0625 
Q 31.25 6.0625 34.171875 8.515625 
Q 37.109375 10.984375 37.109375 14.3125 
Q 37.109375 17.28125 34.515625 19 
Q 32.71875 20.171875 25.53125 21.96875 
Q 15.875 24.421875 12.140625 26.203125 
Q 8.40625 27.984375 6.46875 31.125 
Q 4.546875 34.28125 4.546875 38.09375 
Q 4.546875 41.546875 6.125 44.5 
Q 7.71875 47.46875 10.453125 49.421875 
Q 12.5 50.921875 16.03125 51.96875 
Q 19.578125 53.03125 23.640625 53.03125 
Q 29.734375 53.03125 34.34375 51.265625 
Q 38.96875 49.515625 41.15625 46.5 
Q 43.359375 43.5 44.1875 38.484375 
L 35.59375 37.3125 
Q 35.015625 41.3125 32.203125 43.546875 
Q 29.390625 45.796875 24.265625 45.796875 
Q 18.21875 45.796875 15.625 43.796875 
Q 13.03125 41.796875 13.03125 39.109375 
Q 13.03125 37.40625 14.109375 36.03125 
Q 15.1875 34.625 17.484375 33.6875 
Q 18.796875 33.203125 25.25 31.453125 
Q 34.578125 28.953125 38.25 27.359375 
Q 41.9375 25.78125 44.03125 22.75 
Q 46.140625 19.734375 46.140625 15.234375 
Q 46.140625 10.84375 43.578125 6.953125 
Q 41.015625 3.078125 36.171875 0.953125 
Q 31.34375 -1.171875 25.25 -1.171875 
Q 15.140625 -1.171875 9.84375 3.03125 
Q 4.546875 7.234375 3.078125 15.484375 
z
" id="ArialMT-115"/>
      <path d="M 8.6875 0 
L 8.6875 45.015625 
L 0.921875 45.015625 
L 0.921875 51.859375 
L 8.6875 51.859375 
L 8.6875 57.375 
Q 8.6875 62.59375 9.625 65.140625 
Q 10.890625 68.5625 14.078125 70.671875 
Q 17.28125 72.796875 23.046875 72.796875 
Q 26.765625 72.796875 31.25 71.921875 
L 29.9375 64.265625 
Q 27.203125 64.75 24.75 64.75 
Q 20.75 64.75 19.09375 63.03125 
Q 17.4375 61.328125 17.4375 56.640625 
L 17.4375 51.859375 
L 27.546875 51.859375 
L 27.546875 45.015625 
L 17.4375 45.015625 
L 17.4375 0 
z
" id="ArialMT-102"/>
      <path d="M 6.59375 0 
L 6.59375 51.859375 
L 14.453125 51.859375 
L 14.453125 44.578125 
Q 16.890625 48.390625 20.9375 50.703125 
Q 25 53.03125 30.171875 53.03125 
Q 35.9375 53.03125 39.625 50.640625 
Q 43.3125 48.25 44.828125 43.953125 
Q 50.984375 53.03125 60.84375 53.03125 
Q 68.5625 53.03125 72.703125 48.75 
Q 76.859375 44.484375 76.859375 35.59375 
L 76.859375 0 
L 68.109375 0 
L 68.109375 32.671875 
Q 68.109375 37.9375 67.25 40.25 
Q 66.40625 42.578125 64.15625 43.984375 
Q 61.921875 45.40625 58.890625 45.40625 
Q 53.421875 45.40625 49.796875 41.765625 
Q 46.1875 38.140625 46.1875 30.125 
L 46.1875 0 
L 37.40625 0 
L 37.40625 33.6875 
Q 37.40625 39.546875 35.25 42.46875 
Q 33.109375 45.40625 28.21875 45.40625 
Q 24.515625 45.40625 21.359375 43.453125 
Q 18.21875 41.5 16.796875 37.734375 
Q 15.375 33.984375 15.375 26.90625 
L 15.375 0 
z
" id="ArialMT-109"/>
      <path d="M 6.390625 0 
L 6.390625 71.578125 
L 15.1875 71.578125 
L 15.1875 0 
z
" id="ArialMT-108"/>
      <path d="M 28.171875 0 
L 0.4375 71.578125 
L 10.6875 71.578125 
L 29.296875 19.578125 
Q 31.546875 13.328125 33.0625 7.859375 
Q 34.71875 13.71875 36.921875 19.578125 
L 56.25 71.578125 
L 65.921875 71.578125 
L 37.890625 0 
z
" id="ArialMT-86"/>
      <path d="M 6.203125 -19.96875 
L 5.21875 -11.71875 
Q 8.109375 -12.5 10.25 -12.5 
Q 13.1875 -12.5 14.9375 -11.515625 
Q 16.703125 -10.546875 17.828125 -8.796875 
Q 18.65625 -7.46875 20.515625 -2.25 
Q 20.75 -1.515625 21.296875 -0.09375 
L 1.609375 51.859375 
L 11.078125 51.859375 
L 21.875 21.828125 
Q 23.96875 16.109375 25.640625 9.8125 
Q 27.15625 15.875 29.25 21.625 
L 40.328125 51.859375 
L 49.125 51.859375 
L 29.390625 -0.875 
Q 26.21875 -9.421875 24.46875 -12.640625 
Q 22.125 -17 19.09375 -19.015625 
Q 16.0625 -21.046875 11.859375 -21.046875 
Q 9.328125 -21.046875 6.203125 -19.96875 
z
" id="ArialMT-121"/>
      <path d="M 7.71875 0 
L 7.71875 71.578125 
L 34.71875 71.578125 
Q 41.84375 71.578125 45.609375 70.90625 
Q 50.875 70.015625 54.4375 67.546875 
Q 58.015625 65.09375 60.1875 60.640625 
Q 62.359375 56.203125 62.359375 50.875 
Q 62.359375 41.75 56.546875 35.421875 
Q 50.734375 29.109375 35.546875 29.109375 
L 17.1875 29.109375 
L 17.1875 0 
z
M 17.1875 37.546875 
L 35.6875 37.546875 
Q 44.875 37.546875 48.734375 40.96875 
Q 52.59375 44.390625 52.59375 50.59375 
Q 52.59375 55.078125 50.3125 58.265625 
Q 48.046875 61.46875 44.34375 62.5 
Q 41.9375 63.140625 35.5 63.140625 
L 17.1875 63.140625 
z
" id="ArialMT-80"/>
      <path d="M 40.578125 0 
L 40.578125 7.625 
Q 34.515625 -1.171875 24.125 -1.171875 
Q 19.53125 -1.171875 15.546875 0.578125 
Q 11.578125 2.34375 9.640625 5 
Q 7.71875 7.671875 6.9375 11.53125 
Q 6.390625 14.109375 6.390625 19.734375 
L 6.390625 51.859375 
L 15.1875 51.859375 
L 15.1875 23.09375 
Q 15.1875 16.21875 15.71875 13.8125 
Q 16.546875 10.359375 19.234375 8.375 
Q 21.921875 6.390625 25.875 6.390625 
Q 29.828125 6.390625 33.296875 8.421875 
Q 36.765625 10.453125 38.203125 13.9375 
Q 39.65625 17.4375 39.65625 24.078125 
L 39.65625 51.859375 
L 48.4375 51.859375 
L 48.4375 0 
z
" id="ArialMT-117"/>
      <path d="M 14.703125 0 
L 6.546875 0 
L 6.546875 71.578125 
L 15.328125 71.578125 
L 15.328125 46.046875 
Q 20.90625 53.03125 29.546875 53.03125 
Q 34.328125 53.03125 38.59375 51.09375 
Q 42.875 49.171875 45.625 45.671875 
Q 48.390625 42.1875 49.953125 37.25 
Q 51.515625 32.328125 51.515625 26.703125 
Q 51.515625 13.375 44.921875 6.09375 
Q 38.328125 -1.171875 29.109375 -1.171875 
Q 19.921875 -1.171875 14.703125 6.5 
z
M 14.59375 26.3125 
Q 14.59375 17 17.140625 12.84375 
Q 21.296875 6.0625 28.375 6.0625 
Q 34.125 6.0625 38.328125 11.0625 
Q 42.53125 16.0625 42.53125 25.984375 
Q 42.53125 36.140625 38.5 40.96875 
Q 34.46875 45.796875 28.765625 45.796875 
Q 23 45.796875 18.796875 40.796875 
Q 14.59375 35.796875 14.59375 26.3125 
z
" id="ArialMT-98"/>
      <path d="M 6.59375 0 
L 6.59375 51.859375 
L 14.5 51.859375 
L 14.5 44.484375 
Q 20.21875 53.03125 31 53.03125 
Q 35.6875 53.03125 39.625 51.34375 
Q 43.5625 49.65625 45.515625 46.921875 
Q 47.46875 44.1875 48.25 40.4375 
Q 48.734375 37.984375 48.734375 31.890625 
L 48.734375 0 
L 39.9375 0 
L 39.9375 31.546875 
Q 39.9375 36.921875 38.90625 39.578125 
Q 37.890625 42.234375 35.28125 43.8125 
Q 32.671875 45.40625 29.15625 45.40625 
Q 23.53125 45.40625 19.453125 41.84375 
Q 15.375 38.28125 15.375 28.328125 
L 15.375 0 
z
" id="ArialMT-110"/>
     </defs>
     <use xlink:href="#ArialMT-67"/>
     <use x="72.216797" xlink:href="#ArialMT-104"/>
     <use x="127.832031" xlink:href="#ArialMT-97"/>
     <use x="183.447266" xlink:href="#ArialMT-111"/>
     <use x="239.0625" xlink:href="#ArialMT-116"/>
     <use x="266.845703" xlink:href="#ArialMT-105"/>
     <use x="289.0625" xlink:href="#ArialMT-99"/>
     <use x="339.0625" xlink:href="#ArialMT-32"/>
     <use x="365.095703" xlink:href="#ArialMT-84"/>
     <use x="422.429688" xlink:href="#ArialMT-114"/>
     <use x="455.730469" xlink:href="#ArialMT-97"/>
     <use x="511.345703" xlink:href="#ArialMT-106"/>
     <use x="533.5625" xlink:href="#ArialMT-101"/>
     <use x="589.177734" xlink:href="#ArialMT-99"/>
     <use x="639.177734" xlink:href="#ArialMT-116"/>
     <use x="666.960938" xlink:href="#ArialMT-111"/>
     <use x="722.576172" xlink:href="#ArialMT-114"/>
     <use x="755.876953" xlink:href="#ArialMT-105"/>
     <use x="778.09375" xlink:href="#ArialMT-101"/>
     <use x="833.708984" xlink:href="#ArialMT-115"/>
     <use x="883.708984" xlink:href="#ArialMT-32"/>
     <use x="911.492188" xlink:href="#ArialMT-97"/>
     <use x="967.107422" xlink:href="#ArialMT-102"/>
     <use x="994.890625" xlink:href="#ArialMT-116"/>
     <use x="1022.673828" xlink:href="#ArialMT-101"/>
     <use x="1078.289062" xlink:href="#ArialMT-114"/>
     <use x="1111.589844" xlink:href="#ArialMT-32"/>
     <use x="1139.373047" xlink:href="#ArialMT-115"/>
     <use x="1189.373047" xlink:href="#ArialMT-109"/>
     <use x="1272.673828" xlink:href="#ArialMT-97"/>
     <use x="1328.289062" xlink:href="#ArialMT-108"/>
     <use x="1350.505859" xlink:href="#ArialMT-108"/>
     <use x="1372.722656" xlink:href="#ArialMT-32"/>
     <use x="1400.505859" xlink:href="#ArialMT-86"/>
     <use x="1461.705078" xlink:href="#ArialMT-101"/>
     <use x="1517.320312" xlink:href="#ArialMT-108"/>
     <use x="1539.537109" xlink:href="#ArialMT-111"/>
     <use x="1595.152344" xlink:href="#ArialMT-99"/>
     <use x="1645.152344" xlink:href="#ArialMT-105"/>
     <use x="1667.369141" xlink:href="#ArialMT-116"/>
     <use x="1695.152344" xlink:href="#ArialMT-121"/>
     <use x="1745.152344" xlink:href="#ArialMT-32"/>
     <use x="1772.935547" xlink:href="#ArialMT-80"/>
     <use x="1839.634766" xlink:href="#ArialMT-101"/>
     <use x="1895.25" xlink:href="#ArialMT-114"/>
     <use x="1928.550781" xlink:href="#ArialMT-116"/>
     <use x="1956.333984" xlink:href="#ArialMT-117"/>
     <use x="2011.949219" xlink:href="#ArialMT-114"/>
     <use x="2045.25" xlink:href="#ArialMT-98"/>
     <use x="2100.865234" xlink:href="#ArialMT-97"/>
     <use x="2156.480469" xlink:href="#ArialMT-116"/>
     <use x="2184.263672" xlink:href="#ArialMT-105"/>
     <use x="2206.480469" xlink:href="#ArialMT-111"/>
     <use x="2262.095703" xlink:href="#ArialMT-110"/>
     <use x="2317.710938" xlink:href="#ArialMT-115"/>
    </g>
   </g>
   <g id="legend_1"/>
  </g>
 </g>
 <defs>
  <clipPath id="p22d404fdc9">
   <rect height="543.6" width="543.6" x="97.2" y="86.4"/>
  </clipPath>
 </defs>
</svg>
