<?xml version="1.0" encoding="utf-8" standalone="no"?>
<!DOCTYPE svg PUBLIC "-//W3C//DTD SVG 1.1//EN"
  "http://www.w3.org/Graphics/SVG/1.1/DTD/svg11.dtd">
<!-- Created with matplotlib (https://matplotlib.org/) -->
<svg height="720pt" version="1.1" viewBox="0 0 720 720" width="720pt" xmlns="http://www.w3.org/2000/svg" xmlns:xlink="http://www.w3.org/1999/xlink">
 <metadata>
  <rdf:RDF xmlns:cc="http://creativecommons.org/ns#" xmlns:dc="http://purl.org/dc/elements/1.1/" xmlns:rdf="http://www.w3.org/1999/02/22-rdf-syntax-ns#">
   <cc:Work>
    <dc:type rdf:resource="http://purl.org/dc/dcmitype/StillImage"/>
    <dc:date>2020-12-08T20:12:08.189323</dc:date>
    <dc:format>image/svg+xml</dc:format>
    <dc:creator>
     <cc:Agent>
      <dc:title>Matplotlib v3.3.1, https://matplotlib.org/</dc:title>
     </cc:Agent>
    </dc:creator>
   </cc:Work>
  </rdf:RDF>
 </metadata>
 <defs>
  <style type="text/css">*{stroke-linecap:butt;stroke-linejoin:round;}</style>
 </defs>
 <g id="figure_1">
  <g id="patch_1">
   <path d="M 0 720 
L 720 720 
L 720 0 
L 0 0 
z
" style="fill:#ffffff;"/>
  </g>
  <g id="patch_2">
   <path d="M 97.2 630 
L 640.8 630 
L 640.8 86.4 
L 97.2 86.4 
z
" style="fill:#eaeaf2;"/>
  </g>
  <g id="pane3d_1">
   <g id="patch_3">
    <path d="M 138.245549 495.965661 
L 317.760022 345.49307 
L 315.264599 128.484695 
L 127.159433 265.755277 
" style="fill:#f2f2f2;opacity:0.5;stroke:#f2f2f2;stroke-linejoin:miter;stroke-width:0.3;"/>
   </g>
  </g>
  <g id="pane3d_2">
   <g id="patch_4">
    <path d="M 317.760022 345.49307 
L 605.8167 429.219774 
L 616.096428 204.736794 
L 315.264599 128.484695 
" style="fill:#e6e6e6;opacity:0.5;stroke:#e6e6e6;stroke-linejoin:miter;stroke-width:0.3;"/>
   </g>
  </g>
  <g id="pane3d_3">
   <g id="patch_5">
    <path d="M 138.245549 495.965661 
L 443.599697 595.694325 
L 605.8167 429.219774 
L 317.760022 345.49307 
" style="fill:#ececec;opacity:0.5;stroke:#ececec;stroke-linejoin:miter;stroke-width:0.3;"/>
   </g>
  </g>
  <g id="axis3d_1">
   <g id="line2d_1">
    <path d="M 138.245549 495.965661 
L 443.599697 595.694325 
" style="fill:none;"/>
   </g>
   <g id="Line3DCollection_1">
    <path d="M 144.044859 497.859716 
L 323.254563 347.090116 
L 320.990948 129.936157 
" style="fill:none;stroke:#ffffff;"/>
    <path d="M 190.872348 513.153573 
L 367.587332 359.975902 
L 367.210933 141.651576 
" style="fill:none;stroke:#ffffff;"/>
    <path d="M 238.483316 528.703316 
L 412.600247 373.059379 
L 414.170734 153.554517 
" style="fill:none;stroke:#ffffff;"/>
    <path d="M 286.897593 544.515418 
L 458.309081 386.345133 
L 461.888257 165.649518 
" style="fill:none;stroke:#ffffff;"/>
    <path d="M 336.135682 560.596578 
L 504.730098 399.83789 
L 510.381991 177.941266 
" style="fill:none;stroke:#ffffff;"/>
    <path d="M 386.21879 576.953721 
L 551.880074 413.542526 
L 559.671031 190.434601 
" style="fill:none;stroke:#ffffff;"/>
    <path d="M 437.168858 593.594013 
L 599.776315 427.464073 
L 609.775104 203.134523 
" style="fill:none;stroke:#ffffff;"/>
   </g>
   <g id="xtick_1">
    <g id="line2d_2">
     <path clip-path="url(#pcf956d5fa6)" d="M 376.345946 350.854054 
" style="fill:none;stroke:#ffffff;stroke-linecap:round;"/>
    </g>
    <g id="line2d_3">
     <path d="M 145.605122 496.547062 
L 140.917652 500.490643 
" style="fill:none;stroke:#262626;stroke-linecap:round;"/>
    </g>
    <g id="text_1">
     <!-- −3 -->
     <g style="fill:#262626;" transform="translate(128.528792 525.426426)scale(0.1 -0.1)">
      <defs>
       <path d="M 52.828125 31.203125 
L 5.5625 31.203125 
L 5.5625 39.40625 
L 52.828125 39.40625 
z
" id="ArialMT-8722"/>
       <path d="M 4.203125 18.890625 
L 12.984375 20.0625 
Q 14.5 12.59375 18.140625 9.296875 
Q 21.78125 6 27 6 
Q 33.203125 6 37.46875 10.296875 
Q 41.75 14.59375 41.75 20.953125 
Q 41.75 27 37.796875 30.921875 
Q 33.84375 34.859375 27.734375 34.859375 
Q 25.25 34.859375 21.53125 33.890625 
L 22.515625 41.609375 
Q 23.390625 41.5 23.921875 41.5 
Q 29.546875 41.5 34.03125 44.421875 
Q 38.53125 47.359375 38.53125 53.46875 
Q 38.53125 58.296875 35.25 61.46875 
Q 31.984375 64.65625 26.8125 64.65625 
Q 21.6875 64.65625 18.265625 61.421875 
Q 14.84375 58.203125 13.875 51.765625 
L 5.078125 53.328125 
Q 6.6875 62.15625 12.390625 67.015625 
Q 18.109375 71.875 26.609375 71.875 
Q 32.46875 71.875 37.390625 69.359375 
Q 42.328125 66.84375 44.9375 62.5 
Q 47.5625 58.15625 47.5625 53.265625 
Q 47.5625 48.640625 45.0625 44.828125 
Q 42.578125 41.015625 37.703125 38.765625 
Q 44.046875 37.3125 47.5625 32.6875 
Q 51.078125 28.078125 51.078125 21.140625 
Q 51.078125 11.765625 44.234375 5.25 
Q 37.40625 -1.265625 26.953125 -1.265625 
Q 17.53125 -1.265625 11.296875 4.34375 
Q 5.078125 9.96875 4.203125 18.890625 
z
" id="ArialMT-51"/>
      </defs>
      <use xlink:href="#ArialMT-8722"/>
      <use x="58.398438" xlink:href="#ArialMT-51"/>
     </g>
    </g>
   </g>
   <g id="xtick_2">
    <g id="line2d_4">
     <path clip-path="url(#pcf956d5fa6)" d="M 376.345946 350.854054 
" style="fill:none;stroke:#ffffff;stroke-linecap:round;"/>
    </g>
    <g id="line2d_5">
     <path d="M 192.411926 511.819057 
L 187.786545 515.828367 
" style="fill:none;stroke:#262626;stroke-linecap:round;"/>
    </g>
    <g id="text_2">
     <!-- −2 -->
     <g style="fill:#262626;" transform="translate(175.386328 540.926475)scale(0.1 -0.1)">
      <defs>
       <path d="M 50.34375 8.453125 
L 50.34375 0 
L 3.03125 0 
Q 2.9375 3.171875 4.046875 6.109375 
Q 5.859375 10.9375 9.828125 15.625 
Q 13.8125 20.3125 21.34375 26.46875 
Q 33.015625 36.03125 37.109375 41.625 
Q 41.21875 47.21875 41.21875 52.203125 
Q 41.21875 57.421875 37.46875 61 
Q 33.734375 64.59375 27.734375 64.59375 
Q 21.390625 64.59375 17.578125 60.78125 
Q 13.765625 56.984375 13.71875 50.25 
L 4.6875 51.171875 
Q 5.609375 61.28125 11.65625 66.578125 
Q 17.71875 71.875 27.9375 71.875 
Q 38.234375 71.875 44.234375 66.15625 
Q 50.25 60.453125 50.25 52 
Q 50.25 47.703125 48.484375 43.546875 
Q 46.734375 39.40625 42.65625 34.8125 
Q 38.578125 30.21875 29.109375 22.21875 
Q 21.1875 15.578125 18.9375 13.203125 
Q 16.703125 10.84375 15.234375 8.453125 
z
" id="ArialMT-50"/>
      </defs>
      <use xlink:href="#ArialMT-8722"/>
      <use x="58.398438" xlink:href="#ArialMT-50"/>
     </g>
    </g>
   </g>
   <g id="xtick_3">
    <g id="line2d_6">
     <path clip-path="url(#pcf956d5fa6)" d="M 376.345946 350.854054 
" style="fill:none;stroke:#ffffff;stroke-linecap:round;"/>
    </g>
    <g id="line2d_7">
     <path d="M 240.001297 527.346386 
L 235.440748 531.423082 
" style="fill:none;stroke:#262626;stroke-linecap:round;"/>
    </g>
    <g id="text_3">
     <!-- −1 -->
     <g style="fill:#262626;" transform="translate(223.029731 556.686482)scale(0.1 -0.1)">
      <defs>
       <path d="M 37.25 0 
L 28.46875 0 
L 28.46875 56 
Q 25.296875 52.984375 20.140625 49.953125 
Q 14.984375 46.921875 10.890625 45.40625 
L 10.890625 53.90625 
Q 18.265625 57.375 23.78125 62.296875 
Q 29.296875 67.234375 31.59375 71.875 
L 37.25 71.875 
z
" id="ArialMT-49"/>
      </defs>
      <use xlink:href="#ArialMT-8722"/>
      <use x="58.398438" xlink:href="#ArialMT-49"/>
     </g>
    </g>
   </g>
   <g id="xtick_4">
    <g id="line2d_8">
     <path clip-path="url(#pcf956d5fa6)" d="M 376.345946 350.854054 
" style="fill:none;stroke:#ffffff;stroke-linecap:round;"/>
    </g>
    <g id="line2d_9">
     <path d="M 288.393025 543.135506 
L 283.900165 547.281301 
" style="fill:none;stroke:#262626;stroke-linecap:round;"/>
    </g>
    <g id="text_4">
     <!-- 0 -->
     <g style="fill:#262626;" transform="translate(274.399252 572.713042)scale(0.1 -0.1)">
      <defs>
       <path d="M 4.15625 35.296875 
Q 4.15625 48 6.765625 55.734375 
Q 9.375 63.484375 14.515625 67.671875 
Q 19.671875 71.875 27.484375 71.875 
Q 33.25 71.875 37.59375 69.546875 
Q 41.9375 67.234375 44.765625 62.859375 
Q 47.609375 58.5 49.21875 52.21875 
Q 50.828125 45.953125 50.828125 35.296875 
Q 50.828125 22.703125 48.234375 14.96875 
Q 45.65625 7.234375 40.5 3 
Q 35.359375 -1.21875 27.484375 -1.21875 
Q 17.140625 -1.21875 11.234375 6.203125 
Q 4.15625 15.140625 4.15625 35.296875 
z
M 13.1875 35.296875 
Q 13.1875 17.671875 17.3125 11.828125 
Q 21.4375 6 27.484375 6 
Q 33.546875 6 37.671875 11.859375 
Q 41.796875 17.71875 41.796875 35.296875 
Q 41.796875 52.984375 37.671875 58.78125 
Q 33.546875 64.59375 27.390625 64.59375 
Q 21.34375 64.59375 17.71875 59.46875 
Q 13.1875 52.9375 13.1875 35.296875 
z
" id="ArialMT-48"/>
      </defs>
      <use xlink:href="#ArialMT-48"/>
     </g>
    </g>
   </g>
   <g id="xtick_5">
    <g id="line2d_10">
     <path clip-path="url(#pcf956d5fa6)" d="M 376.345946 350.854054 
" style="fill:none;stroke:#ffffff;stroke-linecap:round;"/>
    </g>
    <g id="line2d_11">
     <path d="M 337.607575 559.193094 
L 333.18538 563.40976 
" style="fill:none;stroke:#262626;stroke-linecap:round;"/>
    </g>
    <g id="text_5">
     <!-- 1 -->
     <g style="fill:#262626;" transform="translate(323.674883 589.012975)scale(0.1 -0.1)">
      <use xlink:href="#ArialMT-49"/>
     </g>
    </g>
   </g>
   <g id="xtick_6">
    <g id="line2d_12">
     <path clip-path="url(#pcf956d5fa6)" d="M 376.345946 350.854054 
" style="fill:none;stroke:#ffffff;stroke-linecap:round;"/>
    </g>
    <g id="line2d_13">
     <path d="M 387.666113 575.526056 
L 383.317681 579.815426 
" style="fill:none;stroke:#262626;stroke-linecap:round;"/>
    </g>
    <g id="text_6">
     <!-- 2 -->
     <g style="fill:#262626;" transform="translate(373.798263 605.593336)scale(0.1 -0.1)">
      <use xlink:href="#ArialMT-50"/>
     </g>
    </g>
   </g>
   <g id="xtick_7">
    <g id="line2d_14">
     <path clip-path="url(#pcf956d5fa6)" d="M 376.345946 350.854054 
" style="fill:none;stroke:#ffffff;stroke-linecap:round;"/>
    </g>
    <g id="line2d_15">
     <path d="M 438.590537 592.141537 
L 434.319097 596.505507 
" style="fill:none;stroke:#262626;stroke-linecap:round;"/>
    </g>
    <g id="text_7">
     <!-- 3 -->
     <g style="fill:#262626;" transform="translate(424.791459 622.461425)scale(0.1 -0.1)">
      <use xlink:href="#ArialMT-51"/>
     </g>
    </g>
   </g>
  </g>
  <g id="axis3d_2">
   <g id="line2d_16">
    <path d="M 605.8167 429.219774 
L 443.599697 595.694325 
" style="fill:none;"/>
   </g>
   <g id="Line3DCollection_2">
    <path d="M 131.264223 262.759788 
L 142.148351 492.694254 
L 447.141702 592.059357 
" style="fill:none;stroke:#ffffff;"/>
    <path d="M 163.561191 239.190932 
L 172.878593 466.935557 
L 475.007273 563.462426 
" style="fill:none;stroke:#ffffff;"/>
    <path d="M 194.925284 216.302846 
L 202.759542 441.888753 
L 502.062307 535.697306 
" style="fill:none;stroke:#ffffff;"/>
    <path d="M 225.396343 194.066455 
L 231.825927 417.524732 
L 528.341661 508.728224 
" style="fill:none;stroke:#ffffff;"/>
    <path d="M 255.011974 172.454316 
L 260.110608 393.815952 
L 553.878223 482.521429 
" style="fill:none;stroke:#ffffff;"/>
    <path d="M 283.807702 151.440505 
L 287.644701 370.736329 
L 578.703046 457.045053 
" style="fill:none;stroke:#ffffff;"/>
    <path d="M 311.81711 131.000515 
L 314.457692 348.261148 
L 602.845478 432.268979 
" style="fill:none;stroke:#ffffff;"/>
   </g>
   <g id="xtick_8">
    <g id="line2d_17">
     <path clip-path="url(#pcf956d5fa6)" d="M 376.345946 350.854054 
" style="fill:none;stroke:#ffffff;stroke-linecap:round;"/>
    </g>
    <g id="line2d_18">
     <path d="M 444.570982 591.221831 
L 452.289817 593.736584 
" style="fill:none;stroke:#262626;stroke-linecap:round;"/>
    </g>
    <g id="text_8">
     <!-- −3 -->
     <g style="fill:#262626;" transform="translate(458.303811 616.796589)scale(0.1 -0.1)">
      <use xlink:href="#ArialMT-8722"/>
      <use x="58.398438" xlink:href="#ArialMT-51"/>
     </g>
    </g>
   </g>
   <g id="xtick_9">
    <g id="line2d_19">
     <path clip-path="url(#pcf956d5fa6)" d="M 376.345946 350.854054 
" style="fill:none;stroke:#ffffff;stroke-linecap:round;"/>
    </g>
    <g id="line2d_20">
     <path d="M 472.46261 562.649434 
L 480.10311 565.090491 
" style="fill:none;stroke:#262626;stroke-linecap:round;"/>
    </g>
    <g id="text_9">
     <!-- −2 -->
     <g style="fill:#262626;" transform="translate(485.930957 587.929303)scale(0.1 -0.1)">
      <use xlink:href="#ArialMT-8722"/>
      <use x="58.398438" xlink:href="#ArialMT-50"/>
     </g>
    </g>
   </g>
   <g id="xtick_10">
    <g id="line2d_21">
     <path clip-path="url(#pcf956d5fa6)" d="M 376.345946 350.854054 
" style="fill:none;stroke:#ffffff;stroke-linecap:round;"/>
    </g>
    <g id="line2d_22">
     <path d="M 499.543283 534.907784 
L 507.106705 537.27834 
" style="fill:none;stroke:#262626;stroke-linecap:round;"/>
    </g>
    <g id="text_10">
     <!-- −1 -->
     <g style="fill:#262626;" transform="translate(512.754201 559.902005)scale(0.1 -0.1)">
      <use xlink:href="#ArialMT-8722"/>
      <use x="58.398438" xlink:href="#ArialMT-49"/>
     </g>
    </g>
   </g>
   <g id="xtick_11">
    <g id="line2d_23">
     <path clip-path="url(#pcf956d5fa6)" d="M 376.345946 350.854054 
" style="fill:none;stroke:#ffffff;stroke-linecap:round;"/>
    </g>
    <g id="line2d_24">
     <path d="M 525.847862 507.961171 
L 533.335455 510.264235 
" style="fill:none;stroke:#262626;stroke-linecap:round;"/>
    </g>
    <g id="text_11">
     <!-- 0 -->
     <g style="fill:#262626;" transform="translate(541.728442 532.678556)scale(0.1 -0.1)">
      <use xlink:href="#ArialMT-48"/>
     </g>
    </g>
   </g>
   <g id="xtick_12">
    <g id="line2d_25">
     <path clip-path="url(#pcf956d5fa6)" d="M 376.345946 350.854054 
" style="fill:none;stroke:#ffffff;stroke-linecap:round;"/>
    </g>
    <g id="line2d_26">
     <path d="M 551.40924 481.7759 
L 558.822237 484.014314 
" style="fill:none;stroke:#262626;stroke-linecap:round;"/>
    </g>
    <g id="text_12">
     <!-- 1 -->
     <g style="fill:#262626;" transform="translate(567.045682 506.224864)scale(0.1 -0.1)">
      <use xlink:href="#ArialMT-49"/>
     </g>
    </g>
   </g>
   <g id="xtick_13">
    <g id="line2d_27">
     <path clip-path="url(#pcf956d5fa6)" d="M 376.345946 350.854054 
" style="fill:none;stroke:#ffffff;stroke-linecap:round;"/>
    </g>
    <g id="line2d_28">
     <path d="M 576.258474 456.320154 
L 583.598097 458.496603 
" style="fill:none;stroke:#262626;stroke-linecap:round;"/>
    </g>
    <g id="text_13">
     <!-- 2 -->
     <g style="fill:#262626;" transform="translate(591.657045 480.508734)scale(0.1 -0.1)">
      <use xlink:href="#ArialMT-50"/>
     </g>
    </g>
   </g>
   <g id="xtick_14">
    <g id="line2d_29">
     <path clip-path="url(#pcf956d5fa6)" d="M 376.345946 350.854054 
" style="fill:none;stroke:#ffffff;stroke-linecap:round;"/>
    </g>
    <g id="line2d_30">
     <path d="M 600.424916 431.563865 
L 607.69237 433.680886 
" style="fill:none;stroke:#262626;stroke-linecap:round;"/>
    </g>
    <g id="text_14">
     <!-- 3 -->
     <g style="fill:#262626;" transform="translate(615.591646 455.499746)scale(0.1 -0.1)">
      <use xlink:href="#ArialMT-51"/>
     </g>
    </g>
   </g>
  </g>
  <g id="axis3d_3">
   <g id="line2d_31">
    <path d="M 605.8167 429.219774 
L 616.096428 204.736794 
" style="fill:none;"/>
   </g>
   <g id="Line3DCollection_3">
    <path d="M 606.013648 424.918928 
L 317.712113 341.326812 
L 138.033502 491.562373 
" style="fill:none;stroke:#ffffff;"/>
    <path d="M 607.601489 390.244553 
L 317.326005 307.749831 
L 136.323434 456.051697 
" style="fill:none;stroke:#ffffff;"/>
    <path d="M 609.211437 355.087387 
L 316.934778 273.727705 
L 134.588646 420.027707 
" style="fill:none;stroke:#ffffff;"/>
    <path d="M 610.84396 319.437277 
L 316.538329 239.251522 
L 132.828599 383.479192 
" style="fill:none;stroke:#ffffff;"/>
    <path d="M 612.499533 283.283783 
L 316.136554 204.312131 
L 131.042737 346.394612 
" style="fill:none;stroke:#ffffff;"/>
    <path d="M 614.17865 246.616165 
L 315.729344 168.900134 
L 129.230488 308.762085 
" style="fill:none;stroke:#ffffff;"/>
    <path d="M 615.881815 209.42338 
L 315.316589 133.005877 
L 127.391263 270.569377 
" style="fill:none;stroke:#ffffff;"/>
   </g>
   <g id="xtick_15">
    <g id="line2d_32">
     <path clip-path="url(#pcf956d5fa6)" d="M 376.345946 350.854054 
" style="fill:none;stroke:#ffffff;stroke-linecap:round;"/>
    </g>
    <g id="line2d_33">
     <path d="M 603.593907 424.217332 
L 610.858891 426.323791 
" style="fill:none;stroke:#262626;stroke-linecap:round;"/>
    </g>
    <g id="text_15">
     <!-- −3 -->
     <g style="fill:#262626;" transform="translate(624.161299 428.680568)scale(0.1 -0.1)">
      <use xlink:href="#ArialMT-8722"/>
      <use x="58.398438" xlink:href="#ArialMT-51"/>
     </g>
    </g>
   </g>
   <g id="xtick_16">
    <g id="line2d_34">
     <path clip-path="url(#pcf956d5fa6)" d="M 376.345946 350.854054 
" style="fill:none;stroke:#ffffff;stroke-linecap:round;"/>
    </g>
    <g id="line2d_35">
     <path d="M 605.164392 389.551943 
L 612.481525 391.631433 
" style="fill:none;stroke:#262626;stroke-linecap:round;"/>
    </g>
    <g id="text_16">
     <!-- −2 -->
     <g style="fill:#262626;" transform="translate(625.910634 394.049728)scale(0.1 -0.1)">
      <use xlink:href="#ArialMT-8722"/>
      <use x="58.398438" xlink:href="#ArialMT-50"/>
     </g>
    </g>
   </g>
   <g id="xtick_17">
    <g id="line2d_36">
     <path clip-path="url(#pcf956d5fa6)" d="M 376.345946 350.854054 
" style="fill:none;stroke:#ffffff;stroke-linecap:round;"/>
    </g>
    <g id="line2d_37">
     <path d="M 606.756734 354.404083 
L 614.12677 356.455645 
" style="fill:none;stroke:#262626;stroke-linecap:round;"/>
    </g>
    <g id="text_17">
     <!-- −1 -->
     <g style="fill:#262626;" transform="translate(627.684278 358.937641)scale(0.1 -0.1)">
      <use xlink:href="#ArialMT-8722"/>
      <use x="58.398438" xlink:href="#ArialMT-49"/>
     </g>
    </g>
   </g>
   <g id="xtick_18">
    <g id="line2d_38">
     <path clip-path="url(#pcf956d5fa6)" d="M 376.345946 350.854054 
" style="fill:none;stroke:#ffffff;stroke-linecap:round;"/>
    </g>
    <g id="line2d_39">
     <path d="M 608.371393 318.763608 
L 615.795102 320.786253 
" style="fill:none;stroke:#262626;stroke-linecap:round;"/>
    </g>
    <g id="text_18">
     <!-- 0 -->
     <g style="fill:#262626;" transform="translate(632.403055 323.334207)scale(0.1 -0.1)">
      <use xlink:href="#ArialMT-48"/>
     </g>
    </g>
   </g>
   <g id="xtick_19">
    <g id="line2d_40">
     <path clip-path="url(#pcf956d5fa6)" d="M 376.345946 350.854054 
" style="fill:none;stroke:#ffffff;stroke-linecap:round;"/>
    </g>
    <g id="line2d_41">
     <path d="M 610.008843 282.62009 
L 617.48701 284.612792 
" style="fill:none;stroke:#262626;stroke-linecap:round;"/>
    </g>
    <g id="text_19">
     <!-- 1 -->
     <g style="fill:#262626;" transform="translate(634.226863 287.229038)scale(0.1 -0.1)">
      <use xlink:href="#ArialMT-49"/>
     </g>
    </g>
   </g>
   <g id="xtick_20">
    <g id="line2d_42">
     <path clip-path="url(#pcf956d5fa6)" d="M 376.345946 350.854054 
" style="fill:none;stroke:#ffffff;stroke-linecap:round;"/>
    </g>
    <g id="line2d_43">
     <path d="M 611.669568 245.962802 
L 619.202998 247.924503 
" style="fill:none;stroke:#262626;stroke-linecap:round;"/>
    </g>
    <g id="text_20">
     <!-- 2 -->
     <g style="fill:#262626;" transform="translate(636.076556 250.611454)scale(0.1 -0.1)">
      <use xlink:href="#ArialMT-50"/>
     </g>
    </g>
   </g>
   <g id="xtick_21">
    <g id="line2d_44">
     <path clip-path="url(#pcf956d5fa6)" d="M 376.345946 350.854054 
" style="fill:none;stroke:#ffffff;stroke-linecap:round;"/>
    </g>
    <g id="line2d_45">
     <path d="M 613.354069 208.780711 
L 620.943583 210.710314 
" style="fill:none;stroke:#262626;stroke-linecap:round;"/>
    </g>
    <g id="text_21">
     <!-- 3 -->
     <g style="fill:#262626;" transform="translate(637.952687 213.470467)scale(0.1 -0.1)">
      <use xlink:href="#ArialMT-51"/>
     </g>
    </g>
   </g>
  </g>
  <g id="axes_1">
   <g id="line2d_46">
    <path clip-path="url(#pcf956d5fa6)" d="M 452.34232 340.672471 
L 454.319789 342.891939 
L 456.007137 345.116124 
L 457.41816 347.33978 
L 458.565457 349.558688 
L 459.460343 351.769485 
L 460.112803 353.969501 
L 460.532025 356.160589 
L 460.72415 358.342956 
L 460.704451 360.332908 
L 460.704451 360.332908 
" style="fill:none;stroke:#4682b4;stroke-linecap:round;stroke-width:1.75;"/>
   </g>
   <g id="line2d_47">
    <path clip-path="url(#pcf956d5fa6)" d="M 460.704451 360.332908 
" style="fill:none;stroke:#4682b4;stroke-linecap:round;stroke-width:1.75;"/>
    <defs>
     <path d="M 0 3.5 
C 0.928211 3.5 1.81853 3.131218 2.474874 2.474874 
C 3.131218 1.81853 3.5 0.928211 3.5 0 
C 3.5 -0.928211 3.131218 -1.81853 2.474874 -2.474874 
C 1.81853 -3.131218 0.928211 -3.5 0 -3.5 
C -0.928211 -3.5 -1.81853 -3.131218 -2.474874 -2.474874 
C -3.131218 -1.81853 -3.5 -0.928211 -3.5 0 
C -3.5 0.928211 -3.131218 1.81853 -2.474874 2.474874 
C -1.81853 3.131218 -0.928211 3.5 0 3.5 
z
" id="m27f7f83807"/>
    </defs>
    <g clip-path="url(#pcf956d5fa6)">
     <use style="fill:#4682b4;" x="460.704451" xlink:href="#m27f7f83807" y="360.332908"/>
    </g>
   </g>
   <g id="line2d_48">
    <path clip-path="url(#pcf956d5fa6)" d="M 299.426287 361.159334 
L 297.683132 358.960354 
L 296.220635 356.761695 
L 295.02548 354.567783 
L 294.085666 352.382143 
L 293.390031 350.205581 
L 292.929955 348.040336 
L 292.697832 345.882354 
L 292.6896 343.731411 
L 292.903754 341.583455 
L 292.91971 341.479953 
L 292.91971 341.479953 
" style="fill:none;stroke:#2e8b57;stroke-linecap:round;stroke-width:1.75;"/>
   </g>
   <g id="line2d_49">
    <path clip-path="url(#pcf956d5fa6)" d="M 292.91971 341.479953 
" style="fill:none;stroke:#2e8b57;stroke-linecap:round;stroke-width:1.75;"/>
    <defs>
     <path d="M 0 3.5 
C 0.928211 3.5 1.81853 3.131218 2.474874 2.474874 
C 3.131218 1.81853 3.5 0.928211 3.5 0 
C 3.5 -0.928211 3.131218 -1.81853 2.474874 -2.474874 
C 1.81853 -3.131218 0.928211 -3.5 0 -3.5 
C -0.928211 -3.5 -1.81853 -3.131218 -2.474874 -2.474874 
C -3.131218 -1.81853 -3.5 -0.928211 -3.5 0 
C -3.5 0.928211 -3.131218 1.81853 -2.474874 2.474874 
C -1.81853 3.131218 -0.928211 3.5 0 3.5 
z
" id="m8cd7682407"/>
    </defs>
    <g clip-path="url(#pcf956d5fa6)">
     <use style="fill:#2e8b57;" x="292.91971" xlink:href="#m8cd7682407" y="341.479953"/>
    </g>
   </g>
   <g id="line2d_50">
    <path clip-path="url(#pcf956d5fa6)" d="M 376.345946 361.736636 
L 400.778483 360.660817 
L 418.680187 359.650549 
L 430.394096 358.785399 
L 438.794441 357.953897 
L 445.738686 357.048688 
L 450.66969 356.193073 
L 454.591833 355.294106 
L 457.890753 354.316807 
L 460.62786 353.281645 
L 463.071956 352.123271 
L 465.340578 350.80061 
L 467.506875 349.275571 
L 469.690457 347.462122 
L 471.931435 345.305569 
L 474.391628 342.620012 
L 477.227864 339.182998 
L 480.647002 334.673796 
L 485.186161 328.298835 
L 491.181256 319.465052 
L 499.641784 306.58 
L 511.273863 288.43216 
L 526.231004 264.675781 
L 541.406508 240.251149 
L 541.406508 240.251149 
" style="fill:none;stroke:#4b0082;stroke-linecap:round;stroke-width:1.75;"/>
   </g>
   <g id="line2d_51">
    <path clip-path="url(#pcf956d5fa6)" d="M 541.406508 240.251149 
" style="fill:none;stroke:#4b0082;stroke-linecap:round;stroke-width:1.75;"/>
    <defs>
     <path d="M 0 3.5 
C 0.928211 3.5 1.81853 3.131218 2.474874 2.474874 
C 3.131218 1.81853 3.5 0.928211 3.5 0 
C 3.5 -0.928211 3.131218 -1.81853 2.474874 -2.474874 
C 1.81853 -3.131218 0.928211 -3.5 0 -3.5 
C -0.928211 -3.5 -1.81853 -3.131218 -2.474874 -2.474874 
C -3.131218 -1.81853 -3.5 -0.928211 -3.5 0 
C -3.5 0.928211 -3.131218 1.81853 -2.474874 2.474874 
C -1.81853 3.131218 -0.928211 3.5 0 3.5 
z
" id="mb2d3273078"/>
    </defs>
    <g clip-path="url(#pcf956d5fa6)">
     <use style="fill:#4b0082;" x="541.406508" xlink:href="#mb2d3273078" y="240.251149"/>
    </g>
   </g>
   <g id="text_22">
    <!-- Slingshot Escape -->
    <g style="fill:#262626;" transform="translate(307.18625 80.4)scale(0.16 -0.16)">
     <defs>
      <path d="M 4.5 23 
L 13.421875 23.78125 
Q 14.0625 18.40625 16.375 14.96875 
Q 18.703125 11.53125 23.578125 9.40625 
Q 28.46875 7.28125 34.578125 7.28125 
Q 39.984375 7.28125 44.140625 8.890625 
Q 48.296875 10.5 50.3125 13.296875 
Q 52.34375 16.109375 52.34375 19.4375 
Q 52.34375 22.796875 50.390625 25.3125 
Q 48.4375 27.828125 43.953125 29.546875 
Q 41.0625 30.671875 31.203125 33.03125 
Q 21.34375 35.40625 17.390625 37.5 
Q 12.25 40.1875 9.734375 44.15625 
Q 7.234375 48.140625 7.234375 53.078125 
Q 7.234375 58.5 10.296875 63.203125 
Q 13.375 67.921875 19.28125 70.359375 
Q 25.203125 72.796875 32.421875 72.796875 
Q 40.375 72.796875 46.453125 70.234375 
Q 52.546875 67.671875 55.8125 62.6875 
Q 59.078125 57.71875 59.328125 51.421875 
L 50.25 50.734375 
Q 49.515625 57.515625 45.28125 60.984375 
Q 41.0625 64.453125 32.8125 64.453125 
Q 24.21875 64.453125 20.28125 61.296875 
Q 16.359375 58.15625 16.359375 53.71875 
Q 16.359375 49.859375 19.140625 47.359375 
Q 21.875 44.875 33.421875 42.265625 
Q 44.96875 39.65625 49.265625 37.703125 
Q 55.515625 34.8125 58.484375 30.390625 
Q 61.46875 25.984375 61.46875 20.21875 
Q 61.46875 14.5 58.203125 9.4375 
Q 54.9375 4.390625 48.796875 1.578125 
Q 42.671875 -1.21875 35.015625 -1.21875 
Q 25.296875 -1.21875 18.71875 1.609375 
Q 12.15625 4.4375 8.421875 10.125 
Q 4.6875 15.828125 4.5 23 
z
" id="ArialMT-83"/>
      <path d="M 6.390625 0 
L 6.390625 71.578125 
L 15.1875 71.578125 
L 15.1875 0 
z
" id="ArialMT-108"/>
      <path d="M 6.640625 61.46875 
L 6.640625 71.578125 
L 15.4375 71.578125 
L 15.4375 61.46875 
z
M 6.640625 0 
L 6.640625 51.859375 
L 15.4375 51.859375 
L 15.4375 0 
z
" id="ArialMT-105"/>
      <path d="M 6.59375 0 
L 6.59375 51.859375 
L 14.5 51.859375 
L 14.5 44.484375 
Q 20.21875 53.03125 31 53.03125 
Q 35.6875 53.03125 39.625 51.34375 
Q 43.5625 49.65625 45.515625 46.921875 
Q 47.46875 44.1875 48.25 40.4375 
Q 48.734375 37.984375 48.734375 31.890625 
L 48.734375 0 
L 39.9375 0 
L 39.9375 31.546875 
Q 39.9375 36.921875 38.90625 39.578125 
Q 37.890625 42.234375 35.28125 43.8125 
Q 32.671875 45.40625 29.15625 45.40625 
Q 23.53125 45.40625 19.453125 41.84375 
Q 15.375 38.28125 15.375 28.328125 
L 15.375 0 
z
" id="ArialMT-110"/>
      <path d="M 4.984375 -4.296875 
L 13.53125 -5.5625 
Q 14.0625 -9.515625 16.5 -11.328125 
Q 19.78125 -13.765625 25.4375 -13.765625 
Q 31.546875 -13.765625 34.859375 -11.328125 
Q 38.1875 -8.890625 39.359375 -4.5 
Q 40.046875 -1.8125 39.984375 6.78125 
Q 34.234375 0 25.640625 0 
Q 14.9375 0 9.078125 7.71875 
Q 3.21875 15.4375 3.21875 26.21875 
Q 3.21875 33.640625 5.90625 39.90625 
Q 8.59375 46.1875 13.6875 49.609375 
Q 18.796875 53.03125 25.6875 53.03125 
Q 34.859375 53.03125 40.828125 45.609375 
L 40.828125 51.859375 
L 48.921875 51.859375 
L 48.921875 7.03125 
Q 48.921875 -5.078125 46.453125 -10.125 
Q 44 -15.1875 38.640625 -18.109375 
Q 33.296875 -21.046875 25.484375 -21.046875 
Q 16.21875 -21.046875 10.5 -16.875 
Q 4.78125 -12.703125 4.984375 -4.296875 
z
M 12.25 26.859375 
Q 12.25 16.65625 16.296875 11.96875 
Q 20.359375 7.28125 26.46875 7.28125 
Q 32.515625 7.28125 36.609375 11.9375 
Q 40.71875 16.609375 40.71875 26.5625 
Q 40.71875 36.078125 36.5 40.90625 
Q 32.28125 45.75 26.3125 45.75 
Q 20.453125 45.75 16.34375 40.984375 
Q 12.25 36.234375 12.25 26.859375 
z
" id="ArialMT-103"/>
      <path d="M 3.078125 15.484375 
L 11.765625 16.84375 
Q 12.5 11.625 15.84375 8.84375 
Q 19.1875 6.0625 25.203125 6.0625 
Q 31.25 6.0625 34.171875 8.515625 
Q 37.109375 10.984375 37.109375 14.3125 
Q 37.109375 17.28125 34.515625 19 
Q 32.71875 20.171875 25.53125 21.96875 
Q 15.875 24.421875 12.140625 26.203125 
Q 8.40625 27.984375 6.46875 31.125 
Q 4.546875 34.28125 4.546875 38.09375 
Q 4.546875 41.546875 6.125 44.5 
Q 7.71875 47.46875 10.453125 49.421875 
Q 12.5 50.921875 16.03125 51.96875 
Q 19.578125 53.03125 23.640625 53.03125 
Q 29.734375 53.03125 34.34375 51.265625 
Q 38.96875 49.515625 41.15625 46.5 
Q 43.359375 43.5 44.1875 38.484375 
L 35.59375 37.3125 
Q 35.015625 41.3125 32.203125 43.546875 
Q 29.390625 45.796875 24.265625 45.796875 
Q 18.21875 45.796875 15.625 43.796875 
Q 13.03125 41.796875 13.03125 39.109375 
Q 13.03125 37.40625 14.109375 36.03125 
Q 15.1875 34.625 17.484375 33.6875 
Q 18.796875 33.203125 25.25 31.453125 
Q 34.578125 28.953125 38.25 27.359375 
Q 41.9375 25.78125 44.03125 22.75 
Q 46.140625 19.734375 46.140625 15.234375 
Q 46.140625 10.84375 43.578125 6.953125 
Q 41.015625 3.078125 36.171875 0.953125 
Q 31.34375 -1.171875 25.25 -1.171875 
Q 15.140625 -1.171875 9.84375 3.03125 
Q 4.546875 7.234375 3.078125 15.484375 
z
" id="ArialMT-115"/>
      <path d="M 6.59375 0 
L 6.59375 71.578125 
L 15.375 71.578125 
L 15.375 45.90625 
Q 21.53125 53.03125 30.90625 53.03125 
Q 36.671875 53.03125 40.921875 50.75 
Q 45.171875 48.484375 47 44.484375 
Q 48.828125 40.484375 48.828125 32.859375 
L 48.828125 0 
L 40.046875 0 
L 40.046875 32.859375 
Q 40.046875 39.453125 37.1875 42.453125 
Q 34.328125 45.453125 29.109375 45.453125 
Q 25.203125 45.453125 21.75 43.421875 
Q 18.3125 41.40625 16.84375 37.9375 
Q 15.375 34.46875 15.375 28.375 
L 15.375 0 
z
" id="ArialMT-104"/>
      <path d="M 3.328125 25.921875 
Q 3.328125 40.328125 11.328125 47.265625 
Q 18.015625 53.03125 27.640625 53.03125 
Q 38.328125 53.03125 45.109375 46.015625 
Q 51.90625 39.015625 51.90625 26.65625 
Q 51.90625 16.65625 48.90625 10.90625 
Q 45.90625 5.171875 40.15625 2 
Q 34.421875 -1.171875 27.640625 -1.171875 
Q 16.75 -1.171875 10.03125 5.8125 
Q 3.328125 12.796875 3.328125 25.921875 
z
M 12.359375 25.921875 
Q 12.359375 15.96875 16.703125 11.015625 
Q 21.046875 6.0625 27.640625 6.0625 
Q 34.1875 6.0625 38.53125 11.03125 
Q 42.875 16.015625 42.875 26.21875 
Q 42.875 35.84375 38.5 40.796875 
Q 34.125 45.75 27.640625 45.75 
Q 21.046875 45.75 16.703125 40.8125 
Q 12.359375 35.890625 12.359375 25.921875 
z
" id="ArialMT-111"/>
      <path d="M 25.78125 7.859375 
L 27.046875 0.09375 
Q 23.34375 -0.6875 20.40625 -0.6875 
Q 15.625 -0.6875 12.984375 0.828125 
Q 10.359375 2.34375 9.28125 4.8125 
Q 8.203125 7.28125 8.203125 15.1875 
L 8.203125 45.015625 
L 1.765625 45.015625 
L 1.765625 51.859375 
L 8.203125 51.859375 
L 8.203125 64.703125 
L 16.9375 69.96875 
L 16.9375 51.859375 
L 25.78125 51.859375 
L 25.78125 45.015625 
L 16.9375 45.015625 
L 16.9375 14.703125 
Q 16.9375 10.9375 17.40625 9.859375 
Q 17.875 8.796875 18.921875 8.15625 
Q 19.96875 7.515625 21.921875 7.515625 
Q 23.390625 7.515625 25.78125 7.859375 
z
" id="ArialMT-116"/>
      <path id="ArialMT-32"/>
      <path d="M 7.90625 0 
L 7.90625 71.578125 
L 59.671875 71.578125 
L 59.671875 63.140625 
L 17.390625 63.140625 
L 17.390625 41.21875 
L 56.984375 41.21875 
L 56.984375 32.8125 
L 17.390625 32.8125 
L 17.390625 8.453125 
L 61.328125 8.453125 
L 61.328125 0 
z
" id="ArialMT-69"/>
      <path d="M 40.4375 19 
L 49.078125 17.875 
Q 47.65625 8.9375 41.8125 3.875 
Q 35.984375 -1.171875 27.484375 -1.171875 
Q 16.84375 -1.171875 10.375 5.78125 
Q 3.90625 12.75 3.90625 25.734375 
Q 3.90625 34.125 6.6875 40.421875 
Q 9.46875 46.734375 15.15625 49.875 
Q 20.84375 53.03125 27.546875 53.03125 
Q 35.984375 53.03125 41.359375 48.75 
Q 46.734375 44.484375 48.25 36.625 
L 39.703125 35.296875 
Q 38.484375 40.53125 35.375 43.15625 
Q 32.28125 45.796875 27.875 45.796875 
Q 21.234375 45.796875 17.078125 41.03125 
Q 12.9375 36.28125 12.9375 25.984375 
Q 12.9375 15.53125 16.9375 10.796875 
Q 20.953125 6.0625 27.390625 6.0625 
Q 32.5625 6.0625 36.03125 9.234375 
Q 39.5 12.40625 40.4375 19 
z
" id="ArialMT-99"/>
      <path d="M 40.4375 6.390625 
Q 35.546875 2.25 31.03125 0.53125 
Q 26.515625 -1.171875 21.34375 -1.171875 
Q 12.796875 -1.171875 8.203125 3 
Q 3.609375 7.171875 3.609375 13.671875 
Q 3.609375 17.484375 5.34375 20.625 
Q 7.078125 23.78125 9.890625 25.6875 
Q 12.703125 27.59375 16.21875 28.5625 
Q 18.796875 29.25 24.03125 29.890625 
Q 34.671875 31.15625 39.703125 32.90625 
Q 39.75 34.71875 39.75 35.203125 
Q 39.75 40.578125 37.25 42.78125 
Q 33.890625 45.75 27.25 45.75 
Q 21.046875 45.75 18.09375 43.578125 
Q 15.140625 41.40625 13.71875 35.890625 
L 5.125 37.0625 
Q 6.296875 42.578125 8.984375 45.96875 
Q 11.671875 49.359375 16.75 51.1875 
Q 21.828125 53.03125 28.515625 53.03125 
Q 35.15625 53.03125 39.296875 51.46875 
Q 43.453125 49.90625 45.40625 47.53125 
Q 47.359375 45.171875 48.140625 41.546875 
Q 48.578125 39.3125 48.578125 33.453125 
L 48.578125 21.734375 
Q 48.578125 9.46875 49.140625 6.21875 
Q 49.703125 2.984375 51.375 0 
L 42.1875 0 
Q 40.828125 2.734375 40.4375 6.390625 
z
M 39.703125 26.03125 
Q 34.90625 24.078125 25.34375 22.703125 
Q 19.921875 21.921875 17.671875 20.9375 
Q 15.4375 19.96875 14.203125 18.09375 
Q 12.984375 16.21875 12.984375 13.921875 
Q 12.984375 10.40625 15.640625 8.0625 
Q 18.3125 5.71875 23.4375 5.71875 
Q 28.515625 5.71875 32.46875 7.9375 
Q 36.421875 10.15625 38.28125 14.015625 
Q 39.703125 17 39.703125 22.796875 
z
" id="ArialMT-97"/>
      <path d="M 6.59375 -19.875 
L 6.59375 51.859375 
L 14.59375 51.859375 
L 14.59375 45.125 
Q 17.4375 49.078125 21 51.046875 
Q 24.5625 53.03125 29.640625 53.03125 
Q 36.28125 53.03125 41.359375 49.609375 
Q 46.4375 46.1875 49.015625 39.953125 
Q 51.609375 33.734375 51.609375 26.3125 
Q 51.609375 18.359375 48.75 11.984375 
Q 45.90625 5.609375 40.453125 2.21875 
Q 35.015625 -1.171875 29 -1.171875 
Q 24.609375 -1.171875 21.109375 0.6875 
Q 17.625 2.546875 15.375 5.375 
L 15.375 -19.875 
z
M 14.546875 25.640625 
Q 14.546875 15.625 18.59375 10.84375 
Q 22.65625 6.0625 28.421875 6.0625 
Q 34.28125 6.0625 38.453125 11.015625 
Q 42.625 15.96875 42.625 26.375 
Q 42.625 36.28125 38.546875 41.203125 
Q 34.46875 46.140625 28.8125 46.140625 
Q 23.1875 46.140625 18.859375 40.890625 
Q 14.546875 35.640625 14.546875 25.640625 
z
" id="ArialMT-112"/>
      <path d="M 42.09375 16.703125 
L 51.171875 15.578125 
Q 49.03125 7.625 43.21875 3.21875 
Q 37.40625 -1.171875 28.375 -1.171875 
Q 17 -1.171875 10.328125 5.828125 
Q 3.65625 12.84375 3.65625 25.484375 
Q 3.65625 38.578125 10.390625 45.796875 
Q 17.140625 53.03125 27.875 53.03125 
Q 38.28125 53.03125 44.875 45.953125 
Q 51.46875 38.875 51.46875 26.03125 
Q 51.46875 25.25 51.421875 23.6875 
L 12.75 23.6875 
Q 13.234375 15.140625 17.578125 10.59375 
Q 21.921875 6.0625 28.421875 6.0625 
Q 33.25 6.0625 36.671875 8.59375 
Q 40.09375 11.140625 42.09375 16.703125 
z
M 13.234375 30.90625 
L 42.1875 30.90625 
Q 41.609375 37.453125 38.875 40.71875 
Q 34.671875 45.796875 27.984375 45.796875 
Q 21.921875 45.796875 17.796875 41.75 
Q 13.671875 37.703125 13.234375 30.90625 
z
" id="ArialMT-101"/>
     </defs>
     <use xlink:href="#ArialMT-83"/>
     <use x="66.699219" xlink:href="#ArialMT-108"/>
     <use x="88.916016" xlink:href="#ArialMT-105"/>
     <use x="111.132812" xlink:href="#ArialMT-110"/>
     <use x="166.748047" xlink:href="#ArialMT-103"/>
     <use x="222.363281" xlink:href="#ArialMT-115"/>
     <use x="272.363281" xlink:href="#ArialMT-104"/>
     <use x="327.978516" xlink:href="#ArialMT-111"/>
     <use x="383.59375" xlink:href="#ArialMT-116"/>
     <use x="411.376953" xlink:href="#ArialMT-32"/>
     <use x="439.160156" xlink:href="#ArialMT-69"/>
     <use x="505.859375" xlink:href="#ArialMT-115"/>
     <use x="555.859375" xlink:href="#ArialMT-99"/>
     <use x="605.859375" xlink:href="#ArialMT-97"/>
     <use x="661.474609" xlink:href="#ArialMT-112"/>
     <use x="717.089844" xlink:href="#ArialMT-101"/>
    </g>
   </g>
   <g id="legend_1">
    <g id="line2d_52">
     <path d="M 525.01875 101.589375 
L 549.01875 101.589375 
" style="fill:none;stroke:#4682b4;stroke-linecap:round;stroke-width:1.75;"/>
    </g>
    <g id="line2d_53"/>
    <g id="text_23">
     <!-- First Body -->
     <g style="fill:#262626;" transform="translate(558.61875 105.789375)scale(0.12 -0.12)">
      <defs>
       <path d="M 8.203125 0 
L 8.203125 71.578125 
L 56.5 71.578125 
L 56.5 63.140625 
L 17.671875 63.140625 
L 17.671875 40.96875 
L 51.265625 40.96875 
L 51.265625 32.515625 
L 17.671875 32.515625 
L 17.671875 0 
z
" id="ArialMT-70"/>
       <path d="M 6.5 0 
L 6.5 51.859375 
L 14.40625 51.859375 
L 14.40625 44 
Q 17.4375 49.515625 20 51.265625 
Q 22.5625 53.03125 25.640625 53.03125 
Q 30.078125 53.03125 34.671875 50.203125 
L 31.640625 42.046875 
Q 28.421875 43.953125 25.203125 43.953125 
Q 22.3125 43.953125 20.015625 42.21875 
Q 17.71875 40.484375 16.75 37.40625 
Q 15.28125 32.71875 15.28125 27.15625 
L 15.28125 0 
z
" id="ArialMT-114"/>
       <path d="M 7.328125 0 
L 7.328125 71.578125 
L 34.1875 71.578125 
Q 42.390625 71.578125 47.34375 69.40625 
Q 52.296875 67.234375 55.09375 62.71875 
Q 57.90625 58.203125 57.90625 53.265625 
Q 57.90625 48.6875 55.421875 44.625 
Q 52.9375 40.578125 47.90625 38.09375 
Q 54.390625 36.1875 57.875 31.59375 
Q 61.375 27 61.375 20.75 
Q 61.375 15.71875 59.25 11.390625 
Q 57.125 7.078125 54 4.734375 
Q 50.875 2.390625 46.15625 1.1875 
Q 41.453125 0 34.625 0 
z
M 16.796875 41.5 
L 32.28125 41.5 
Q 38.578125 41.5 41.3125 42.328125 
Q 44.921875 43.40625 46.75 45.890625 
Q 48.578125 48.390625 48.578125 52.15625 
Q 48.578125 55.71875 46.875 58.421875 
Q 45.171875 61.140625 41.984375 62.140625 
Q 38.8125 63.140625 31.109375 63.140625 
L 16.796875 63.140625 
z
M 16.796875 8.453125 
L 34.625 8.453125 
Q 39.203125 8.453125 41.0625 8.796875 
Q 44.34375 9.375 46.53125 10.734375 
Q 48.734375 12.109375 50.140625 14.71875 
Q 51.5625 17.328125 51.5625 20.75 
Q 51.5625 24.75 49.515625 27.703125 
Q 47.46875 30.671875 43.828125 31.859375 
Q 40.1875 33.0625 33.34375 33.0625 
L 16.796875 33.0625 
z
" id="ArialMT-66"/>
       <path d="M 40.234375 0 
L 40.234375 6.546875 
Q 35.296875 -1.171875 25.734375 -1.171875 
Q 19.53125 -1.171875 14.328125 2.25 
Q 9.125 5.671875 6.265625 11.796875 
Q 3.421875 17.921875 3.421875 25.875 
Q 3.421875 33.640625 6 39.96875 
Q 8.59375 46.296875 13.765625 49.65625 
Q 18.953125 53.03125 25.34375 53.03125 
Q 30.03125 53.03125 33.6875 51.046875 
Q 37.359375 49.078125 39.65625 45.90625 
L 39.65625 71.578125 
L 48.390625 71.578125 
L 48.390625 0 
z
M 12.453125 25.875 
Q 12.453125 15.921875 16.640625 10.984375 
Q 20.84375 6.0625 26.5625 6.0625 
Q 32.328125 6.0625 36.34375 10.765625 
Q 40.375 15.484375 40.375 25.140625 
Q 40.375 35.796875 36.265625 40.765625 
Q 32.171875 45.75 26.171875 45.75 
Q 20.3125 45.75 16.375 40.96875 
Q 12.453125 36.1875 12.453125 25.875 
z
" id="ArialMT-100"/>
       <path d="M 6.203125 -19.96875 
L 5.21875 -11.71875 
Q 8.109375 -12.5 10.25 -12.5 
Q 13.1875 -12.5 14.9375 -11.515625 
Q 16.703125 -10.546875 17.828125 -8.796875 
Q 18.65625 -7.46875 20.515625 -2.25 
Q 20.75 -1.515625 21.296875 -0.09375 
L 1.609375 51.859375 
L 11.078125 51.859375 
L 21.875 21.828125 
Q 23.96875 16.109375 25.640625 9.8125 
Q 27.15625 15.875 29.25 21.625 
L 40.328125 51.859375 
L 49.125 51.859375 
L 29.390625 -0.875 
Q 26.21875 -9.421875 24.46875 -12.640625 
Q 22.125 -17 19.09375 -19.015625 
Q 16.0625 -21.046875 11.859375 -21.046875 
Q 9.328125 -21.046875 6.203125 -19.96875 
z
" id="ArialMT-121"/>
      </defs>
      <use xlink:href="#ArialMT-70"/>
      <use x="61.083984" xlink:href="#ArialMT-105"/>
      <use x="83.300781" xlink:href="#ArialMT-114"/>
      <use x="116.601562" xlink:href="#ArialMT-115"/>
      <use x="166.601562" xlink:href="#ArialMT-116"/>
      <use x="194.384766" xlink:href="#ArialMT-32"/>
      <use x="222.167969" xlink:href="#ArialMT-66"/>
      <use x="288.867188" xlink:href="#ArialMT-111"/>
      <use x="344.482422" xlink:href="#ArialMT-100"/>
      <use x="400.097656" xlink:href="#ArialMT-121"/>
     </g>
    </g>
    <g id="line2d_54">
     <path d="M 525.01875 118.850625 
L 549.01875 118.850625 
" style="fill:none;stroke:#2e8b57;stroke-linecap:round;stroke-width:1.75;"/>
    </g>
    <g id="line2d_55"/>
    <g id="text_24">
     <!-- Second Body -->
     <g style="fill:#262626;" transform="translate(558.61875 123.050625)scale(0.12 -0.12)">
      <use xlink:href="#ArialMT-83"/>
      <use x="66.699219" xlink:href="#ArialMT-101"/>
      <use x="122.314453" xlink:href="#ArialMT-99"/>
      <use x="172.314453" xlink:href="#ArialMT-111"/>
      <use x="227.929688" xlink:href="#ArialMT-110"/>
      <use x="283.544922" xlink:href="#ArialMT-100"/>
      <use x="339.160156" xlink:href="#ArialMT-32"/>
      <use x="366.943359" xlink:href="#ArialMT-66"/>
      <use x="433.642578" xlink:href="#ArialMT-111"/>
      <use x="489.257812" xlink:href="#ArialMT-100"/>
      <use x="544.873047" xlink:href="#ArialMT-121"/>
     </g>
    </g>
    <g id="line2d_56">
     <path d="M 525.01875 135.965625 
L 549.01875 135.965625 
" style="fill:none;stroke:#4b0082;stroke-linecap:round;stroke-width:1.75;"/>
    </g>
    <g id="line2d_57"/>
    <g id="text_25">
     <!-- Third Body -->
     <g style="fill:#262626;" transform="translate(558.61875 140.165625)scale(0.12 -0.12)">
      <defs>
       <path d="M 25.921875 0 
L 25.921875 63.140625 
L 2.34375 63.140625 
L 2.34375 71.578125 
L 59.078125 71.578125 
L 59.078125 63.140625 
L 35.40625 63.140625 
L 35.40625 0 
z
" id="ArialMT-84"/>
      </defs>
      <use xlink:href="#ArialMT-84"/>
      <use x="61.083984" xlink:href="#ArialMT-104"/>
      <use x="116.699219" xlink:href="#ArialMT-105"/>
      <use x="138.916016" xlink:href="#ArialMT-114"/>
      <use x="172.216797" xlink:href="#ArialMT-100"/>
      <use x="227.832031" xlink:href="#ArialMT-32"/>
      <use x="255.615234" xlink:href="#ArialMT-66"/>
      <use x="322.314453" xlink:href="#ArialMT-111"/>
      <use x="377.929688" xlink:href="#ArialMT-100"/>
      <use x="433.544922" xlink:href="#ArialMT-121"/>
     </g>
    </g>
   </g>
  </g>
 </g>
 <defs>
  <clipPath id="pcf956d5fa6">
   <rect height="543.6" width="543.6" x="97.2" y="86.4"/>
  </clipPath>
 </defs>
</svg>
