<?xml version="1.0" encoding="utf-8" standalone="no"?>
<!DOCTYPE svg PUBLIC "-//W3C//DTD SVG 1.1//EN"
  "http://www.w3.org/Graphics/SVG/1.1/DTD/svg11.dtd">
<!-- Created with matplotlib (https://matplotlib.org/) -->
<svg height="720pt" version="1.1" viewBox="0 0 720 720" width="720pt" xmlns="http://www.w3.org/2000/svg" xmlns:xlink="http://www.w3.org/1999/xlink">
 <metadata>
  <rdf:RDF xmlns:cc="http://creativecommons.org/ns#" xmlns:dc="http://purl.org/dc/elements/1.1/" xmlns:rdf="http://www.w3.org/1999/02/22-rdf-syntax-ns#">
   <cc:Work>
    <dc:type rdf:resource="http://purl.org/dc/dcmitype/StillImage"/>
    <dc:date>2020-12-08T20:08:06.095394</dc:date>
    <dc:format>image/svg+xml</dc:format>
    <dc:creator>
     <cc:Agent>
      <dc:title>Matplotlib v3.3.1, https://matplotlib.org/</dc:title>
     </cc:Agent>
    </dc:creator>
   </cc:Work>
  </rdf:RDF>
 </metadata>
 <defs>
  <style type="text/css">*{stroke-linecap:butt;stroke-linejoin:round;}</style>
 </defs>
 <g id="figure_1">
  <g id="patch_1">
   <path d="M 0 720 
L 720 720 
L 720 0 
L 0 0 
z
" style="fill:#ffffff;"/>
  </g>
  <g id="patch_2">
   <path d="M 97.2 630 
L 640.8 630 
L 640.8 86.4 
L 97.2 86.4 
z
" style="fill:#eaeaf2;"/>
  </g>
  <g id="pane3d_1">
   <g id="patch_3">
    <path d="M 138.245549 495.965661 
L 317.760022 345.49307 
L 315.264599 128.484695 
L 127.159433 265.755277 
" style="fill:#f2f2f2;opacity:0.5;stroke:#f2f2f2;stroke-linejoin:miter;stroke-width:0.3;"/>
   </g>
  </g>
  <g id="pane3d_2">
   <g id="patch_4">
    <path d="M 317.760022 345.49307 
L 605.8167 429.219774 
L 616.096428 204.736794 
L 315.264599 128.484695 
" style="fill:#e6e6e6;opacity:0.5;stroke:#e6e6e6;stroke-linejoin:miter;stroke-width:0.3;"/>
   </g>
  </g>
  <g id="pane3d_3">
   <g id="patch_5">
    <path d="M 138.245549 495.965661 
L 443.599697 595.694325 
L 605.8167 429.219774 
L 317.760022 345.49307 
" style="fill:#ececec;opacity:0.5;stroke:#ececec;stroke-linejoin:miter;stroke-width:0.3;"/>
   </g>
  </g>
  <g id="axis3d_1">
   <g id="line2d_1">
    <path d="M 138.245549 495.965661 
L 443.599697 595.694325 
" style="fill:none;"/>
   </g>
   <g id="Line3DCollection_1">
    <path d="M 144.044859 497.859716 
L 323.254563 347.090116 
L 320.990948 129.936157 
" style="fill:none;stroke:#ffffff;"/>
    <path d="M 179.092784 509.306368 
L 356.440981 356.736098 
L 355.587266 138.705315 
" style="fill:none;stroke:#ffffff;"/>
    <path d="M 214.578673 520.896059 
L 390.007797 366.492646 
L 390.597251 147.579326 
" style="fill:none;stroke:#ffffff;"/>
    <path d="M 250.510786 532.631487 
L 423.961586 376.361672 
L 426.028366 156.560081 
" style="fill:none;stroke:#ffffff;"/>
    <path d="M 286.897593 544.515418 
L 458.309081 386.345133 
L 461.888257 165.649518 
" style="fill:none;stroke:#ffffff;"/>
    <path d="M 323.74778 556.550689 
L 493.057168 396.44503 
L 498.184754 174.849622 
" style="fill:none;stroke:#ffffff;"/>
    <path d="M 361.070255 568.740209 
L 528.212897 406.663412 
L 534.92588 184.162426 
" style="fill:none;stroke:#ffffff;"/>
    <path d="M 398.874156 581.086963 
L 563.783484 417.002377 
L 572.119855 193.590015 
" style="fill:none;stroke:#ffffff;"/>
    <path d="M 437.168858 593.594013 
L 599.776315 427.464073 
L 609.775104 203.134523 
" style="fill:none;stroke:#ffffff;"/>
   </g>
   <g id="xtick_1">
    <g id="line2d_2">
     <path clip-path="url(#p79305098f2)" d="M 376.345946 350.854054 
" style="fill:none;stroke:#ffffff;stroke-linecap:round;"/>
    </g>
    <g id="line2d_3">
     <path d="M 145.605122 496.547062 
L 140.917652 500.490643 
" style="fill:none;stroke:#262626;stroke-linecap:round;"/>
    </g>
    <g id="text_1">
     <!-- −2.0 -->
     <g style="fill:#262626;" transform="translate(124.359261 525.426426)scale(0.1 -0.1)">
      <defs>
       <path d="M 52.828125 31.203125 
L 5.5625 31.203125 
L 5.5625 39.40625 
L 52.828125 39.40625 
z
" id="ArialMT-8722"/>
       <path d="M 50.34375 8.453125 
L 50.34375 0 
L 3.03125 0 
Q 2.9375 3.171875 4.046875 6.109375 
Q 5.859375 10.9375 9.828125 15.625 
Q 13.8125 20.3125 21.34375 26.46875 
Q 33.015625 36.03125 37.109375 41.625 
Q 41.21875 47.21875 41.21875 52.203125 
Q 41.21875 57.421875 37.46875 61 
Q 33.734375 64.59375 27.734375 64.59375 
Q 21.390625 64.59375 17.578125 60.78125 
Q 13.765625 56.984375 13.71875 50.25 
L 4.6875 51.171875 
Q 5.609375 61.28125 11.65625 66.578125 
Q 17.71875 71.875 27.9375 71.875 
Q 38.234375 71.875 44.234375 66.15625 
Q 50.25 60.453125 50.25 52 
Q 50.25 47.703125 48.484375 43.546875 
Q 46.734375 39.40625 42.65625 34.8125 
Q 38.578125 30.21875 29.109375 22.21875 
Q 21.1875 15.578125 18.9375 13.203125 
Q 16.703125 10.84375 15.234375 8.453125 
z
" id="ArialMT-50"/>
       <path d="M 9.078125 0 
L 9.078125 10.015625 
L 19.09375 10.015625 
L 19.09375 0 
z
" id="ArialMT-46"/>
       <path d="M 4.15625 35.296875 
Q 4.15625 48 6.765625 55.734375 
Q 9.375 63.484375 14.515625 67.671875 
Q 19.671875 71.875 27.484375 71.875 
Q 33.25 71.875 37.59375 69.546875 
Q 41.9375 67.234375 44.765625 62.859375 
Q 47.609375 58.5 49.21875 52.21875 
Q 50.828125 45.953125 50.828125 35.296875 
Q 50.828125 22.703125 48.234375 14.96875 
Q 45.65625 7.234375 40.5 3 
Q 35.359375 -1.21875 27.484375 -1.21875 
Q 17.140625 -1.21875 11.234375 6.203125 
Q 4.15625 15.140625 4.15625 35.296875 
z
M 13.1875 35.296875 
Q 13.1875 17.671875 17.3125 11.828125 
Q 21.4375 6 27.484375 6 
Q 33.546875 6 37.671875 11.859375 
Q 41.796875 17.71875 41.796875 35.296875 
Q 41.796875 52.984375 37.671875 58.78125 
Q 33.546875 64.59375 27.390625 64.59375 
Q 21.34375 64.59375 17.71875 59.46875 
Q 13.1875 52.9375 13.1875 35.296875 
z
" id="ArialMT-48"/>
      </defs>
      <use xlink:href="#ArialMT-8722"/>
      <use x="58.398438" xlink:href="#ArialMT-50"/>
      <use x="114.013672" xlink:href="#ArialMT-46"/>
      <use x="141.796875" xlink:href="#ArialMT-48"/>
     </g>
    </g>
   </g>
   <g id="xtick_2">
    <g id="line2d_4">
     <path clip-path="url(#p79305098f2)" d="M 376.345946 350.854054 
" style="fill:none;stroke:#ffffff;stroke-linecap:round;"/>
    </g>
    <g id="line2d_5">
     <path d="M 180.637618 507.977368 
L 175.996461 511.970093 
" style="fill:none;stroke:#262626;stroke-linecap:round;"/>
    </g>
    <g id="text_2">
     <!-- −1.5 -->
     <g style="fill:#262626;" transform="translate(159.429502 537.027344)scale(0.1 -0.1)">
      <defs>
       <path d="M 37.25 0 
L 28.46875 0 
L 28.46875 56 
Q 25.296875 52.984375 20.140625 49.953125 
Q 14.984375 46.921875 10.890625 45.40625 
L 10.890625 53.90625 
Q 18.265625 57.375 23.78125 62.296875 
Q 29.296875 67.234375 31.59375 71.875 
L 37.25 71.875 
z
" id="ArialMT-49"/>
       <path d="M 4.15625 18.75 
L 13.375 19.53125 
Q 14.40625 12.796875 18.140625 9.390625 
Q 21.875 6 27.15625 6 
Q 33.5 6 37.890625 10.78125 
Q 42.28125 15.578125 42.28125 23.484375 
Q 42.28125 31 38.0625 35.34375 
Q 33.84375 39.703125 27 39.703125 
Q 22.75 39.703125 19.328125 37.765625 
Q 15.921875 35.84375 13.96875 32.765625 
L 5.71875 33.84375 
L 12.640625 70.609375 
L 48.25 70.609375 
L 48.25 62.203125 
L 19.671875 62.203125 
L 15.828125 42.96875 
Q 22.265625 47.46875 29.34375 47.46875 
Q 38.71875 47.46875 45.15625 40.96875 
Q 51.609375 34.46875 51.609375 24.265625 
Q 51.609375 14.546875 45.953125 7.46875 
Q 39.0625 -1.21875 27.15625 -1.21875 
Q 17.390625 -1.21875 11.203125 4.25 
Q 5.03125 9.71875 4.15625 18.75 
z
" id="ArialMT-53"/>
      </defs>
      <use xlink:href="#ArialMT-8722"/>
      <use x="58.398438" xlink:href="#ArialMT-49"/>
      <use x="114.013672" xlink:href="#ArialMT-46"/>
      <use x="141.796875" xlink:href="#ArialMT-53"/>
     </g>
    </g>
   </g>
   <g id="xtick_3">
    <g id="line2d_6">
     <path clip-path="url(#p79305098f2)" d="M 376.345946 350.854054 
" style="fill:none;stroke:#ffffff;stroke-linecap:round;"/>
    </g>
    <g id="line2d_7">
     <path d="M 216.107569 519.550406 
L 211.514254 523.593199 
" style="fill:none;stroke:#262626;stroke-linecap:round;"/>
    </g>
    <g id="text_3">
     <!-- −1.0 -->
     <g style="fill:#262626;" transform="translate(194.939035 548.773577)scale(0.1 -0.1)">
      <use xlink:href="#ArialMT-8722"/>
      <use x="58.398438" xlink:href="#ArialMT-49"/>
      <use x="114.013672" xlink:href="#ArialMT-46"/>
      <use x="141.796875" xlink:href="#ArialMT-48"/>
     </g>
    </g>
   </g>
   <g id="xtick_4">
    <g id="line2d_8">
     <path clip-path="url(#p79305098f2)" d="M 376.345946 350.854054 
" style="fill:none;stroke:#ffffff;stroke-linecap:round;"/>
    </g>
    <g id="line2d_9">
     <path d="M 252.02322 531.268866 
L 247.479321 535.362674 
" style="fill:none;stroke:#262626;stroke-linecap:round;"/>
    </g>
    <g id="text_4">
     <!-- −0.5 -->
     <g style="fill:#262626;" transform="translate(230.896164 560.66787)scale(0.1 -0.1)">
      <use xlink:href="#ArialMT-8722"/>
      <use x="58.398438" xlink:href="#ArialMT-48"/>
      <use x="114.013672" xlink:href="#ArialMT-46"/>
      <use x="141.796875" xlink:href="#ArialMT-53"/>
     </g>
    </g>
   </g>
   <g id="xtick_5">
    <g id="line2d_10">
     <path clip-path="url(#p79305098f2)" d="M 376.345946 350.854054 
" style="fill:none;stroke:#ffffff;stroke-linecap:round;"/>
    </g>
    <g id="line2d_11">
     <path d="M 288.393025 543.135506 
L 283.900165 547.281301 
" style="fill:none;stroke:#262626;stroke-linecap:round;"/>
    </g>
    <g id="text_5">
     <!-- 0.0 -->
     <g style="fill:#262626;" transform="translate(270.229721 572.713042)scale(0.1 -0.1)">
      <use xlink:href="#ArialMT-48"/>
      <use x="55.615234" xlink:href="#ArialMT-46"/>
      <use x="83.398438" xlink:href="#ArialMT-48"/>
     </g>
    </g>
   </g>
   <g id="xtick_6">
    <g id="line2d_12">
     <path clip-path="url(#p79305098f2)" d="M 376.345946 350.854054 
" style="fill:none;stroke:#ffffff;stroke-linecap:round;"/>
    </g>
    <g id="line2d_13">
     <path d="M 325.225652 555.153155 
L 320.785506 559.351933 
" style="fill:none;stroke:#262626;stroke-linecap:round;"/>
    </g>
    <g id="text_6">
     <!-- 0.5 -->
     <g style="fill:#262626;" transform="translate(307.107813 584.911982)scale(0.1 -0.1)">
      <use xlink:href="#ArialMT-48"/>
      <use x="55.615234" xlink:href="#ArialMT-46"/>
      <use x="83.398438" xlink:href="#ArialMT-53"/>
     </g>
    </g>
   </g>
   <g id="xtick_7">
    <g id="line2d_14">
     <path clip-path="url(#p79305098f2)" d="M 376.345946 350.854054 
" style="fill:none;stroke:#ffffff;stroke-linecap:round;"/>
    </g>
    <g id="line2d_15">
     <path d="M 362.529994 567.324713 
L 358.144285 571.577497 
" style="fill:none;stroke:#262626;stroke-linecap:round;"/>
    </g>
    <g id="text_7">
     <!-- 1.0 -->
     <g style="fill:#262626;" transform="translate(344.459711 597.267652)scale(0.1 -0.1)">
      <use xlink:href="#ArialMT-49"/>
      <use x="55.615234" xlink:href="#ArialMT-46"/>
      <use x="83.398438" xlink:href="#ArialMT-48"/>
     </g>
    </g>
   </g>
   <g id="xtick_8">
    <g id="line2d_16">
     <path clip-path="url(#p79305098f2)" d="M 376.345946 350.854054 
" style="fill:none;stroke:#ffffff;stroke-linecap:round;"/>
    </g>
    <g id="line2d_17">
     <path d="M 400.31517 579.653156 
L 395.985678 583.960995 
" style="fill:none;stroke:#262626;stroke-linecap:round;"/>
    </g>
    <g id="text_8">
     <!-- 1.5 -->
     <g style="fill:#262626;" transform="translate(382.294607 609.783093)scale(0.1 -0.1)">
      <use xlink:href="#ArialMT-49"/>
      <use x="55.615234" xlink:href="#ArialMT-46"/>
      <use x="83.398438" xlink:href="#ArialMT-53"/>
     </g>
    </g>
   </g>
   <g id="xtick_9">
    <g id="line2d_18">
     <path clip-path="url(#p79305098f2)" d="M 376.345946 350.854054 
" style="fill:none;stroke:#ffffff;stroke-linecap:round;"/>
    </g>
    <g id="line2d_19">
     <path d="M 438.590537 592.141537 
L 434.319097 596.505507 
" style="fill:none;stroke:#262626;stroke-linecap:round;"/>
    </g>
    <g id="text_9">
     <!-- 2.0 -->
     <g style="fill:#262626;" transform="translate(420.621928 622.461425)scale(0.1 -0.1)">
      <use xlink:href="#ArialMT-50"/>
      <use x="55.615234" xlink:href="#ArialMT-46"/>
      <use x="83.398438" xlink:href="#ArialMT-48"/>
     </g>
    </g>
   </g>
  </g>
  <g id="axis3d_2">
   <g id="line2d_20">
    <path d="M 605.8167 429.219774 
L 443.599697 595.694325 
" style="fill:none;"/>
   </g>
   <g id="Line3DCollection_2">
    <path d="M 131.264223 262.759788 
L 142.148351 492.694254 
L 447.141702 592.059357 
" style="fill:none;stroke:#ffffff;"/>
    <path d="M 155.576014 245.01815 
L 165.277053 473.307318 
L 468.118275 570.532233 
" style="fill:none;stroke:#ffffff;"/>
    <path d="M 179.357303 227.663649 
L 187.923013 454.325025 
L 488.63388 549.478175 
" style="fill:none;stroke:#ffffff;"/>
    <path d="M 202.625264 210.683751 
L 210.101189 435.734838 
L 508.703548 528.881759 
" style="fill:none;stroke:#ffffff;"/>
    <path d="M 225.396343 194.066455 
L 231.825927 417.524732 
L 528.341661 508.728224 
" style="fill:none;stroke:#ffffff;"/>
    <path d="M 247.686286 177.800269 
L 253.110992 399.683169 
L 547.561991 489.003437 
" style="fill:none;stroke:#ffffff;"/>
    <path d="M 269.510183 161.874183 
L 273.969598 382.199071 
L 566.377729 469.693861 
" style="fill:none;stroke:#ffffff;"/>
    <path d="M 290.882501 146.277639 
L 294.414435 365.061804 
L 584.801518 450.786521 
" style="fill:none;stroke:#ffffff;"/>
    <path d="M 311.81711 131.000515 
L 314.457692 348.261148 
L 602.845478 432.268979 
" style="fill:none;stroke:#ffffff;"/>
   </g>
   <g id="xtick_10">
    <g id="line2d_21">
     <path clip-path="url(#p79305098f2)" d="M 376.345946 350.854054 
" style="fill:none;stroke:#ffffff;stroke-linecap:round;"/>
    </g>
    <g id="line2d_22">
     <path d="M 444.570982 591.221831 
L 452.289817 593.736584 
" style="fill:none;stroke:#262626;stroke-linecap:round;"/>
    </g>
    <g id="text_10">
     <!-- −2.0 -->
     <g style="fill:#262626;" transform="translate(454.13428 616.796589)scale(0.1 -0.1)">
      <use xlink:href="#ArialMT-8722"/>
      <use x="58.398438" xlink:href="#ArialMT-50"/>
      <use x="114.013672" xlink:href="#ArialMT-46"/>
      <use x="141.796875" xlink:href="#ArialMT-48"/>
     </g>
    </g>
   </g>
   <g id="xtick_11">
    <g id="line2d_23">
     <path clip-path="url(#p79305098f2)" d="M 376.345946 350.854054 
" style="fill:none;stroke:#ffffff;stroke-linecap:round;"/>
    </g>
    <g id="line2d_24">
     <path d="M 465.567137 569.713209 
L 473.227102 572.172384 
" style="fill:none;stroke:#262626;stroke-linecap:round;"/>
    </g>
    <g id="text_11">
     <!-- −1.5 -->
     <g style="fill:#262626;" transform="translate(474.931401 595.065917)scale(0.1 -0.1)">
      <use xlink:href="#ArialMT-8722"/>
      <use x="58.398438" xlink:href="#ArialMT-49"/>
      <use x="114.013672" xlink:href="#ArialMT-46"/>
      <use x="141.796875" xlink:href="#ArialMT-53"/>
     </g>
    </g>
   </g>
   <g id="xtick_12">
    <g id="line2d_25">
     <path clip-path="url(#p79305098f2)" d="M 376.345946 350.854054 
" style="fill:none;stroke:#ffffff;stroke-linecap:round;"/>
    </g>
    <g id="line2d_26">
     <path d="M 486.102089 548.677046 
L 493.703893 551.082466 
" style="fill:none;stroke:#262626;stroke-linecap:round;"/>
    </g>
    <g id="text_12">
     <!-- −1.0 -->
     <g style="fill:#262626;" transform="translate(495.271327 573.812964)scale(0.1 -0.1)">
      <use xlink:href="#ArialMT-8722"/>
      <use x="58.398438" xlink:href="#ArialMT-49"/>
      <use x="114.013672" xlink:href="#ArialMT-46"/>
      <use x="141.796875" xlink:href="#ArialMT-48"/>
     </g>
    </g>
   </g>
   <g id="xtick_13">
    <g id="line2d_27">
     <path clip-path="url(#p79305098f2)" d="M 376.345946 350.854054 
" style="fill:none;stroke:#ffffff;stroke-linecap:round;"/>
    </g>
    <g id="line2d_28">
     <path d="M 506.190869 528.097946 
L 513.735218 530.451353 
" style="fill:none;stroke:#262626;stroke-linecap:round;"/>
    </g>
    <g id="text_13">
     <!-- −0.5 -->
     <g style="fill:#262626;" transform="translate(515.168968 553.022147)scale(0.1 -0.1)">
      <use xlink:href="#ArialMT-8722"/>
      <use x="58.398438" xlink:href="#ArialMT-48"/>
      <use x="114.013672" xlink:href="#ArialMT-46"/>
      <use x="141.796875" xlink:href="#ArialMT-53"/>
     </g>
    </g>
   </g>
   <g id="xtick_14">
    <g id="line2d_29">
     <path clip-path="url(#p79305098f2)" d="M 376.345946 350.854054 
" style="fill:none;stroke:#ffffff;stroke-linecap:round;"/>
    </g>
    <g id="line2d_30">
     <path d="M 525.847862 507.961171 
L 533.335455 510.264235 
" style="fill:none;stroke:#262626;stroke-linecap:round;"/>
    </g>
    <g id="text_14">
     <!-- 0.0 -->
     <g style="fill:#262626;" transform="translate(537.55891 532.678556)scale(0.1 -0.1)">
      <use xlink:href="#ArialMT-48"/>
      <use x="55.615234" xlink:href="#ArialMT-46"/>
      <use x="83.398438" xlink:href="#ArialMT-48"/>
     </g>
    </g>
   </g>
   <g id="xtick_15">
    <g id="line2d_31">
     <path clip-path="url(#p79305098f2)" d="M 376.345946 350.854054 
" style="fill:none;stroke:#ffffff;stroke-linecap:round;"/>
    </g>
    <g id="line2d_32">
     <path d="M 545.086842 488.252613 
L 552.518373 490.506931 
" style="fill:none;stroke:#262626;stroke-linecap:round;"/>
    </g>
    <g id="text_15">
     <!-- 0.5 -->
     <g style="fill:#262626;" transform="translate(556.61419 512.767914)scale(0.1 -0.1)">
      <use xlink:href="#ArialMT-48"/>
      <use x="55.615234" xlink:href="#ArialMT-46"/>
      <use x="83.398438" xlink:href="#ArialMT-53"/>
     </g>
    </g>
   </g>
   <g id="xtick_16">
    <g id="line2d_33">
     <path clip-path="url(#p79305098f2)" d="M 376.345946 350.854054 
" style="fill:none;stroke:#ffffff;stroke-linecap:round;"/>
    </g>
    <g id="line2d_34">
     <path d="M 563.921001 468.958755 
L 571.29716 471.16586 
" style="fill:none;stroke:#262626;stroke-linecap:round;"/>
    </g>
    <g id="text_16">
     <!-- 1.0 -->
     <g style="fill:#262626;" transform="translate(575.268209 493.276545)scale(0.1 -0.1)">
      <use xlink:href="#ArialMT-49"/>
      <use x="55.615234" xlink:href="#ArialMT-46"/>
      <use x="83.398438" xlink:href="#ArialMT-48"/>
     </g>
    </g>
   </g>
   <g id="xtick_17">
    <g id="line2d_35">
     <path clip-path="url(#p79305098f2)" d="M 376.345946 350.854054 
" style="fill:none;stroke:#ffffff;stroke-linecap:round;"/>
    </g>
    <g id="line2d_36">
     <path d="M 582.362985 450.066646 
L 589.684454 452.228005 
" style="fill:none;stroke:#262626;stroke-linecap:round;"/>
    </g>
    <g id="text_17">
     <!-- 1.5 -->
     <g style="fill:#262626;" transform="translate(593.533509 474.191344)scale(0.1 -0.1)">
      <use xlink:href="#ArialMT-49"/>
      <use x="55.615234" xlink:href="#ArialMT-46"/>
      <use x="83.398438" xlink:href="#ArialMT-53"/>
     </g>
    </g>
   </g>
   <g id="xtick_18">
    <g id="line2d_37">
     <path clip-path="url(#p79305098f2)" d="M 376.345946 350.854054 
" style="fill:none;stroke:#ffffff;stroke-linecap:round;"/>
    </g>
    <g id="line2d_38">
     <path d="M 600.424916 431.563865 
L 607.69237 433.680886 
" style="fill:none;stroke:#262626;stroke-linecap:round;"/>
    </g>
    <g id="text_18">
     <!-- 2.0 -->
     <g style="fill:#262626;" transform="translate(611.422114 455.499746)scale(0.1 -0.1)">
      <use xlink:href="#ArialMT-50"/>
      <use x="55.615234" xlink:href="#ArialMT-46"/>
      <use x="83.398438" xlink:href="#ArialMT-48"/>
     </g>
    </g>
   </g>
  </g>
  <g id="axis3d_3">
   <g id="line2d_39">
    <path d="M 605.8167 429.219774 
L 616.096428 204.736794 
" style="fill:none;"/>
   </g>
   <g id="Line3DCollection_3">
    <path d="M 606.013648 424.918928 
L 317.712113 341.326812 
L 138.033502 491.562373 
" style="fill:none;stroke:#ffffff;"/>
    <path d="M 607.202474 398.958018 
L 317.423008 316.185466 
L 136.753248 464.977059 
" style="fill:none;stroke:#ffffff;"/>
    <path d="M 608.403671 372.726947 
L 317.131037 290.794963 
L 135.459163 438.10456 
" style="fill:none;stroke:#ffffff;"/>
    <path d="M 609.617433 346.221476 
L 316.836159 265.15158 
L 134.151024 410.940198 
" style="fill:none;stroke:#ffffff;"/>
    <path d="M 610.84396 319.437277 
L 316.538329 239.251522 
L 132.828599 383.479192 
" style="fill:none;stroke:#ffffff;"/>
    <path d="M 612.083452 292.369931 
L 316.237503 213.090914 
L 131.491654 355.716657 
" style="fill:none;stroke:#ffffff;"/>
    <path d="M 613.336117 265.014922 
L 315.933635 186.665805 
L 130.139947 327.647598 
" style="fill:none;stroke:#ffffff;"/>
    <path d="M 614.602166 237.367642 
L 315.62668 159.972164 
L 128.773234 299.266911 
" style="fill:none;stroke:#ffffff;"/>
    <path d="M 615.881815 209.42338 
L 315.316589 133.005877 
L 127.391263 270.569377 
" style="fill:none;stroke:#ffffff;"/>
   </g>
   <g id="xtick_19">
    <g id="line2d_40">
     <path clip-path="url(#p79305098f2)" d="M 376.345946 350.854054 
" style="fill:none;stroke:#ffffff;stroke-linecap:round;"/>
    </g>
    <g id="line2d_41">
     <path d="M 603.593907 424.217332 
L 610.858891 426.323791 
" style="fill:none;stroke:#262626;stroke-linecap:round;"/>
    </g>
    <g id="text_19">
     <!-- −2.0 -->
     <g style="fill:#262626;" transform="translate(619.991768 428.680568)scale(0.1 -0.1)">
      <use xlink:href="#ArialMT-8722"/>
      <use x="58.398438" xlink:href="#ArialMT-50"/>
      <use x="114.013672" xlink:href="#ArialMT-46"/>
      <use x="141.796875" xlink:href="#ArialMT-48"/>
     </g>
    </g>
   </g>
   <g id="xtick_20">
    <g id="line2d_42">
     <path clip-path="url(#p79305098f2)" d="M 376.345946 350.854054 
" style="fill:none;stroke:#ffffff;stroke-linecap:round;"/>
    </g>
    <g id="line2d_43">
     <path d="M 604.769739 398.263132 
L 612.073765 400.349453 
" style="fill:none;stroke:#262626;stroke-linecap:round;"/>
    </g>
    <g id="text_20">
     <!-- −1.5 -->
     <g style="fill:#262626;" transform="translate(621.301509 402.752166)scale(0.1 -0.1)">
      <use xlink:href="#ArialMT-8722"/>
      <use x="58.398438" xlink:href="#ArialMT-49"/>
      <use x="114.013672" xlink:href="#ArialMT-46"/>
      <use x="141.796875" xlink:href="#ArialMT-53"/>
     </g>
    </g>
   </g>
   <g id="xtick_21">
    <g id="line2d_44">
     <path clip-path="url(#p79305098f2)" d="M 376.345946 350.854054 
" style="fill:none;stroke:#ffffff;stroke-linecap:round;"/>
    </g>
    <g id="line2d_45">
     <path d="M 605.957802 372.038949 
L 613.301291 374.104597 
" style="fill:none;stroke:#262626;stroke-linecap:round;"/>
    </g>
    <g id="text_21">
     <!-- −1.0 -->
     <g style="fill:#262626;" transform="translate(622.624854 376.554465)scale(0.1 -0.1)">
      <use xlink:href="#ArialMT-8722"/>
      <use x="58.398438" xlink:href="#ArialMT-49"/>
      <use x="114.013672" xlink:href="#ArialMT-46"/>
      <use x="141.796875" xlink:href="#ArialMT-48"/>
     </g>
    </g>
   </g>
   <g id="xtick_22">
    <g id="line2d_46">
     <path clip-path="url(#p79305098f2)" d="M 376.345946 350.854054 
" style="fill:none;stroke:#ffffff;stroke-linecap:round;"/>
    </g>
    <g id="line2d_47">
     <path d="M 607.158288 345.540549 
L 614.541669 347.584976 
" style="fill:none;stroke:#262626;stroke-linecap:round;"/>
    </g>
    <g id="text_22">
     <!-- −0.5 -->
     <g style="fill:#262626;" transform="translate(623.962016 350.083247)scale(0.1 -0.1)">
      <use xlink:href="#ArialMT-8722"/>
      <use x="58.398438" xlink:href="#ArialMT-48"/>
      <use x="114.013672" xlink:href="#ArialMT-46"/>
      <use x="141.796875" xlink:href="#ArialMT-53"/>
     </g>
    </g>
   </g>
   <g id="xtick_23">
    <g id="line2d_48">
     <path clip-path="url(#p79305098f2)" d="M 376.345946 350.854054 
" style="fill:none;stroke:#ffffff;stroke-linecap:round;"/>
    </g>
    <g id="line2d_49">
     <path d="M 608.371393 318.763608 
L 615.795102 320.786253 
" style="fill:none;stroke:#262626;stroke-linecap:round;"/>
    </g>
    <g id="text_23">
     <!-- 0.0 -->
     <g style="fill:#262626;" transform="translate(628.233523 323.334207)scale(0.1 -0.1)">
      <use xlink:href="#ArialMT-48"/>
      <use x="55.615234" xlink:href="#ArialMT-46"/>
      <use x="83.398438" xlink:href="#ArialMT-48"/>
     </g>
    </g>
   </g>
   <g id="xtick_24">
    <g id="line2d_50">
     <path clip-path="url(#p79305098f2)" d="M 376.345946 350.854054 
" style="fill:none;stroke:#ffffff;stroke-linecap:round;"/>
    </g>
    <g id="line2d_51">
     <path d="M 609.597318 291.703711 
L 617.061795 293.703997 
" style="fill:none;stroke:#262626;stroke-linecap:round;"/>
    </g>
    <g id="text_24">
     <!-- 0.5 -->
     <g style="fill:#262626;" transform="translate(629.598975 296.302947)scale(0.1 -0.1)">
      <use xlink:href="#ArialMT-48"/>
      <use x="55.615234" xlink:href="#ArialMT-46"/>
      <use x="83.398438" xlink:href="#ArialMT-53"/>
     </g>
    </g>
   </g>
   <g id="xtick_25">
    <g id="line2d_52">
     <path clip-path="url(#p79305098f2)" d="M 376.345946 350.854054 
" style="fill:none;stroke:#ffffff;stroke-linecap:round;"/>
    </g>
    <g id="line2d_53">
     <path d="M 610.836265 264.356349 
L 618.341962 266.333686 
" style="fill:none;stroke:#262626;stroke-linecap:round;"/>
    </g>
    <g id="text_25">
     <!-- 1.0 -->
     <g style="fill:#262626;" transform="translate(630.978908 268.984977)scale(0.1 -0.1)">
      <use xlink:href="#ArialMT-49"/>
      <use x="55.615234" xlink:href="#ArialMT-46"/>
      <use x="83.398438" xlink:href="#ArialMT-48"/>
     </g>
    </g>
   </g>
   <g id="xtick_26">
    <g id="line2d_54">
     <path clip-path="url(#p79305098f2)" d="M 376.345946 350.854054 
" style="fill:none;stroke:#ffffff;stroke-linecap:round;"/>
    </g>
    <g id="line2d_55">
     <path d="M 612.088445 236.716917 
L 619.635817 238.670698 
" style="fill:none;stroke:#262626;stroke-linecap:round;"/>
    </g>
    <g id="text_26">
     <!-- 1.5 -->
     <g style="fill:#262626;" transform="translate(632.373557 241.375712)scale(0.1 -0.1)">
      <use xlink:href="#ArialMT-49"/>
      <use x="55.615234" xlink:href="#ArialMT-46"/>
      <use x="83.398438" xlink:href="#ArialMT-53"/>
     </g>
    </g>
   </g>
   <g id="xtick_27">
    <g id="line2d_56">
     <path clip-path="url(#p79305098f2)" d="M 376.345946 350.854054 
" style="fill:none;stroke:#ffffff;stroke-linecap:round;"/>
    </g>
    <g id="line2d_57">
     <path d="M 613.354069 208.780711 
L 620.943583 210.710314 
" style="fill:none;stroke:#262626;stroke-linecap:round;"/>
    </g>
    <g id="text_27">
     <!-- 2.0 -->
     <g style="fill:#262626;" transform="translate(633.783156 213.470467)scale(0.1 -0.1)">
      <use xlink:href="#ArialMT-50"/>
      <use x="55.615234" xlink:href="#ArialMT-46"/>
      <use x="83.398438" xlink:href="#ArialMT-48"/>
     </g>
    </g>
   </g>
  </g>
  <g id="axes_1">
   <g id="line2d_58">
    <path clip-path="url(#p79305098f2)" d="M 489.999455 335.627371 
L 492.521976 338.344843 
L 494.749626 341.067881 
L 496.70338 343.805347 
L 498.379277 346.533493 
L 499.79604 349.262602 
L 500.960057 351.986732 
L 501.87797 354.700333 
L 502.556673 357.398236 
L 503.005417 360.092675 
L 503.227281 362.779011 
L 503.225514 365.45275 
L 503.001579 368.126295 
L 502.555138 370.794998 
L 501.881313 373.470638 
L 500.976344 376.147959 
L 499.83691 378.821566 
L 498.451315 381.501669 
L 496.813299 384.181774 
L 494.9171 386.855 
L 492.744815 389.528914 
L 490.30222 392.180511 
L 487.570311 394.815895 
L 484.542458 397.425605 
L 481.213013 399.999757 
L 477.57738 402.527997 
L 473.632083 404.999506 
L 469.374868 407.403064 
L 464.804783 409.727054 
L 459.922278 411.959474 
L 454.729291 414.087968 
L 449.22935 416.099847 
L 443.45377 417.974167 
L 437.411959 419.700006 
L 431.114808 421.266385 
L 424.603022 422.656753 
L 417.863514 423.867383 
L 410.94111 424.883579 
L 403.883979 425.694299 
L 396.712727 426.294416 
L 389.448654 426.679182 
L 382.144247 426.843986 
L 374.822548 426.787629 
L 367.506781 426.509393 
L 360.250457 426.011577 
L 353.076255 425.297172 
L 346.035886 424.373964 
L 339.149951 423.248505 
L 332.43811 421.927718 
L 325.919004 420.418885 
L 319.637461 418.737386 
L 318.98593 418.549387 
L 318.98593 418.549387 
" style="fill:none;stroke:#4682b4;stroke-linecap:round;stroke-width:1.75;"/>
   </g>
   <g id="line2d_59">
    <path clip-path="url(#p79305098f2)" d="M 318.98593 418.549387 
" style="fill:none;stroke:#4682b4;stroke-linecap:round;stroke-width:1.75;"/>
    <defs>
     <path d="M 0 3.5 
C 0.928211 3.5 1.81853 3.131218 2.474874 2.474874 
C 3.131218 1.81853 3.5 0.928211 3.5 0 
C 3.5 -0.928211 3.131218 -1.81853 2.474874 -2.474874 
C 1.81853 -3.131218 0.928211 -3.5 0 -3.5 
C -0.928211 -3.5 -1.81853 -3.131218 -2.474874 -2.474874 
C -3.131218 -1.81853 -3.5 -0.928211 -3.5 0 
C -3.5 0.928211 -3.131218 1.81853 -2.474874 2.474874 
C -1.81853 3.131218 -0.928211 3.5 0 3.5 
z
" id="mbbea383879"/>
    </defs>
    <g clip-path="url(#p79305098f2)">
     <use style="fill:#4682b4;" x="318.98593" xlink:href="#mbbea383879" y="418.549387"/>
    </g>
   </g>
   <g id="line2d_60">
    <path clip-path="url(#p79305098f2)" d="M 260.614952 366.359067 
L 258.516636 363.668714 
L 256.708025 360.992319 
L 255.166952 358.319927 
L 253.87741 355.640688 
L 252.841052 352.9774 
L 252.044336 350.318362 
L 251.482444 347.66863 
L 251.150289 345.032969 
L 251.042545 342.399153 
L 251.157793 339.771859 
L 251.494336 337.155671 
L 252.054257 334.538943 
L 252.844611 331.91089 
L 253.870471 329.27747 
L 255.136328 326.644816 
L 256.646052 324.019214 
L 258.413454 321.392402 
L 260.456547 318.757721 
L 262.771342 316.138248 
L 265.376567 313.528881 
L 268.279298 310.93958 
L 271.485532 308.380697 
L 275.000125 305.862931 
L 278.826718 303.397302 
L 282.967713 300.995224 
L 287.424222 298.668423 
L 292.196016 296.428921 
L 297.281474 294.28903 
L 302.677526 292.261342 
L 308.355557 290.366258 
L 314.307296 288.614703 
L 320.523195 287.017719 
L 326.992368 285.586463 
L 333.676072 284.336707 
L 340.532349 283.281115 
L 347.571122 282.423319 
L 354.720103 281.776364 
L 361.959578 281.344124 
L 369.269365 281.130355 
L 376.600707 281.13823 
L 383.93221 281.368664 
L 391.214565 281.820229 
L 398.399056 282.487918 
L 405.465543 283.367007 
L 412.394191 284.452593 
L 419.139211 285.734087 
L 425.657384 287.197446 
L 429.466559 288.161994 
L 429.466559 288.161994 
" style="fill:none;stroke:#2e8b57;stroke-linecap:round;stroke-width:1.75;"/>
   </g>
   <g id="line2d_61">
    <path clip-path="url(#p79305098f2)" d="M 429.466559 288.161994 
" style="fill:none;stroke:#2e8b57;stroke-linecap:round;stroke-width:1.75;"/>
    <defs>
     <path d="M 0 3.5 
C 0.928211 3.5 1.81853 3.131218 2.474874 2.474874 
C 3.131218 1.81853 3.5 0.928211 3.5 0 
C 3.5 -0.928211 3.131218 -1.81853 2.474874 -2.474874 
C 1.81853 -3.131218 0.928211 -3.5 0 -3.5 
C -0.928211 -3.5 -1.81853 -3.131218 -2.474874 -2.474874 
C -3.131218 -1.81853 -3.5 -0.928211 -3.5 0 
C -3.5 0.928211 -3.131218 1.81853 -2.474874 2.474874 
C -1.81853 3.131218 -0.928211 3.5 0 3.5 
z
" id="mcb31295527"/>
    </defs>
    <g clip-path="url(#p79305098f2)">
     <use style="fill:#2e8b57;" x="429.466559" xlink:href="#mcb31295527" y="288.161994"/>
    </g>
   </g>
   <g id="line2d_62">
    <path clip-path="url(#p79305098f2)" d="M 376.345946 350.854054 
L 375.298462 358.648018 
L 374.454751 363.191085 
L 373.487241 367.19898 
L 372.337382 371.008199 
L 370.993567 374.692888 
L 369.459178 378.255282 
L 367.721697 381.72841 
L 365.729091 385.210666 
L 363.145252 389.252087 
L 360.60721 393.265142 
L 360.442773 393.907774 
L 360.5728 394.171971 
L 360.89705 394.287869 
L 361.588686 394.261627 
L 363.10091 393.943947 
L 366.994918 392.856667 
L 376.464271 390.199696 
L 382.556002 388.74602 
L 388.705168 387.507286 
L 395.153901 386.436561 
L 401.668711 385.580794 
L 408.134982 384.953836 
L 414.556439 384.551839 
L 420.923581 384.37515 
L 427.28062 384.419756 
L 433.403352 384.682719 
L 439.243999 385.151346 
L 444.897917 385.823864 
L 450.251575 386.67847 
L 455.22426 387.690426 
L 459.978773 388.881737 
L 464.432089 390.226311 
L 468.50725 391.686481 
L 472.145051 393.21657 
L 475.433929 394.831825 
L 478.342893 396.498879 
L 480.959895 398.255081 
L 483.160147 399.988745 
L 485.14563 401.837526 
L 486.811018 403.693563 
L 488.170397 405.52959 
L 489.29834 407.421143 
L 490.183983 409.350311 
L 490.794476 411.197935 
L 491.204229 413.157842 
L 491.383766 415.115239 
L 491.345193 417.059076 
L 491.083559 419.080217 
L 490.583066 421.165132 
L 489.833541 423.299781 
L 488.832014 425.470569 
L 487.525403 427.755022 
L 485.956499 430.046025 
L 484.061237 432.416451 
L 481.830899 434.845707 
L 479.263505 437.313381 
L 476.274756 439.871339 
L 472.95036 442.423661 
L 469.201853 445.021056 
L 465.034764 447.639254 
L 460.359494 450.308723 
L 455.286717 452.9457 
L 449.733216 455.578732 
L 443.718949 458.18038 
L 437.367211 460.686462 
L 430.491507 463.156431 
L 423.327706 465.4933 
L 415.798745 467.716118 
L 407.833758 469.833108 
L 399.56977 471.797506 
L 391.039917 473.596078 
L 382.27419 475.215461 
L 373.393888 476.627665 
L 364.430693 477.829458 
L 355.413428 478.8155 
L 346.370766 479.581237 
L 337.331876 480.123057 
L 328.408148 480.436108 
L 319.620322 480.523824 
L 310.988187 480.388811 
L 302.603762 480.036525 
L 294.545908 479.47803 
L 286.748073 478.71587 
L 279.291431 477.765431 
L 272.244155 476.645783 
L 265.603675 475.369181 
L 259.367258 473.947036 
L 253.532018 472.389947 
L 248.143675 470.723934 
L 243.189446 468.961659 
L 238.656342 467.114737 
L 234.57045 465.213367 
L 230.872857 463.249798 
L 227.583137 461.254357 
L 224.678455 459.237879 
L 222.108996 457.187099 
L 219.885053 455.132761 
L 217.963717 453.058749 
L 216.379672 451.023294 
L 215.074114 448.983868 
L 214.045997 446.972205 
L 213.265729 444.967604 
L 212.716754 442.946768 
L 212.401344 440.941103 
L 212.310412 438.926027 
L 212.444462 436.904338 
L 212.804418 434.878811 
L 213.391485 432.85218 
L 214.22125 430.796236 
L 215.306674 428.712407 
L 216.661715 426.602204 
L 218.301317 424.467223 
L 218.328023 424.435178 
L 218.328023 424.435178 
" style="fill:none;stroke:#4b0082;stroke-linecap:round;stroke-width:1.75;"/>
   </g>
   <g id="line2d_63">
    <path clip-path="url(#p79305098f2)" d="M 218.328023 424.435178 
" style="fill:none;stroke:#4b0082;stroke-linecap:round;stroke-width:1.75;"/>
    <defs>
     <path d="M 0 3.5 
C 0.928211 3.5 1.81853 3.131218 2.474874 2.474874 
C 3.131218 1.81853 3.5 0.928211 3.5 0 
C 3.5 -0.928211 3.131218 -1.81853 2.474874 -2.474874 
C 1.81853 -3.131218 0.928211 -3.5 0 -3.5 
C -0.928211 -3.5 -1.81853 -3.131218 -2.474874 -2.474874 
C -3.131218 -1.81853 -3.5 -0.928211 -3.5 0 
C -3.5 0.928211 -3.131218 1.81853 -2.474874 2.474874 
C -1.81853 3.131218 -0.928211 3.5 0 3.5 
z
" id="m7c3579563a"/>
    </defs>
    <g clip-path="url(#p79305098f2)">
     <use style="fill:#4b0082;" x="218.328023" xlink:href="#m7c3579563a" y="424.435178"/>
    </g>
   </g>
   <g id="text_28">
    <!-- Non-Differentiable Trajectory  -->
    <g style="fill:#262626;" transform="translate(265.1025 63.0555)scale(0.16 -0.16)">
     <defs>
      <path d="M 7.625 0 
L 7.625 71.578125 
L 17.328125 71.578125 
L 54.9375 15.375 
L 54.9375 71.578125 
L 64.015625 71.578125 
L 64.015625 0 
L 54.296875 0 
L 16.703125 56.25 
L 16.703125 0 
z
" id="ArialMT-78"/>
      <path d="M 3.328125 25.921875 
Q 3.328125 40.328125 11.328125 47.265625 
Q 18.015625 53.03125 27.640625 53.03125 
Q 38.328125 53.03125 45.109375 46.015625 
Q 51.90625 39.015625 51.90625 26.65625 
Q 51.90625 16.65625 48.90625 10.90625 
Q 45.90625 5.171875 40.15625 2 
Q 34.421875 -1.171875 27.640625 -1.171875 
Q 16.75 -1.171875 10.03125 5.8125 
Q 3.328125 12.796875 3.328125 25.921875 
z
M 12.359375 25.921875 
Q 12.359375 15.96875 16.703125 11.015625 
Q 21.046875 6.0625 27.640625 6.0625 
Q 34.1875 6.0625 38.53125 11.03125 
Q 42.875 16.015625 42.875 26.21875 
Q 42.875 35.84375 38.5 40.796875 
Q 34.125 45.75 27.640625 45.75 
Q 21.046875 45.75 16.703125 40.8125 
Q 12.359375 35.890625 12.359375 25.921875 
z
" id="ArialMT-111"/>
      <path d="M 6.59375 0 
L 6.59375 51.859375 
L 14.5 51.859375 
L 14.5 44.484375 
Q 20.21875 53.03125 31 53.03125 
Q 35.6875 53.03125 39.625 51.34375 
Q 43.5625 49.65625 45.515625 46.921875 
Q 47.46875 44.1875 48.25 40.4375 
Q 48.734375 37.984375 48.734375 31.890625 
L 48.734375 0 
L 39.9375 0 
L 39.9375 31.546875 
Q 39.9375 36.921875 38.90625 39.578125 
Q 37.890625 42.234375 35.28125 43.8125 
Q 32.671875 45.40625 29.15625 45.40625 
Q 23.53125 45.40625 19.453125 41.84375 
Q 15.375 38.28125 15.375 28.328125 
L 15.375 0 
z
" id="ArialMT-110"/>
      <path d="M 3.171875 21.484375 
L 3.171875 30.328125 
L 30.171875 30.328125 
L 30.171875 21.484375 
z
" id="ArialMT-45"/>
      <path d="M 7.71875 0 
L 7.71875 71.578125 
L 32.375 71.578125 
Q 40.71875 71.578125 45.125 70.5625 
Q 51.265625 69.140625 55.609375 65.4375 
Q 61.28125 60.640625 64.078125 53.1875 
Q 66.890625 45.75 66.890625 36.1875 
Q 66.890625 28.03125 64.984375 21.734375 
Q 63.09375 15.4375 60.109375 11.296875 
Q 57.125 7.171875 53.578125 4.796875 
Q 50.046875 2.4375 45.046875 1.21875 
Q 40.046875 0 33.546875 0 
z
M 17.1875 8.453125 
L 32.46875 8.453125 
Q 39.546875 8.453125 43.578125 9.765625 
Q 47.609375 11.078125 50 13.484375 
Q 53.375 16.84375 55.25 22.53125 
Q 57.125 28.21875 57.125 36.328125 
Q 57.125 47.5625 53.4375 53.59375 
Q 49.75 59.625 44.484375 61.671875 
Q 40.671875 63.140625 32.234375 63.140625 
L 17.1875 63.140625 
z
" id="ArialMT-68"/>
      <path d="M 6.640625 61.46875 
L 6.640625 71.578125 
L 15.4375 71.578125 
L 15.4375 61.46875 
z
M 6.640625 0 
L 6.640625 51.859375 
L 15.4375 51.859375 
L 15.4375 0 
z
" id="ArialMT-105"/>
      <path d="M 8.6875 0 
L 8.6875 45.015625 
L 0.921875 45.015625 
L 0.921875 51.859375 
L 8.6875 51.859375 
L 8.6875 57.375 
Q 8.6875 62.59375 9.625 65.140625 
Q 10.890625 68.5625 14.078125 70.671875 
Q 17.28125 72.796875 23.046875 72.796875 
Q 26.765625 72.796875 31.25 71.921875 
L 29.9375 64.265625 
Q 27.203125 64.75 24.75 64.75 
Q 20.75 64.75 19.09375 63.03125 
Q 17.4375 61.328125 17.4375 56.640625 
L 17.4375 51.859375 
L 27.546875 51.859375 
L 27.546875 45.015625 
L 17.4375 45.015625 
L 17.4375 0 
z
" id="ArialMT-102"/>
      <path d="M 42.09375 16.703125 
L 51.171875 15.578125 
Q 49.03125 7.625 43.21875 3.21875 
Q 37.40625 -1.171875 28.375 -1.171875 
Q 17 -1.171875 10.328125 5.828125 
Q 3.65625 12.84375 3.65625 25.484375 
Q 3.65625 38.578125 10.390625 45.796875 
Q 17.140625 53.03125 27.875 53.03125 
Q 38.28125 53.03125 44.875 45.953125 
Q 51.46875 38.875 51.46875 26.03125 
Q 51.46875 25.25 51.421875 23.6875 
L 12.75 23.6875 
Q 13.234375 15.140625 17.578125 10.59375 
Q 21.921875 6.0625 28.421875 6.0625 
Q 33.25 6.0625 36.671875 8.59375 
Q 40.09375 11.140625 42.09375 16.703125 
z
M 13.234375 30.90625 
L 42.1875 30.90625 
Q 41.609375 37.453125 38.875 40.71875 
Q 34.671875 45.796875 27.984375 45.796875 
Q 21.921875 45.796875 17.796875 41.75 
Q 13.671875 37.703125 13.234375 30.90625 
z
" id="ArialMT-101"/>
      <path d="M 6.5 0 
L 6.5 51.859375 
L 14.40625 51.859375 
L 14.40625 44 
Q 17.4375 49.515625 20 51.265625 
Q 22.5625 53.03125 25.640625 53.03125 
Q 30.078125 53.03125 34.671875 50.203125 
L 31.640625 42.046875 
Q 28.421875 43.953125 25.203125 43.953125 
Q 22.3125 43.953125 20.015625 42.21875 
Q 17.71875 40.484375 16.75 37.40625 
Q 15.28125 32.71875 15.28125 27.15625 
L 15.28125 0 
z
" id="ArialMT-114"/>
      <path d="M 25.78125 7.859375 
L 27.046875 0.09375 
Q 23.34375 -0.6875 20.40625 -0.6875 
Q 15.625 -0.6875 12.984375 0.828125 
Q 10.359375 2.34375 9.28125 4.8125 
Q 8.203125 7.28125 8.203125 15.1875 
L 8.203125 45.015625 
L 1.765625 45.015625 
L 1.765625 51.859375 
L 8.203125 51.859375 
L 8.203125 64.703125 
L 16.9375 69.96875 
L 16.9375 51.859375 
L 25.78125 51.859375 
L 25.78125 45.015625 
L 16.9375 45.015625 
L 16.9375 14.703125 
Q 16.9375 10.9375 17.40625 9.859375 
Q 17.875 8.796875 18.921875 8.15625 
Q 19.96875 7.515625 21.921875 7.515625 
Q 23.390625 7.515625 25.78125 7.859375 
z
" id="ArialMT-116"/>
      <path d="M 40.4375 6.390625 
Q 35.546875 2.25 31.03125 0.53125 
Q 26.515625 -1.171875 21.34375 -1.171875 
Q 12.796875 -1.171875 8.203125 3 
Q 3.609375 7.171875 3.609375 13.671875 
Q 3.609375 17.484375 5.34375 20.625 
Q 7.078125 23.78125 9.890625 25.6875 
Q 12.703125 27.59375 16.21875 28.5625 
Q 18.796875 29.25 24.03125 29.890625 
Q 34.671875 31.15625 39.703125 32.90625 
Q 39.75 34.71875 39.75 35.203125 
Q 39.75 40.578125 37.25 42.78125 
Q 33.890625 45.75 27.25 45.75 
Q 21.046875 45.75 18.09375 43.578125 
Q 15.140625 41.40625 13.71875 35.890625 
L 5.125 37.0625 
Q 6.296875 42.578125 8.984375 45.96875 
Q 11.671875 49.359375 16.75 51.1875 
Q 21.828125 53.03125 28.515625 53.03125 
Q 35.15625 53.03125 39.296875 51.46875 
Q 43.453125 49.90625 45.40625 47.53125 
Q 47.359375 45.171875 48.140625 41.546875 
Q 48.578125 39.3125 48.578125 33.453125 
L 48.578125 21.734375 
Q 48.578125 9.46875 49.140625 6.21875 
Q 49.703125 2.984375 51.375 0 
L 42.1875 0 
Q 40.828125 2.734375 40.4375 6.390625 
z
M 39.703125 26.03125 
Q 34.90625 24.078125 25.34375 22.703125 
Q 19.921875 21.921875 17.671875 20.9375 
Q 15.4375 19.96875 14.203125 18.09375 
Q 12.984375 16.21875 12.984375 13.921875 
Q 12.984375 10.40625 15.640625 8.0625 
Q 18.3125 5.71875 23.4375 5.71875 
Q 28.515625 5.71875 32.46875 7.9375 
Q 36.421875 10.15625 38.28125 14.015625 
Q 39.703125 17 39.703125 22.796875 
z
" id="ArialMT-97"/>
      <path d="M 14.703125 0 
L 6.546875 0 
L 6.546875 71.578125 
L 15.328125 71.578125 
L 15.328125 46.046875 
Q 20.90625 53.03125 29.546875 53.03125 
Q 34.328125 53.03125 38.59375 51.09375 
Q 42.875 49.171875 45.625 45.671875 
Q 48.390625 42.1875 49.953125 37.25 
Q 51.515625 32.328125 51.515625 26.703125 
Q 51.515625 13.375 44.921875 6.09375 
Q 38.328125 -1.171875 29.109375 -1.171875 
Q 19.921875 -1.171875 14.703125 6.5 
z
M 14.59375 26.3125 
Q 14.59375 17 17.140625 12.84375 
Q 21.296875 6.0625 28.375 6.0625 
Q 34.125 6.0625 38.328125 11.0625 
Q 42.53125 16.0625 42.53125 25.984375 
Q 42.53125 36.140625 38.5 40.96875 
Q 34.46875 45.796875 28.765625 45.796875 
Q 23 45.796875 18.796875 40.796875 
Q 14.59375 35.796875 14.59375 26.3125 
z
" id="ArialMT-98"/>
      <path d="M 6.390625 0 
L 6.390625 71.578125 
L 15.1875 71.578125 
L 15.1875 0 
z
" id="ArialMT-108"/>
      <path id="ArialMT-32"/>
      <path d="M 25.921875 0 
L 25.921875 63.140625 
L 2.34375 63.140625 
L 2.34375 71.578125 
L 59.078125 71.578125 
L 59.078125 63.140625 
L 35.40625 63.140625 
L 35.40625 0 
z
" id="ArialMT-84"/>
      <path d="M 6.546875 61.375 
L 6.546875 71.578125 
L 15.328125 71.578125 
L 15.328125 61.375 
z
M -4.59375 -20.125 
L -2.9375 -12.640625 
Q -0.296875 -13.328125 1.21875 -13.328125 
Q 3.90625 -13.328125 5.21875 -11.546875 
Q 6.546875 -9.765625 6.546875 -2.640625 
L 6.546875 51.859375 
L 15.328125 51.859375 
L 15.328125 -2.828125 
Q 15.328125 -12.40625 12.84375 -16.15625 
Q 9.671875 -21.046875 2.296875 -21.046875 
Q -1.265625 -21.046875 -4.59375 -20.125 
z
" id="ArialMT-106"/>
      <path d="M 40.4375 19 
L 49.078125 17.875 
Q 47.65625 8.9375 41.8125 3.875 
Q 35.984375 -1.171875 27.484375 -1.171875 
Q 16.84375 -1.171875 10.375 5.78125 
Q 3.90625 12.75 3.90625 25.734375 
Q 3.90625 34.125 6.6875 40.421875 
Q 9.46875 46.734375 15.15625 49.875 
Q 20.84375 53.03125 27.546875 53.03125 
Q 35.984375 53.03125 41.359375 48.75 
Q 46.734375 44.484375 48.25 36.625 
L 39.703125 35.296875 
Q 38.484375 40.53125 35.375 43.15625 
Q 32.28125 45.796875 27.875 45.796875 
Q 21.234375 45.796875 17.078125 41.03125 
Q 12.9375 36.28125 12.9375 25.984375 
Q 12.9375 15.53125 16.9375 10.796875 
Q 20.953125 6.0625 27.390625 6.0625 
Q 32.5625 6.0625 36.03125 9.234375 
Q 39.5 12.40625 40.4375 19 
z
" id="ArialMT-99"/>
      <path d="M 6.203125 -19.96875 
L 5.21875 -11.71875 
Q 8.109375 -12.5 10.25 -12.5 
Q 13.1875 -12.5 14.9375 -11.515625 
Q 16.703125 -10.546875 17.828125 -8.796875 
Q 18.65625 -7.46875 20.515625 -2.25 
Q 20.75 -1.515625 21.296875 -0.09375 
L 1.609375 51.859375 
L 11.078125 51.859375 
L 21.875 21.828125 
Q 23.96875 16.109375 25.640625 9.8125 
Q 27.15625 15.875 29.25 21.625 
L 40.328125 51.859375 
L 49.125 51.859375 
L 29.390625 -0.875 
Q 26.21875 -9.421875 24.46875 -12.640625 
Q 22.125 -17 19.09375 -19.015625 
Q 16.0625 -21.046875 11.859375 -21.046875 
Q 9.328125 -21.046875 6.203125 -19.96875 
z
" id="ArialMT-121"/>
     </defs>
     <use xlink:href="#ArialMT-78"/>
     <use x="72.216797" xlink:href="#ArialMT-111"/>
     <use x="127.832031" xlink:href="#ArialMT-110"/>
     <use x="183.447266" xlink:href="#ArialMT-45"/>
     <use x="216.748047" xlink:href="#ArialMT-68"/>
     <use x="288.964844" xlink:href="#ArialMT-105"/>
     <use x="311.181641" xlink:href="#ArialMT-102"/>
     <use x="337.214844" xlink:href="#ArialMT-102"/>
     <use x="364.998047" xlink:href="#ArialMT-101"/>
     <use x="420.613281" xlink:href="#ArialMT-114"/>
     <use x="453.914062" xlink:href="#ArialMT-101"/>
     <use x="509.529297" xlink:href="#ArialMT-110"/>
     <use x="565.144531" xlink:href="#ArialMT-116"/>
     <use x="592.927734" xlink:href="#ArialMT-105"/>
     <use x="615.144531" xlink:href="#ArialMT-97"/>
     <use x="670.759766" xlink:href="#ArialMT-98"/>
     <use x="726.375" xlink:href="#ArialMT-108"/>
     <use x="748.591797" xlink:href="#ArialMT-101"/>
     <use x="804.207031" xlink:href="#ArialMT-32"/>
     <use x="830.240234" xlink:href="#ArialMT-84"/>
     <use x="887.574219" xlink:href="#ArialMT-114"/>
     <use x="920.875" xlink:href="#ArialMT-97"/>
     <use x="976.490234" xlink:href="#ArialMT-106"/>
     <use x="998.707031" xlink:href="#ArialMT-101"/>
     <use x="1054.322266" xlink:href="#ArialMT-99"/>
     <use x="1104.322266" xlink:href="#ArialMT-116"/>
     <use x="1132.105469" xlink:href="#ArialMT-111"/>
     <use x="1187.720703" xlink:href="#ArialMT-114"/>
     <use x="1221.021484" xlink:href="#ArialMT-121"/>
     <use x="1271.021484" xlink:href="#ArialMT-32"/>
    </g>
    <!-- (third body comes to a stop and changes direction) -->
    <g style="fill:#262626;" transform="translate(189.3575 80.4)scale(0.16 -0.16)">
     <defs>
      <path d="M 23.390625 -21.046875 
Q 16.109375 -11.859375 11.078125 0.4375 
Q 6.0625 12.75 6.0625 25.921875 
Q 6.0625 37.546875 9.8125 48.1875 
Q 14.203125 60.546875 23.390625 72.796875 
L 29.6875 72.796875 
Q 23.78125 62.640625 21.875 58.296875 
Q 18.890625 51.5625 17.1875 44.234375 
Q 15.09375 35.109375 15.09375 25.875 
Q 15.09375 2.390625 29.6875 -21.046875 
z
" id="ArialMT-40"/>
      <path d="M 6.59375 0 
L 6.59375 71.578125 
L 15.375 71.578125 
L 15.375 45.90625 
Q 21.53125 53.03125 30.90625 53.03125 
Q 36.671875 53.03125 40.921875 50.75 
Q 45.171875 48.484375 47 44.484375 
Q 48.828125 40.484375 48.828125 32.859375 
L 48.828125 0 
L 40.046875 0 
L 40.046875 32.859375 
Q 40.046875 39.453125 37.1875 42.453125 
Q 34.328125 45.453125 29.109375 45.453125 
Q 25.203125 45.453125 21.75 43.421875 
Q 18.3125 41.40625 16.84375 37.9375 
Q 15.375 34.46875 15.375 28.375 
L 15.375 0 
z
" id="ArialMT-104"/>
      <path d="M 40.234375 0 
L 40.234375 6.546875 
Q 35.296875 -1.171875 25.734375 -1.171875 
Q 19.53125 -1.171875 14.328125 2.25 
Q 9.125 5.671875 6.265625 11.796875 
Q 3.421875 17.921875 3.421875 25.875 
Q 3.421875 33.640625 6 39.96875 
Q 8.59375 46.296875 13.765625 49.65625 
Q 18.953125 53.03125 25.34375 53.03125 
Q 30.03125 53.03125 33.6875 51.046875 
Q 37.359375 49.078125 39.65625 45.90625 
L 39.65625 71.578125 
L 48.390625 71.578125 
L 48.390625 0 
z
M 12.453125 25.875 
Q 12.453125 15.921875 16.640625 10.984375 
Q 20.84375 6.0625 26.5625 6.0625 
Q 32.328125 6.0625 36.34375 10.765625 
Q 40.375 15.484375 40.375 25.140625 
Q 40.375 35.796875 36.265625 40.765625 
Q 32.171875 45.75 26.171875 45.75 
Q 20.3125 45.75 16.375 40.96875 
Q 12.453125 36.1875 12.453125 25.875 
z
" id="ArialMT-100"/>
      <path d="M 6.59375 0 
L 6.59375 51.859375 
L 14.453125 51.859375 
L 14.453125 44.578125 
Q 16.890625 48.390625 20.9375 50.703125 
Q 25 53.03125 30.171875 53.03125 
Q 35.9375 53.03125 39.625 50.640625 
Q 43.3125 48.25 44.828125 43.953125 
Q 50.984375 53.03125 60.84375 53.03125 
Q 68.5625 53.03125 72.703125 48.75 
Q 76.859375 44.484375 76.859375 35.59375 
L 76.859375 0 
L 68.109375 0 
L 68.109375 32.671875 
Q 68.109375 37.9375 67.25 40.25 
Q 66.40625 42.578125 64.15625 43.984375 
Q 61.921875 45.40625 58.890625 45.40625 
Q 53.421875 45.40625 49.796875 41.765625 
Q 46.1875 38.140625 46.1875 30.125 
L 46.1875 0 
L 37.40625 0 
L 37.40625 33.6875 
Q 37.40625 39.546875 35.25 42.46875 
Q 33.109375 45.40625 28.21875 45.40625 
Q 24.515625 45.40625 21.359375 43.453125 
Q 18.21875 41.5 16.796875 37.734375 
Q 15.375 33.984375 15.375 26.90625 
L 15.375 0 
z
" id="ArialMT-109"/>
      <path d="M 3.078125 15.484375 
L 11.765625 16.84375 
Q 12.5 11.625 15.84375 8.84375 
Q 19.1875 6.0625 25.203125 6.0625 
Q 31.25 6.0625 34.171875 8.515625 
Q 37.109375 10.984375 37.109375 14.3125 
Q 37.109375 17.28125 34.515625 19 
Q 32.71875 20.171875 25.53125 21.96875 
Q 15.875 24.421875 12.140625 26.203125 
Q 8.40625 27.984375 6.46875 31.125 
Q 4.546875 34.28125 4.546875 38.09375 
Q 4.546875 41.546875 6.125 44.5 
Q 7.71875 47.46875 10.453125 49.421875 
Q 12.5 50.921875 16.03125 51.96875 
Q 19.578125 53.03125 23.640625 53.03125 
Q 29.734375 53.03125 34.34375 51.265625 
Q 38.96875 49.515625 41.15625 46.5 
Q 43.359375 43.5 44.1875 38.484375 
L 35.59375 37.3125 
Q 35.015625 41.3125 32.203125 43.546875 
Q 29.390625 45.796875 24.265625 45.796875 
Q 18.21875 45.796875 15.625 43.796875 
Q 13.03125 41.796875 13.03125 39.109375 
Q 13.03125 37.40625 14.109375 36.03125 
Q 15.1875 34.625 17.484375 33.6875 
Q 18.796875 33.203125 25.25 31.453125 
Q 34.578125 28.953125 38.25 27.359375 
Q 41.9375 25.78125 44.03125 22.75 
Q 46.140625 19.734375 46.140625 15.234375 
Q 46.140625 10.84375 43.578125 6.953125 
Q 41.015625 3.078125 36.171875 0.953125 
Q 31.34375 -1.171875 25.25 -1.171875 
Q 15.140625 -1.171875 9.84375 3.03125 
Q 4.546875 7.234375 3.078125 15.484375 
z
" id="ArialMT-115"/>
      <path d="M 6.59375 -19.875 
L 6.59375 51.859375 
L 14.59375 51.859375 
L 14.59375 45.125 
Q 17.4375 49.078125 21 51.046875 
Q 24.5625 53.03125 29.640625 53.03125 
Q 36.28125 53.03125 41.359375 49.609375 
Q 46.4375 46.1875 49.015625 39.953125 
Q 51.609375 33.734375 51.609375 26.3125 
Q 51.609375 18.359375 48.75 11.984375 
Q 45.90625 5.609375 40.453125 2.21875 
Q 35.015625 -1.171875 29 -1.171875 
Q 24.609375 -1.171875 21.109375 0.6875 
Q 17.625 2.546875 15.375 5.375 
L 15.375 -19.875 
z
M 14.546875 25.640625 
Q 14.546875 15.625 18.59375 10.84375 
Q 22.65625 6.0625 28.421875 6.0625 
Q 34.28125 6.0625 38.453125 11.015625 
Q 42.625 15.96875 42.625 26.375 
Q 42.625 36.28125 38.546875 41.203125 
Q 34.46875 46.140625 28.8125 46.140625 
Q 23.1875 46.140625 18.859375 40.890625 
Q 14.546875 35.640625 14.546875 25.640625 
z
" id="ArialMT-112"/>
      <path d="M 4.984375 -4.296875 
L 13.53125 -5.5625 
Q 14.0625 -9.515625 16.5 -11.328125 
Q 19.78125 -13.765625 25.4375 -13.765625 
Q 31.546875 -13.765625 34.859375 -11.328125 
Q 38.1875 -8.890625 39.359375 -4.5 
Q 40.046875 -1.8125 39.984375 6.78125 
Q 34.234375 0 25.640625 0 
Q 14.9375 0 9.078125 7.71875 
Q 3.21875 15.4375 3.21875 26.21875 
Q 3.21875 33.640625 5.90625 39.90625 
Q 8.59375 46.1875 13.6875 49.609375 
Q 18.796875 53.03125 25.6875 53.03125 
Q 34.859375 53.03125 40.828125 45.609375 
L 40.828125 51.859375 
L 48.921875 51.859375 
L 48.921875 7.03125 
Q 48.921875 -5.078125 46.453125 -10.125 
Q 44 -15.1875 38.640625 -18.109375 
Q 33.296875 -21.046875 25.484375 -21.046875 
Q 16.21875 -21.046875 10.5 -16.875 
Q 4.78125 -12.703125 4.984375 -4.296875 
z
M 12.25 26.859375 
Q 12.25 16.65625 16.296875 11.96875 
Q 20.359375 7.28125 26.46875 7.28125 
Q 32.515625 7.28125 36.609375 11.9375 
Q 40.71875 16.609375 40.71875 26.5625 
Q 40.71875 36.078125 36.5 40.90625 
Q 32.28125 45.75 26.3125 45.75 
Q 20.453125 45.75 16.34375 40.984375 
Q 12.25 36.234375 12.25 26.859375 
z
" id="ArialMT-103"/>
      <path d="M 12.359375 -21.046875 
L 6.0625 -21.046875 
Q 20.65625 2.390625 20.65625 25.875 
Q 20.65625 35.0625 18.5625 44.09375 
Q 16.890625 51.421875 13.921875 58.15625 
Q 12.015625 62.546875 6.0625 72.796875 
L 12.359375 72.796875 
Q 21.53125 60.546875 25.921875 48.1875 
Q 29.6875 37.546875 29.6875 25.921875 
Q 29.6875 12.75 24.625 0.4375 
Q 19.578125 -11.859375 12.359375 -21.046875 
z
" id="ArialMT-41"/>
     </defs>
     <use xlink:href="#ArialMT-40"/>
     <use x="33.300781" xlink:href="#ArialMT-116"/>
     <use x="61.083984" xlink:href="#ArialMT-104"/>
     <use x="116.699219" xlink:href="#ArialMT-105"/>
     <use x="138.916016" xlink:href="#ArialMT-114"/>
     <use x="172.216797" xlink:href="#ArialMT-100"/>
     <use x="227.832031" xlink:href="#ArialMT-32"/>
     <use x="255.615234" xlink:href="#ArialMT-98"/>
     <use x="311.230469" xlink:href="#ArialMT-111"/>
     <use x="366.845703" xlink:href="#ArialMT-100"/>
     <use x="422.460938" xlink:href="#ArialMT-121"/>
     <use x="472.460938" xlink:href="#ArialMT-32"/>
     <use x="500.244141" xlink:href="#ArialMT-99"/>
     <use x="550.244141" xlink:href="#ArialMT-111"/>
     <use x="605.859375" xlink:href="#ArialMT-109"/>
     <use x="689.160156" xlink:href="#ArialMT-101"/>
     <use x="744.775391" xlink:href="#ArialMT-115"/>
     <use x="794.775391" xlink:href="#ArialMT-32"/>
     <use x="822.558594" xlink:href="#ArialMT-116"/>
     <use x="850.341797" xlink:href="#ArialMT-111"/>
     <use x="905.957031" xlink:href="#ArialMT-32"/>
     <use x="933.740234" xlink:href="#ArialMT-97"/>
     <use x="989.355469" xlink:href="#ArialMT-32"/>
     <use x="1017.138672" xlink:href="#ArialMT-115"/>
     <use x="1067.138672" xlink:href="#ArialMT-116"/>
     <use x="1094.921875" xlink:href="#ArialMT-111"/>
     <use x="1150.537109" xlink:href="#ArialMT-112"/>
     <use x="1206.152344" xlink:href="#ArialMT-32"/>
     <use x="1233.935547" xlink:href="#ArialMT-97"/>
     <use x="1289.550781" xlink:href="#ArialMT-110"/>
     <use x="1345.166016" xlink:href="#ArialMT-100"/>
     <use x="1400.78125" xlink:href="#ArialMT-32"/>
     <use x="1428.564453" xlink:href="#ArialMT-99"/>
     <use x="1478.564453" xlink:href="#ArialMT-104"/>
     <use x="1534.179688" xlink:href="#ArialMT-97"/>
     <use x="1589.794922" xlink:href="#ArialMT-110"/>
     <use x="1645.410156" xlink:href="#ArialMT-103"/>
     <use x="1701.025391" xlink:href="#ArialMT-101"/>
     <use x="1756.640625" xlink:href="#ArialMT-115"/>
     <use x="1806.640625" xlink:href="#ArialMT-32"/>
     <use x="1834.423828" xlink:href="#ArialMT-100"/>
     <use x="1890.039062" xlink:href="#ArialMT-105"/>
     <use x="1912.255859" xlink:href="#ArialMT-114"/>
     <use x="1945.556641" xlink:href="#ArialMT-101"/>
     <use x="2001.171875" xlink:href="#ArialMT-99"/>
     <use x="2051.171875" xlink:href="#ArialMT-116"/>
     <use x="2078.955078" xlink:href="#ArialMT-105"/>
     <use x="2101.171875" xlink:href="#ArialMT-111"/>
     <use x="2156.787109" xlink:href="#ArialMT-110"/>
     <use x="2212.402344" xlink:href="#ArialMT-41"/>
    </g>
   </g>
   <g id="legend_1">
    <g id="line2d_64">
     <path d="M 525.01875 101.589375 
L 549.01875 101.589375 
" style="fill:none;stroke:#4682b4;stroke-linecap:round;stroke-width:1.75;"/>
    </g>
    <g id="line2d_65"/>
    <g id="text_29">
     <!-- First Body -->
     <g style="fill:#262626;" transform="translate(558.61875 105.789375)scale(0.12 -0.12)">
      <defs>
       <path d="M 8.203125 0 
L 8.203125 71.578125 
L 56.5 71.578125 
L 56.5 63.140625 
L 17.671875 63.140625 
L 17.671875 40.96875 
L 51.265625 40.96875 
L 51.265625 32.515625 
L 17.671875 32.515625 
L 17.671875 0 
z
" id="ArialMT-70"/>
       <path d="M 7.328125 0 
L 7.328125 71.578125 
L 34.1875 71.578125 
Q 42.390625 71.578125 47.34375 69.40625 
Q 52.296875 67.234375 55.09375 62.71875 
Q 57.90625 58.203125 57.90625 53.265625 
Q 57.90625 48.6875 55.421875 44.625 
Q 52.9375 40.578125 47.90625 38.09375 
Q 54.390625 36.1875 57.875 31.59375 
Q 61.375 27 61.375 20.75 
Q 61.375 15.71875 59.25 11.390625 
Q 57.125 7.078125 54 4.734375 
Q 50.875 2.390625 46.15625 1.1875 
Q 41.453125 0 34.625 0 
z
M 16.796875 41.5 
L 32.28125 41.5 
Q 38.578125 41.5 41.3125 42.328125 
Q 44.921875 43.40625 46.75 45.890625 
Q 48.578125 48.390625 48.578125 52.15625 
Q 48.578125 55.71875 46.875 58.421875 
Q 45.171875 61.140625 41.984375 62.140625 
Q 38.8125 63.140625 31.109375 63.140625 
L 16.796875 63.140625 
z
M 16.796875 8.453125 
L 34.625 8.453125 
Q 39.203125 8.453125 41.0625 8.796875 
Q 44.34375 9.375 46.53125 10.734375 
Q 48.734375 12.109375 50.140625 14.71875 
Q 51.5625 17.328125 51.5625 20.75 
Q 51.5625 24.75 49.515625 27.703125 
Q 47.46875 30.671875 43.828125 31.859375 
Q 40.1875 33.0625 33.34375 33.0625 
L 16.796875 33.0625 
z
" id="ArialMT-66"/>
      </defs>
      <use xlink:href="#ArialMT-70"/>
      <use x="61.083984" xlink:href="#ArialMT-105"/>
      <use x="83.300781" xlink:href="#ArialMT-114"/>
      <use x="116.601562" xlink:href="#ArialMT-115"/>
      <use x="166.601562" xlink:href="#ArialMT-116"/>
      <use x="194.384766" xlink:href="#ArialMT-32"/>
      <use x="222.167969" xlink:href="#ArialMT-66"/>
      <use x="288.867188" xlink:href="#ArialMT-111"/>
      <use x="344.482422" xlink:href="#ArialMT-100"/>
      <use x="400.097656" xlink:href="#ArialMT-121"/>
     </g>
    </g>
    <g id="line2d_66">
     <path d="M 525.01875 118.850625 
L 549.01875 118.850625 
" style="fill:none;stroke:#2e8b57;stroke-linecap:round;stroke-width:1.75;"/>
    </g>
    <g id="line2d_67"/>
    <g id="text_30">
     <!-- Second Body -->
     <g style="fill:#262626;" transform="translate(558.61875 123.050625)scale(0.12 -0.12)">
      <defs>
       <path d="M 4.5 23 
L 13.421875 23.78125 
Q 14.0625 18.40625 16.375 14.96875 
Q 18.703125 11.53125 23.578125 9.40625 
Q 28.46875 7.28125 34.578125 7.28125 
Q 39.984375 7.28125 44.140625 8.890625 
Q 48.296875 10.5 50.3125 13.296875 
Q 52.34375 16.109375 52.34375 19.4375 
Q 52.34375 22.796875 50.390625 25.3125 
Q 48.4375 27.828125 43.953125 29.546875 
Q 41.0625 30.671875 31.203125 33.03125 
Q 21.34375 35.40625 17.390625 37.5 
Q 12.25 40.1875 9.734375 44.15625 
Q 7.234375 48.140625 7.234375 53.078125 
Q 7.234375 58.5 10.296875 63.203125 
Q 13.375 67.921875 19.28125 70.359375 
Q 25.203125 72.796875 32.421875 72.796875 
Q 40.375 72.796875 46.453125 70.234375 
Q 52.546875 67.671875 55.8125 62.6875 
Q 59.078125 57.71875 59.328125 51.421875 
L 50.25 50.734375 
Q 49.515625 57.515625 45.28125 60.984375 
Q 41.0625 64.453125 32.8125 64.453125 
Q 24.21875 64.453125 20.28125 61.296875 
Q 16.359375 58.15625 16.359375 53.71875 
Q 16.359375 49.859375 19.140625 47.359375 
Q 21.875 44.875 33.421875 42.265625 
Q 44.96875 39.65625 49.265625 37.703125 
Q 55.515625 34.8125 58.484375 30.390625 
Q 61.46875 25.984375 61.46875 20.21875 
Q 61.46875 14.5 58.203125 9.4375 
Q 54.9375 4.390625 48.796875 1.578125 
Q 42.671875 -1.21875 35.015625 -1.21875 
Q 25.296875 -1.21875 18.71875 1.609375 
Q 12.15625 4.4375 8.421875 10.125 
Q 4.6875 15.828125 4.5 23 
z
" id="ArialMT-83"/>
      </defs>
      <use xlink:href="#ArialMT-83"/>
      <use x="66.699219" xlink:href="#ArialMT-101"/>
      <use x="122.314453" xlink:href="#ArialMT-99"/>
      <use x="172.314453" xlink:href="#ArialMT-111"/>
      <use x="227.929688" xlink:href="#ArialMT-110"/>
      <use x="283.544922" xlink:href="#ArialMT-100"/>
      <use x="339.160156" xlink:href="#ArialMT-32"/>
      <use x="366.943359" xlink:href="#ArialMT-66"/>
      <use x="433.642578" xlink:href="#ArialMT-111"/>
      <use x="489.257812" xlink:href="#ArialMT-100"/>
      <use x="544.873047" xlink:href="#ArialMT-121"/>
     </g>
    </g>
    <g id="line2d_68">
     <path d="M 525.01875 135.965625 
L 549.01875 135.965625 
" style="fill:none;stroke:#4b0082;stroke-linecap:round;stroke-width:1.75;"/>
    </g>
    <g id="line2d_69"/>
    <g id="text_31">
     <!-- Third Body -->
     <g style="fill:#262626;" transform="translate(558.61875 140.165625)scale(0.12 -0.12)">
      <use xlink:href="#ArialMT-84"/>
      <use x="61.083984" xlink:href="#ArialMT-104"/>
      <use x="116.699219" xlink:href="#ArialMT-105"/>
      <use x="138.916016" xlink:href="#ArialMT-114"/>
      <use x="172.216797" xlink:href="#ArialMT-100"/>
      <use x="227.832031" xlink:href="#ArialMT-32"/>
      <use x="255.615234" xlink:href="#ArialMT-66"/>
      <use x="322.314453" xlink:href="#ArialMT-111"/>
      <use x="377.929688" xlink:href="#ArialMT-100"/>
      <use x="433.544922" xlink:href="#ArialMT-121"/>
     </g>
    </g>
   </g>
  </g>
 </g>
 <defs>
  <clipPath id="p79305098f2">
   <rect height="543.6" width="543.6" x="97.2" y="86.4"/>
  </clipPath>
 </defs>
</svg>
