<?xml version="1.0" encoding="utf-8" standalone="no"?>
<!DOCTYPE svg PUBLIC "-//W3C//DTD SVG 1.1//EN"
  "http://www.w3.org/Graphics/SVG/1.1/DTD/svg11.dtd">
<!-- Created with matplotlib (https://matplotlib.org/) -->
<svg height="720pt" version="1.1" viewBox="0 0 720 720" width="720pt" xmlns="http://www.w3.org/2000/svg" xmlns:xlink="http://www.w3.org/1999/xlink">
 <metadata>
  <rdf:RDF xmlns:cc="http://creativecommons.org/ns#" xmlns:dc="http://purl.org/dc/elements/1.1/" xmlns:rdf="http://www.w3.org/1999/02/22-rdf-syntax-ns#">
   <cc:Work>
    <dc:type rdf:resource="http://purl.org/dc/dcmitype/StillImage"/>
    <dc:date>2020-12-08T20:07:14.284294</dc:date>
    <dc:format>image/svg+xml</dc:format>
    <dc:creator>
     <cc:Agent>
      <dc:title>Matplotlib v3.3.1, https://matplotlib.org/</dc:title>
     </cc:Agent>
    </dc:creator>
   </cc:Work>
  </rdf:RDF>
 </metadata>
 <defs>
  <style type="text/css">*{stroke-linecap:butt;stroke-linejoin:round;}</style>
 </defs>
 <g id="figure_1">
  <g id="patch_1">
   <path d="M 0 720 
L 720 720 
L 720 0 
L 0 0 
z
" style="fill:#ffffff;"/>
  </g>
  <g id="patch_2">
   <path d="M 97.2 630 
L 640.8 630 
L 640.8 86.4 
L 97.2 86.4 
z
" style="fill:#eaeaf2;"/>
  </g>
  <g id="pane3d_1">
   <g id="patch_3">
    <path d="M 138.245549 495.965661 
L 317.760022 345.49307 
L 315.264599 128.484695 
L 127.159433 265.755277 
" style="fill:#f2f2f2;opacity:0.5;stroke:#f2f2f2;stroke-linejoin:miter;stroke-width:0.3;"/>
   </g>
  </g>
  <g id="pane3d_2">
   <g id="patch_4">
    <path d="M 317.760022 345.49307 
L 605.8167 429.219774 
L 616.096428 204.736794 
L 315.264599 128.484695 
" style="fill:#e6e6e6;opacity:0.5;stroke:#e6e6e6;stroke-linejoin:miter;stroke-width:0.3;"/>
   </g>
  </g>
  <g id="pane3d_3">
   <g id="patch_5">
    <path d="M 138.245549 495.965661 
L 443.599697 595.694325 
L 605.8167 429.219774 
L 317.760022 345.49307 
" style="fill:#ececec;opacity:0.5;stroke:#ececec;stroke-linejoin:miter;stroke-width:0.3;"/>
   </g>
  </g>
  <g id="axis3d_1">
   <g id="line2d_1">
    <path d="M 138.245549 495.965661 
L 443.599697 595.694325 
" style="fill:none;"/>
   </g>
   <g id="Line3DCollection_1">
    <path d="M 144.044859 497.859716 
L 323.254563 347.090116 
L 320.990948 129.936157 
" style="fill:none;stroke:#ffffff;"/>
    <path d="M 179.092784 509.306368 
L 356.440981 356.736098 
L 355.587266 138.705315 
" style="fill:none;stroke:#ffffff;"/>
    <path d="M 214.578673 520.896059 
L 390.007797 366.492646 
L 390.597251 147.579326 
" style="fill:none;stroke:#ffffff;"/>
    <path d="M 250.510786 532.631487 
L 423.961586 376.361672 
L 426.028366 156.560081 
" style="fill:none;stroke:#ffffff;"/>
    <path d="M 286.897593 544.515418 
L 458.309081 386.345133 
L 461.888257 165.649518 
" style="fill:none;stroke:#ffffff;"/>
    <path d="M 323.74778 556.550689 
L 493.057168 396.44503 
L 498.184754 174.849622 
" style="fill:none;stroke:#ffffff;"/>
    <path d="M 361.070255 568.740209 
L 528.212897 406.663412 
L 534.92588 184.162426 
" style="fill:none;stroke:#ffffff;"/>
    <path d="M 398.874156 581.086963 
L 563.783484 417.002377 
L 572.119855 193.590015 
" style="fill:none;stroke:#ffffff;"/>
    <path d="M 437.168858 593.594013 
L 599.776315 427.464073 
L 609.775104 203.134523 
" style="fill:none;stroke:#ffffff;"/>
   </g>
   <g id="xtick_1">
    <g id="line2d_2">
     <path clip-path="url(#p9db0b3109b)" d="M 376.345946 350.854054 
" style="fill:none;stroke:#ffffff;stroke-linecap:round;"/>
    </g>
    <g id="line2d_3">
     <path d="M 145.605122 496.547062 
L 140.917652 500.490643 
" style="fill:none;stroke:#262626;stroke-linecap:round;"/>
    </g>
    <g id="text_1">
     <!-- −2.0 -->
     <g style="fill:#262626;" transform="translate(124.359261 525.426426)scale(0.1 -0.1)">
      <defs>
       <path d="M 52.828125 31.203125 
L 5.5625 31.203125 
L 5.5625 39.40625 
L 52.828125 39.40625 
z
" id="ArialMT-8722"/>
       <path d="M 50.34375 8.453125 
L 50.34375 0 
L 3.03125 0 
Q 2.9375 3.171875 4.046875 6.109375 
Q 5.859375 10.9375 9.828125 15.625 
Q 13.8125 20.3125 21.34375 26.46875 
Q 33.015625 36.03125 37.109375 41.625 
Q 41.21875 47.21875 41.21875 52.203125 
Q 41.21875 57.421875 37.46875 61 
Q 33.734375 64.59375 27.734375 64.59375 
Q 21.390625 64.59375 17.578125 60.78125 
Q 13.765625 56.984375 13.71875 50.25 
L 4.6875 51.171875 
Q 5.609375 61.28125 11.65625 66.578125 
Q 17.71875 71.875 27.9375 71.875 
Q 38.234375 71.875 44.234375 66.15625 
Q 50.25 60.453125 50.25 52 
Q 50.25 47.703125 48.484375 43.546875 
Q 46.734375 39.40625 42.65625 34.8125 
Q 38.578125 30.21875 29.109375 22.21875 
Q 21.1875 15.578125 18.9375 13.203125 
Q 16.703125 10.84375 15.234375 8.453125 
z
" id="ArialMT-50"/>
       <path d="M 9.078125 0 
L 9.078125 10.015625 
L 19.09375 10.015625 
L 19.09375 0 
z
" id="ArialMT-46"/>
       <path d="M 4.15625 35.296875 
Q 4.15625 48 6.765625 55.734375 
Q 9.375 63.484375 14.515625 67.671875 
Q 19.671875 71.875 27.484375 71.875 
Q 33.25 71.875 37.59375 69.546875 
Q 41.9375 67.234375 44.765625 62.859375 
Q 47.609375 58.5 49.21875 52.21875 
Q 50.828125 45.953125 50.828125 35.296875 
Q 50.828125 22.703125 48.234375 14.96875 
Q 45.65625 7.234375 40.5 3 
Q 35.359375 -1.21875 27.484375 -1.21875 
Q 17.140625 -1.21875 11.234375 6.203125 
Q 4.15625 15.140625 4.15625 35.296875 
z
M 13.1875 35.296875 
Q 13.1875 17.671875 17.3125 11.828125 
Q 21.4375 6 27.484375 6 
Q 33.546875 6 37.671875 11.859375 
Q 41.796875 17.71875 41.796875 35.296875 
Q 41.796875 52.984375 37.671875 58.78125 
Q 33.546875 64.59375 27.390625 64.59375 
Q 21.34375 64.59375 17.71875 59.46875 
Q 13.1875 52.9375 13.1875 35.296875 
z
" id="ArialMT-48"/>
      </defs>
      <use xlink:href="#ArialMT-8722"/>
      <use x="58.398438" xlink:href="#ArialMT-50"/>
      <use x="114.013672" xlink:href="#ArialMT-46"/>
      <use x="141.796875" xlink:href="#ArialMT-48"/>
     </g>
    </g>
   </g>
   <g id="xtick_2">
    <g id="line2d_4">
     <path clip-path="url(#p9db0b3109b)" d="M 376.345946 350.854054 
" style="fill:none;stroke:#ffffff;stroke-linecap:round;"/>
    </g>
    <g id="line2d_5">
     <path d="M 180.637618 507.977368 
L 175.996461 511.970093 
" style="fill:none;stroke:#262626;stroke-linecap:round;"/>
    </g>
    <g id="text_2">
     <!-- −1.5 -->
     <g style="fill:#262626;" transform="translate(159.429502 537.027344)scale(0.1 -0.1)">
      <defs>
       <path d="M 37.25 0 
L 28.46875 0 
L 28.46875 56 
Q 25.296875 52.984375 20.140625 49.953125 
Q 14.984375 46.921875 10.890625 45.40625 
L 10.890625 53.90625 
Q 18.265625 57.375 23.78125 62.296875 
Q 29.296875 67.234375 31.59375 71.875 
L 37.25 71.875 
z
" id="ArialMT-49"/>
       <path d="M 4.15625 18.75 
L 13.375 19.53125 
Q 14.40625 12.796875 18.140625 9.390625 
Q 21.875 6 27.15625 6 
Q 33.5 6 37.890625 10.78125 
Q 42.28125 15.578125 42.28125 23.484375 
Q 42.28125 31 38.0625 35.34375 
Q 33.84375 39.703125 27 39.703125 
Q 22.75 39.703125 19.328125 37.765625 
Q 15.921875 35.84375 13.96875 32.765625 
L 5.71875 33.84375 
L 12.640625 70.609375 
L 48.25 70.609375 
L 48.25 62.203125 
L 19.671875 62.203125 
L 15.828125 42.96875 
Q 22.265625 47.46875 29.34375 47.46875 
Q 38.71875 47.46875 45.15625 40.96875 
Q 51.609375 34.46875 51.609375 24.265625 
Q 51.609375 14.546875 45.953125 7.46875 
Q 39.0625 -1.21875 27.15625 -1.21875 
Q 17.390625 -1.21875 11.203125 4.25 
Q 5.03125 9.71875 4.15625 18.75 
z
" id="ArialMT-53"/>
      </defs>
      <use xlink:href="#ArialMT-8722"/>
      <use x="58.398438" xlink:href="#ArialMT-49"/>
      <use x="114.013672" xlink:href="#ArialMT-46"/>
      <use x="141.796875" xlink:href="#ArialMT-53"/>
     </g>
    </g>
   </g>
   <g id="xtick_3">
    <g id="line2d_6">
     <path clip-path="url(#p9db0b3109b)" d="M 376.345946 350.854054 
" style="fill:none;stroke:#ffffff;stroke-linecap:round;"/>
    </g>
    <g id="line2d_7">
     <path d="M 216.107569 519.550406 
L 211.514254 523.593199 
" style="fill:none;stroke:#262626;stroke-linecap:round;"/>
    </g>
    <g id="text_3">
     <!-- −1.0 -->
     <g style="fill:#262626;" transform="translate(194.939035 548.773577)scale(0.1 -0.1)">
      <use xlink:href="#ArialMT-8722"/>
      <use x="58.398438" xlink:href="#ArialMT-49"/>
      <use x="114.013672" xlink:href="#ArialMT-46"/>
      <use x="141.796875" xlink:href="#ArialMT-48"/>
     </g>
    </g>
   </g>
   <g id="xtick_4">
    <g id="line2d_8">
     <path clip-path="url(#p9db0b3109b)" d="M 376.345946 350.854054 
" style="fill:none;stroke:#ffffff;stroke-linecap:round;"/>
    </g>
    <g id="line2d_9">
     <path d="M 252.02322 531.268866 
L 247.479321 535.362674 
" style="fill:none;stroke:#262626;stroke-linecap:round;"/>
    </g>
    <g id="text_4">
     <!-- −0.5 -->
     <g style="fill:#262626;" transform="translate(230.896164 560.66787)scale(0.1 -0.1)">
      <use xlink:href="#ArialMT-8722"/>
      <use x="58.398438" xlink:href="#ArialMT-48"/>
      <use x="114.013672" xlink:href="#ArialMT-46"/>
      <use x="141.796875" xlink:href="#ArialMT-53"/>
     </g>
    </g>
   </g>
   <g id="xtick_5">
    <g id="line2d_10">
     <path clip-path="url(#p9db0b3109b)" d="M 376.345946 350.854054 
" style="fill:none;stroke:#ffffff;stroke-linecap:round;"/>
    </g>
    <g id="line2d_11">
     <path d="M 288.393025 543.135506 
L 283.900165 547.281301 
" style="fill:none;stroke:#262626;stroke-linecap:round;"/>
    </g>
    <g id="text_5">
     <!-- 0.0 -->
     <g style="fill:#262626;" transform="translate(270.229721 572.713042)scale(0.1 -0.1)">
      <use xlink:href="#ArialMT-48"/>
      <use x="55.615234" xlink:href="#ArialMT-46"/>
      <use x="83.398438" xlink:href="#ArialMT-48"/>
     </g>
    </g>
   </g>
   <g id="xtick_6">
    <g id="line2d_12">
     <path clip-path="url(#p9db0b3109b)" d="M 376.345946 350.854054 
" style="fill:none;stroke:#ffffff;stroke-linecap:round;"/>
    </g>
    <g id="line2d_13">
     <path d="M 325.225652 555.153155 
L 320.785506 559.351933 
" style="fill:none;stroke:#262626;stroke-linecap:round;"/>
    </g>
    <g id="text_6">
     <!-- 0.5 -->
     <g style="fill:#262626;" transform="translate(307.107813 584.911982)scale(0.1 -0.1)">
      <use xlink:href="#ArialMT-48"/>
      <use x="55.615234" xlink:href="#ArialMT-46"/>
      <use x="83.398438" xlink:href="#ArialMT-53"/>
     </g>
    </g>
   </g>
   <g id="xtick_7">
    <g id="line2d_14">
     <path clip-path="url(#p9db0b3109b)" d="M 376.345946 350.854054 
" style="fill:none;stroke:#ffffff;stroke-linecap:round;"/>
    </g>
    <g id="line2d_15">
     <path d="M 362.529994 567.324713 
L 358.144285 571.577497 
" style="fill:none;stroke:#262626;stroke-linecap:round;"/>
    </g>
    <g id="text_7">
     <!-- 1.0 -->
     <g style="fill:#262626;" transform="translate(344.459711 597.267652)scale(0.1 -0.1)">
      <use xlink:href="#ArialMT-49"/>
      <use x="55.615234" xlink:href="#ArialMT-46"/>
      <use x="83.398438" xlink:href="#ArialMT-48"/>
     </g>
    </g>
   </g>
   <g id="xtick_8">
    <g id="line2d_16">
     <path clip-path="url(#p9db0b3109b)" d="M 376.345946 350.854054 
" style="fill:none;stroke:#ffffff;stroke-linecap:round;"/>
    </g>
    <g id="line2d_17">
     <path d="M 400.31517 579.653156 
L 395.985678 583.960995 
" style="fill:none;stroke:#262626;stroke-linecap:round;"/>
    </g>
    <g id="text_8">
     <!-- 1.5 -->
     <g style="fill:#262626;" transform="translate(382.294607 609.783093)scale(0.1 -0.1)">
      <use xlink:href="#ArialMT-49"/>
      <use x="55.615234" xlink:href="#ArialMT-46"/>
      <use x="83.398438" xlink:href="#ArialMT-53"/>
     </g>
    </g>
   </g>
   <g id="xtick_9">
    <g id="line2d_18">
     <path clip-path="url(#p9db0b3109b)" d="M 376.345946 350.854054 
" style="fill:none;stroke:#ffffff;stroke-linecap:round;"/>
    </g>
    <g id="line2d_19">
     <path d="M 438.590537 592.141537 
L 434.319097 596.505507 
" style="fill:none;stroke:#262626;stroke-linecap:round;"/>
    </g>
    <g id="text_9">
     <!-- 2.0 -->
     <g style="fill:#262626;" transform="translate(420.621928 622.461425)scale(0.1 -0.1)">
      <use xlink:href="#ArialMT-50"/>
      <use x="55.615234" xlink:href="#ArialMT-46"/>
      <use x="83.398438" xlink:href="#ArialMT-48"/>
     </g>
    </g>
   </g>
  </g>
  <g id="axis3d_2">
   <g id="line2d_20">
    <path d="M 605.8167 429.219774 
L 443.599697 595.694325 
" style="fill:none;"/>
   </g>
   <g id="Line3DCollection_2">
    <path d="M 131.264223 262.759788 
L 142.148351 492.694254 
L 447.141702 592.059357 
" style="fill:none;stroke:#ffffff;"/>
    <path d="M 155.576014 245.01815 
L 165.277053 473.307318 
L 468.118275 570.532233 
" style="fill:none;stroke:#ffffff;"/>
    <path d="M 179.357303 227.663649 
L 187.923013 454.325025 
L 488.63388 549.478175 
" style="fill:none;stroke:#ffffff;"/>
    <path d="M 202.625264 210.683751 
L 210.101189 435.734838 
L 508.703548 528.881759 
" style="fill:none;stroke:#ffffff;"/>
    <path d="M 225.396343 194.066455 
L 231.825927 417.524732 
L 528.341661 508.728224 
" style="fill:none;stroke:#ffffff;"/>
    <path d="M 247.686286 177.800269 
L 253.110992 399.683169 
L 547.561991 489.003437 
" style="fill:none;stroke:#ffffff;"/>
    <path d="M 269.510183 161.874183 
L 273.969598 382.199071 
L 566.377729 469.693861 
" style="fill:none;stroke:#ffffff;"/>
    <path d="M 290.882501 146.277639 
L 294.414435 365.061804 
L 584.801518 450.786521 
" style="fill:none;stroke:#ffffff;"/>
    <path d="M 311.81711 131.000515 
L 314.457692 348.261148 
L 602.845478 432.268979 
" style="fill:none;stroke:#ffffff;"/>
   </g>
   <g id="xtick_10">
    <g id="line2d_21">
     <path clip-path="url(#p9db0b3109b)" d="M 376.345946 350.854054 
" style="fill:none;stroke:#ffffff;stroke-linecap:round;"/>
    </g>
    <g id="line2d_22">
     <path d="M 444.570982 591.221831 
L 452.289817 593.736584 
" style="fill:none;stroke:#262626;stroke-linecap:round;"/>
    </g>
    <g id="text_10">
     <!-- −2.0 -->
     <g style="fill:#262626;" transform="translate(454.13428 616.796589)scale(0.1 -0.1)">
      <use xlink:href="#ArialMT-8722"/>
      <use x="58.398438" xlink:href="#ArialMT-50"/>
      <use x="114.013672" xlink:href="#ArialMT-46"/>
      <use x="141.796875" xlink:href="#ArialMT-48"/>
     </g>
    </g>
   </g>
   <g id="xtick_11">
    <g id="line2d_23">
     <path clip-path="url(#p9db0b3109b)" d="M 376.345946 350.854054 
" style="fill:none;stroke:#ffffff;stroke-linecap:round;"/>
    </g>
    <g id="line2d_24">
     <path d="M 465.567137 569.713209 
L 473.227102 572.172384 
" style="fill:none;stroke:#262626;stroke-linecap:round;"/>
    </g>
    <g id="text_11">
     <!-- −1.5 -->
     <g style="fill:#262626;" transform="translate(474.931401 595.065917)scale(0.1 -0.1)">
      <use xlink:href="#ArialMT-8722"/>
      <use x="58.398438" xlink:href="#ArialMT-49"/>
      <use x="114.013672" xlink:href="#ArialMT-46"/>
      <use x="141.796875" xlink:href="#ArialMT-53"/>
     </g>
    </g>
   </g>
   <g id="xtick_12">
    <g id="line2d_25">
     <path clip-path="url(#p9db0b3109b)" d="M 376.345946 350.854054 
" style="fill:none;stroke:#ffffff;stroke-linecap:round;"/>
    </g>
    <g id="line2d_26">
     <path d="M 486.102089 548.677046 
L 493.703893 551.082466 
" style="fill:none;stroke:#262626;stroke-linecap:round;"/>
    </g>
    <g id="text_12">
     <!-- −1.0 -->
     <g style="fill:#262626;" transform="translate(495.271327 573.812964)scale(0.1 -0.1)">
      <use xlink:href="#ArialMT-8722"/>
      <use x="58.398438" xlink:href="#ArialMT-49"/>
      <use x="114.013672" xlink:href="#ArialMT-46"/>
      <use x="141.796875" xlink:href="#ArialMT-48"/>
     </g>
    </g>
   </g>
   <g id="xtick_13">
    <g id="line2d_27">
     <path clip-path="url(#p9db0b3109b)" d="M 376.345946 350.854054 
" style="fill:none;stroke:#ffffff;stroke-linecap:round;"/>
    </g>
    <g id="line2d_28">
     <path d="M 506.190869 528.097946 
L 513.735218 530.451353 
" style="fill:none;stroke:#262626;stroke-linecap:round;"/>
    </g>
    <g id="text_13">
     <!-- −0.5 -->
     <g style="fill:#262626;" transform="translate(515.168968 553.022147)scale(0.1 -0.1)">
      <use xlink:href="#ArialMT-8722"/>
      <use x="58.398438" xlink:href="#ArialMT-48"/>
      <use x="114.013672" xlink:href="#ArialMT-46"/>
      <use x="141.796875" xlink:href="#ArialMT-53"/>
     </g>
    </g>
   </g>
   <g id="xtick_14">
    <g id="line2d_29">
     <path clip-path="url(#p9db0b3109b)" d="M 376.345946 350.854054 
" style="fill:none;stroke:#ffffff;stroke-linecap:round;"/>
    </g>
    <g id="line2d_30">
     <path d="M 525.847862 507.961171 
L 533.335455 510.264235 
" style="fill:none;stroke:#262626;stroke-linecap:round;"/>
    </g>
    <g id="text_14">
     <!-- 0.0 -->
     <g style="fill:#262626;" transform="translate(537.55891 532.678556)scale(0.1 -0.1)">
      <use xlink:href="#ArialMT-48"/>
      <use x="55.615234" xlink:href="#ArialMT-46"/>
      <use x="83.398438" xlink:href="#ArialMT-48"/>
     </g>
    </g>
   </g>
   <g id="xtick_15">
    <g id="line2d_31">
     <path clip-path="url(#p9db0b3109b)" d="M 376.345946 350.854054 
" style="fill:none;stroke:#ffffff;stroke-linecap:round;"/>
    </g>
    <g id="line2d_32">
     <path d="M 545.086842 488.252613 
L 552.518373 490.506931 
" style="fill:none;stroke:#262626;stroke-linecap:round;"/>
    </g>
    <g id="text_15">
     <!-- 0.5 -->
     <g style="fill:#262626;" transform="translate(556.61419 512.767914)scale(0.1 -0.1)">
      <use xlink:href="#ArialMT-48"/>
      <use x="55.615234" xlink:href="#ArialMT-46"/>
      <use x="83.398438" xlink:href="#ArialMT-53"/>
     </g>
    </g>
   </g>
   <g id="xtick_16">
    <g id="line2d_33">
     <path clip-path="url(#p9db0b3109b)" d="M 376.345946 350.854054 
" style="fill:none;stroke:#ffffff;stroke-linecap:round;"/>
    </g>
    <g id="line2d_34">
     <path d="M 563.921001 468.958755 
L 571.29716 471.16586 
" style="fill:none;stroke:#262626;stroke-linecap:round;"/>
    </g>
    <g id="text_16">
     <!-- 1.0 -->
     <g style="fill:#262626;" transform="translate(575.268209 493.276545)scale(0.1 -0.1)">
      <use xlink:href="#ArialMT-49"/>
      <use x="55.615234" xlink:href="#ArialMT-46"/>
      <use x="83.398438" xlink:href="#ArialMT-48"/>
     </g>
    </g>
   </g>
   <g id="xtick_17">
    <g id="line2d_35">
     <path clip-path="url(#p9db0b3109b)" d="M 376.345946 350.854054 
" style="fill:none;stroke:#ffffff;stroke-linecap:round;"/>
    </g>
    <g id="line2d_36">
     <path d="M 582.362985 450.066646 
L 589.684454 452.228005 
" style="fill:none;stroke:#262626;stroke-linecap:round;"/>
    </g>
    <g id="text_17">
     <!-- 1.5 -->
     <g style="fill:#262626;" transform="translate(593.533509 474.191344)scale(0.1 -0.1)">
      <use xlink:href="#ArialMT-49"/>
      <use x="55.615234" xlink:href="#ArialMT-46"/>
      <use x="83.398438" xlink:href="#ArialMT-53"/>
     </g>
    </g>
   </g>
   <g id="xtick_18">
    <g id="line2d_37">
     <path clip-path="url(#p9db0b3109b)" d="M 376.345946 350.854054 
" style="fill:none;stroke:#ffffff;stroke-linecap:round;"/>
    </g>
    <g id="line2d_38">
     <path d="M 600.424916 431.563865 
L 607.69237 433.680886 
" style="fill:none;stroke:#262626;stroke-linecap:round;"/>
    </g>
    <g id="text_18">
     <!-- 2.0 -->
     <g style="fill:#262626;" transform="translate(611.422114 455.499746)scale(0.1 -0.1)">
      <use xlink:href="#ArialMT-50"/>
      <use x="55.615234" xlink:href="#ArialMT-46"/>
      <use x="83.398438" xlink:href="#ArialMT-48"/>
     </g>
    </g>
   </g>
  </g>
  <g id="axis3d_3">
   <g id="line2d_39">
    <path d="M 605.8167 429.219774 
L 616.096428 204.736794 
" style="fill:none;"/>
   </g>
   <g id="Line3DCollection_3">
    <path d="M 606.013648 424.918928 
L 317.712113 341.326812 
L 138.033502 491.562373 
" style="fill:none;stroke:#ffffff;"/>
    <path d="M 607.202474 398.958018 
L 317.423008 316.185466 
L 136.753248 464.977059 
" style="fill:none;stroke:#ffffff;"/>
    <path d="M 608.403671 372.726947 
L 317.131037 290.794963 
L 135.459163 438.10456 
" style="fill:none;stroke:#ffffff;"/>
    <path d="M 609.617433 346.221476 
L 316.836159 265.15158 
L 134.151024 410.940198 
" style="fill:none;stroke:#ffffff;"/>
    <path d="M 610.84396 319.437277 
L 316.538329 239.251522 
L 132.828599 383.479192 
" style="fill:none;stroke:#ffffff;"/>
    <path d="M 612.083452 292.369931 
L 316.237503 213.090914 
L 131.491654 355.716657 
" style="fill:none;stroke:#ffffff;"/>
    <path d="M 613.336117 265.014922 
L 315.933635 186.665805 
L 130.139947 327.647598 
" style="fill:none;stroke:#ffffff;"/>
    <path d="M 614.602166 237.367642 
L 315.62668 159.972164 
L 128.773234 299.266911 
" style="fill:none;stroke:#ffffff;"/>
    <path d="M 615.881815 209.42338 
L 315.316589 133.005877 
L 127.391263 270.569377 
" style="fill:none;stroke:#ffffff;"/>
   </g>
   <g id="xtick_19">
    <g id="line2d_40">
     <path clip-path="url(#p9db0b3109b)" d="M 376.345946 350.854054 
" style="fill:none;stroke:#ffffff;stroke-linecap:round;"/>
    </g>
    <g id="line2d_41">
     <path d="M 603.593907 424.217332 
L 610.858891 426.323791 
" style="fill:none;stroke:#262626;stroke-linecap:round;"/>
    </g>
    <g id="text_19">
     <!-- −2.0 -->
     <g style="fill:#262626;" transform="translate(619.991768 428.680568)scale(0.1 -0.1)">
      <use xlink:href="#ArialMT-8722"/>
      <use x="58.398438" xlink:href="#ArialMT-50"/>
      <use x="114.013672" xlink:href="#ArialMT-46"/>
      <use x="141.796875" xlink:href="#ArialMT-48"/>
     </g>
    </g>
   </g>
   <g id="xtick_20">
    <g id="line2d_42">
     <path clip-path="url(#p9db0b3109b)" d="M 376.345946 350.854054 
" style="fill:none;stroke:#ffffff;stroke-linecap:round;"/>
    </g>
    <g id="line2d_43">
     <path d="M 604.769739 398.263132 
L 612.073765 400.349453 
" style="fill:none;stroke:#262626;stroke-linecap:round;"/>
    </g>
    <g id="text_20">
     <!-- −1.5 -->
     <g style="fill:#262626;" transform="translate(621.301509 402.752166)scale(0.1 -0.1)">
      <use xlink:href="#ArialMT-8722"/>
      <use x="58.398438" xlink:href="#ArialMT-49"/>
      <use x="114.013672" xlink:href="#ArialMT-46"/>
      <use x="141.796875" xlink:href="#ArialMT-53"/>
     </g>
    </g>
   </g>
   <g id="xtick_21">
    <g id="line2d_44">
     <path clip-path="url(#p9db0b3109b)" d="M 376.345946 350.854054 
" style="fill:none;stroke:#ffffff;stroke-linecap:round;"/>
    </g>
    <g id="line2d_45">
     <path d="M 605.957802 372.038949 
L 613.301291 374.104597 
" style="fill:none;stroke:#262626;stroke-linecap:round;"/>
    </g>
    <g id="text_21">
     <!-- −1.0 -->
     <g style="fill:#262626;" transform="translate(622.624854 376.554465)scale(0.1 -0.1)">
      <use xlink:href="#ArialMT-8722"/>
      <use x="58.398438" xlink:href="#ArialMT-49"/>
      <use x="114.013672" xlink:href="#ArialMT-46"/>
      <use x="141.796875" xlink:href="#ArialMT-48"/>
     </g>
    </g>
   </g>
   <g id="xtick_22">
    <g id="line2d_46">
     <path clip-path="url(#p9db0b3109b)" d="M 376.345946 350.854054 
" style="fill:none;stroke:#ffffff;stroke-linecap:round;"/>
    </g>
    <g id="line2d_47">
     <path d="M 607.158288 345.540549 
L 614.541669 347.584976 
" style="fill:none;stroke:#262626;stroke-linecap:round;"/>
    </g>
    <g id="text_22">
     <!-- −0.5 -->
     <g style="fill:#262626;" transform="translate(623.962016 350.083247)scale(0.1 -0.1)">
      <use xlink:href="#ArialMT-8722"/>
      <use x="58.398438" xlink:href="#ArialMT-48"/>
      <use x="114.013672" xlink:href="#ArialMT-46"/>
      <use x="141.796875" xlink:href="#ArialMT-53"/>
     </g>
    </g>
   </g>
   <g id="xtick_23">
    <g id="line2d_48">
     <path clip-path="url(#p9db0b3109b)" d="M 376.345946 350.854054 
" style="fill:none;stroke:#ffffff;stroke-linecap:round;"/>
    </g>
    <g id="line2d_49">
     <path d="M 608.371393 318.763608 
L 615.795102 320.786253 
" style="fill:none;stroke:#262626;stroke-linecap:round;"/>
    </g>
    <g id="text_23">
     <!-- 0.0 -->
     <g style="fill:#262626;" transform="translate(628.233523 323.334207)scale(0.1 -0.1)">
      <use xlink:href="#ArialMT-48"/>
      <use x="55.615234" xlink:href="#ArialMT-46"/>
      <use x="83.398438" xlink:href="#ArialMT-48"/>
     </g>
    </g>
   </g>
   <g id="xtick_24">
    <g id="line2d_50">
     <path clip-path="url(#p9db0b3109b)" d="M 376.345946 350.854054 
" style="fill:none;stroke:#ffffff;stroke-linecap:round;"/>
    </g>
    <g id="line2d_51">
     <path d="M 609.597318 291.703711 
L 617.061795 293.703997 
" style="fill:none;stroke:#262626;stroke-linecap:round;"/>
    </g>
    <g id="text_24">
     <!-- 0.5 -->
     <g style="fill:#262626;" transform="translate(629.598975 296.302947)scale(0.1 -0.1)">
      <use xlink:href="#ArialMT-48"/>
      <use x="55.615234" xlink:href="#ArialMT-46"/>
      <use x="83.398438" xlink:href="#ArialMT-53"/>
     </g>
    </g>
   </g>
   <g id="xtick_25">
    <g id="line2d_52">
     <path clip-path="url(#p9db0b3109b)" d="M 376.345946 350.854054 
" style="fill:none;stroke:#ffffff;stroke-linecap:round;"/>
    </g>
    <g id="line2d_53">
     <path d="M 610.836265 264.356349 
L 618.341962 266.333686 
" style="fill:none;stroke:#262626;stroke-linecap:round;"/>
    </g>
    <g id="text_25">
     <!-- 1.0 -->
     <g style="fill:#262626;" transform="translate(630.978908 268.984977)scale(0.1 -0.1)">
      <use xlink:href="#ArialMT-49"/>
      <use x="55.615234" xlink:href="#ArialMT-46"/>
      <use x="83.398438" xlink:href="#ArialMT-48"/>
     </g>
    </g>
   </g>
   <g id="xtick_26">
    <g id="line2d_54">
     <path clip-path="url(#p9db0b3109b)" d="M 376.345946 350.854054 
" style="fill:none;stroke:#ffffff;stroke-linecap:round;"/>
    </g>
    <g id="line2d_55">
     <path d="M 612.088445 236.716917 
L 619.635817 238.670698 
" style="fill:none;stroke:#262626;stroke-linecap:round;"/>
    </g>
    <g id="text_26">
     <!-- 1.5 -->
     <g style="fill:#262626;" transform="translate(632.373557 241.375712)scale(0.1 -0.1)">
      <use xlink:href="#ArialMT-49"/>
      <use x="55.615234" xlink:href="#ArialMT-46"/>
      <use x="83.398438" xlink:href="#ArialMT-53"/>
     </g>
    </g>
   </g>
   <g id="xtick_27">
    <g id="line2d_56">
     <path clip-path="url(#p9db0b3109b)" d="M 376.345946 350.854054 
" style="fill:none;stroke:#ffffff;stroke-linecap:round;"/>
    </g>
    <g id="line2d_57">
     <path d="M 613.354069 208.780711 
L 620.943583 210.710314 
" style="fill:none;stroke:#262626;stroke-linecap:round;"/>
    </g>
    <g id="text_27">
     <!-- 2.0 -->
     <g style="fill:#262626;" transform="translate(633.783156 213.470467)scale(0.1 -0.1)">
      <use xlink:href="#ArialMT-50"/>
      <use x="55.615234" xlink:href="#ArialMT-46"/>
      <use x="83.398438" xlink:href="#ArialMT-48"/>
     </g>
    </g>
   </g>
  </g>
  <g id="axes_1">
   <g id="line2d_58">
    <path clip-path="url(#p9db0b3109b)" d="M 489.999455 335.627371 
L 492.521974 338.344844 
L 494.749626 341.067888 
L 496.703393 343.805356 
L 498.379295 346.533489 
L 499.79604 349.262575 
L 500.953482 351.969654 
L 501.872851 354.683265 
L 502.553065 357.381226 
L 503.003349 360.075741 
L 503.226677 362.762133 
L 503.226303 365.4359 
L 503.003678 368.109474 
L 502.558538 370.77827 
L 501.886027 373.454071 
L 500.982388 376.131619 
L 499.844321 378.80552 
L 498.460127 381.48596 
L 496.823476 384.166382 
L 494.92862 386.83992 
L 492.757664 389.514169 
L 490.316369 392.166137 
L 487.585743 394.801948 
L 484.559164 397.412142 
L 481.230976 399.986799 
L 477.596567 402.515559 
L 473.652458 404.987626 
L 469.396399 407.391776 
L 464.827438 409.716379 
L 459.946012 411.949448 
L 454.754049 414.078633 
L 449.25508 416.091237 
L 443.480415 417.966308 
L 437.43945 419.69293 
L 431.143075 421.260122 
L 424.631986 422.651328 
L 417.893112 423.862819 
L 410.971256 424.8799 
L 403.91456 425.691528 
L 396.743643 426.292569 
L 389.479875 426.678262 
L 382.175724 426.844008 
L 374.854155 426.788615 
L 367.538352 426.511362 
L 360.281811 426.01453 
L 353.107231 425.301099 
L 346.066476 424.378846 
L 339.180123 423.254332 
L 332.467762 421.934482 
L 325.948022 420.426564 
L 319.66575 418.745951 
L 318.98703 418.55017 
L 318.98703 418.55017 
" style="fill:none;stroke:#4682b4;stroke-linecap:round;stroke-width:1.75;"/>
   </g>
   <g id="line2d_59">
    <path clip-path="url(#p9db0b3109b)" d="M 318.98703 418.55017 
" style="fill:none;stroke:#4682b4;stroke-linecap:round;stroke-width:1.75;"/>
    <defs>
     <path d="M 0 3.5 
C 0.928211 3.5 1.81853 3.131218 2.474874 2.474874 
C 3.131218 1.81853 3.5 0.928211 3.5 0 
C 3.5 -0.928211 3.131218 -1.81853 2.474874 -2.474874 
C 1.81853 -3.131218 0.928211 -3.5 0 -3.5 
C -0.928211 -3.5 -1.81853 -3.131218 -2.474874 -2.474874 
C -3.131218 -1.81853 -3.5 -0.928211 -3.5 0 
C -3.5 0.928211 -3.131218 1.81853 -2.474874 2.474874 
C -1.81853 3.131218 -0.928211 3.5 0 3.5 
z
" id="m22b1a85f3c"/>
    </defs>
    <g clip-path="url(#p9db0b3109b)">
     <use style="fill:#4682b4;" x="318.98703" xlink:href="#m22b1a85f3c" y="418.55017"/>
    </g>
   </g>
   <g id="line2d_60">
    <path clip-path="url(#p9db0b3109b)" d="M 260.614952 366.359067 
L 258.516638 363.668713 
L 256.708027 360.992312 
L 255.166941 358.319918 
L 253.877392 355.640688 
L 252.841044 352.977423 
L 252.044369 350.318391 
L 251.482527 347.668631 
L 251.150353 345.032923 
L 251.042526 342.399062 
L 251.15772 339.771764 
L 251.494253 337.155628 
L 252.054226 334.538989 
L 252.844652 331.911003 
L 253.870562 329.277603 
L 255.13645 326.644933 
L 256.65552 324.004261 
L 258.424111 321.377725 
L 260.468392 318.743397 
L 262.784353 316.124341 
L 265.390725 313.515429 
L 268.294586 310.926603 
L 271.501922 308.368197 
L 275.017571 305.85092 
L 278.845179 303.385833 
L 282.987154 300.984328 
L 287.444598 298.658125 
L 292.217272 296.419256 
L 297.303555 294.280029 
L 302.700387 292.253021 
L 308.379138 290.358637 
L 314.331528 288.607807 
L 320.548018 287.011565 
L 327.017717 285.581068 
L 333.701873 284.332088 
L 340.558516 283.277286 
L 347.597594 282.420289 
L 354.746826 281.774135 
L 361.986445 281.34271 
L 369.296222 281.129761 
L 376.627487 281.138443 
L 383.9589 281.36967 
L 391.241174 281.82202 
L 398.425569 282.490495 
L 405.491776 283.370369 
L 412.420018 284.456727 
L 419.164571 285.738979 
L 425.682227 287.203086 
L 429.465495 288.161323 
L 429.465495 288.161323 
" style="fill:none;stroke:#2e8b57;stroke-linecap:round;stroke-width:1.75;"/>
   </g>
   <g id="line2d_61">
    <path clip-path="url(#p9db0b3109b)" d="M 429.465495 288.161323 
" style="fill:none;stroke:#2e8b57;stroke-linecap:round;stroke-width:1.75;"/>
    <defs>
     <path d="M 0 3.5 
C 0.928211 3.5 1.81853 3.131218 2.474874 2.474874 
C 3.131218 1.81853 3.5 0.928211 3.5 0 
C 3.5 -0.928211 3.131218 -1.81853 2.474874 -2.474874 
C 1.81853 -3.131218 0.928211 -3.5 0 -3.5 
C -0.928211 -3.5 -1.81853 -3.131218 -2.474874 -2.474874 
C -3.131218 -1.81853 -3.5 -0.928211 -3.5 0 
C -3.5 0.928211 -3.131218 1.81853 -2.474874 2.474874 
C -1.81853 3.131218 -0.928211 3.5 0 3.5 
z
" id="m83d322cdd0"/>
    </defs>
    <g clip-path="url(#p9db0b3109b)">
     <use style="fill:#2e8b57;" x="429.465495" xlink:href="#m83d322cdd0" y="288.161323"/>
    </g>
   </g>
   <g id="line2d_62">
    <path clip-path="url(#p9db0b3109b)" d="M 376.345946 350.854054 
L 381.097471 359.485557 
L 382.98906 362.437492 
L 384.609877 364.566441 
L 386.157243 366.230906 
L 387.799583 367.674263 
L 389.565412 368.93121 
L 391.48272 370.022206 
L 393.60983 370.973914 
L 396.027122 371.806395 
L 398.81807 372.527167 
L 402.152739 373.151325 
L 406.239181 373.680307 
L 411.412413 374.11419 
L 418.326741 374.456322 
L 427.483948 374.670472 
L 459.506149 375.251509 
L 468.974553 375.709192 
L 476.658353 376.295215 
L 483.133625 377.015132 
L 488.034112 377.772466 
L 491.954882 378.590926 
L 495.064272 379.457581 
L 497.367879 380.318356 
L 499.006951 381.14312 
L 500.20014 381.96324 
L 500.935627 382.677776 
L 501.457597 383.457534 
L 501.733446 384.267365 
L 501.771675 385.064118 
L 501.614822 385.821957 
L 501.188507 386.752793 
L 500.442279 387.790777 
L 499.381531 388.881822 
L 497.849662 390.137249 
L 495.680682 391.60256 
L 492.756532 393.278064 
L 489.188338 395.054461 
L 484.573864 397.089833 
L 479.10997 399.249139 
L 472.382192 401.660631 
L 464.676472 404.179203 
L 455.746109 406.858591 
L 446.032808 409.540091 
L 435.602858 412.18773 
L 424.645734 414.740476 
L 413.927078 417.010976 
L 403.579056 418.978141 
L 393.920898 420.591679 
L 385.2355 421.823965 
L 377.717792 422.670973 
L 371.405315 423.165979 
L 366.338682 423.34854 
L 362.514815 423.274887 
L 359.821981 423.014652 
L 358.092941 422.642279 
L 357.092448 422.218231 
L 356.616993 421.797251 
L 356.484818 421.402724 
L 356.586362 420.989562 
L 356.951476 420.502109 
L 357.701951 419.898816 
L 358.995475 419.164744 
L 360.964813 418.317316 
L 363.713019 417.387204 
L 367.332883 416.406848 
L 371.874007 415.41651 
L 377.076 414.509263 
L 382.746874 413.744956 
L 388.76007 413.158427 
L 394.850444 412.78632 
L 400.645163 412.650682 
L 406.681718 412.731231 
L 411.8395 413.019101 
L 416.376444 413.483743 
L 420.621952 414.133839 
L 424.139002 414.879618 
L 427.146761 415.742642 
L 429.474044 416.619241 
L 431.26263 417.499094 
L 432.696672 418.415813 
L 433.746653 419.299698 
L 434.582971 420.286029 
L 435.051465 421.127963 
L 435.32576 421.994679 
L 435.409591 422.864208 
L 435.277925 423.921665 
L 434.930632 424.927266 
L 434.301677 426.053754 
L 433.366719 427.256053 
L 431.968804 428.644693 
L 430.095776 430.142118 
L 427.778835 431.689841 
L 424.875456 433.345594 
L 421.262264 435.129142 
L 417.011562 436.963708 
L 412.03214 438.855531 
L 406.259422 440.798257 
L 399.953911 442.680905 
L 392.904984 444.547673 
L 385.090752 446.379457 
L 376.898475 448.069257 
L 368.282888 449.617342 
L 359.339343 450.996126 
L 350.043364 452.201411 
L 340.799942 453.176704 
L 331.652516 453.917534 
L 322.74118 454.417666 
L 314.098488 454.680273 
L 305.832684 454.709974 
L 298.030138 454.518034 
L 290.824772 454.123161 
L 284.254826 453.545788 
L 278.237089 452.797837 
L 272.865976 451.90903 
L 268.153695 450.907538 
L 264.09593 449.82445 
L 260.602312 448.667011 
L 257.66521 447.463894 
L 255.261543 446.245894 
L 253.309355 445.01376 
L 251.782249 443.796356 
L 250.611219 442.58948 
L 249.744374 441.384769 
L 249.164806 440.208101 
L 248.837046 439.048845 
L 248.734113 437.873089 
L 248.852548 436.683056 
L 249.19827 435.459951 
L 249.794913 434.182788 
L 250.669683 432.850568 
L 251.853954 431.4624 
L 253.383733 430.017513 
L 255.333131 428.491531 
L 257.693409 426.931316 
L 260.510761 425.339321 
L 263.789526 423.744407 
L 267.516952 422.179023 
L 271.802424 420.626582 
L 276.47104 419.175943 
L 281.433694 417.871709 
L 286.42567 416.785017 
L 291.960276 415.805295 
L 297.066705 415.119821 
L 301.973123 414.682024 
L 306.672093 414.480359 
L 310.710309 414.512918 
L 314.268025 414.74353 
L 317.379882 415.169899 
L 319.794676 415.719287 
L 321.58108 416.345687 
L 322.923003 417.066872 
L 323.738036 417.762926 
L 324.26171 418.563306 
L 324.428106 419.397822 
L 324.282341 420.201909 
L 323.919818 420.937138 
L 323.241648 421.805811 
L 322.226031 422.741714 
L 320.673893 423.841826 
L 318.623249 425.005409 
L 315.919514 426.266862 
L 315.255917 426.544247 
L 315.255917 426.544247 
" style="fill:none;stroke:#4b0082;stroke-linecap:round;stroke-width:1.75;"/>
   </g>
   <g id="line2d_63">
    <path clip-path="url(#p9db0b3109b)" d="M 315.255917 426.544247 
" style="fill:none;stroke:#4b0082;stroke-linecap:round;stroke-width:1.75;"/>
    <defs>
     <path d="M 0 3.5 
C 0.928211 3.5 1.81853 3.131218 2.474874 2.474874 
C 3.131218 1.81853 3.5 0.928211 3.5 0 
C 3.5 -0.928211 3.131218 -1.81853 2.474874 -2.474874 
C 1.81853 -3.131218 0.928211 -3.5 0 -3.5 
C -0.928211 -3.5 -1.81853 -3.131218 -2.474874 -2.474874 
C -3.131218 -1.81853 -3.5 -0.928211 -3.5 0 
C -3.5 0.928211 -3.131218 1.81853 -2.474874 2.474874 
C -1.81853 3.131218 -0.928211 3.5 0 3.5 
z
" id="md0a1f5872e"/>
    </defs>
    <g clip-path="url(#p9db0b3109b)">
     <use style="fill:#4b0082;" x="315.255917" xlink:href="#md0a1f5872e" y="426.544247"/>
    </g>
   </g>
   <g id="text_28">
    <!-- Messy Trajectory, Near Collision -->
    <g style="fill:#262626;" transform="translate(254.895 80.4)scale(0.16 -0.16)">
     <defs>
      <path d="M 7.421875 0 
L 7.421875 71.578125 
L 21.6875 71.578125 
L 38.625 20.90625 
Q 40.96875 13.8125 42.046875 10.296875 
Q 43.265625 14.203125 45.84375 21.78125 
L 62.984375 71.578125 
L 75.734375 71.578125 
L 75.734375 0 
L 66.609375 0 
L 66.609375 59.90625 
L 45.796875 0 
L 37.25 0 
L 16.546875 60.9375 
L 16.546875 0 
z
" id="ArialMT-77"/>
      <path d="M 42.09375 16.703125 
L 51.171875 15.578125 
Q 49.03125 7.625 43.21875 3.21875 
Q 37.40625 -1.171875 28.375 -1.171875 
Q 17 -1.171875 10.328125 5.828125 
Q 3.65625 12.84375 3.65625 25.484375 
Q 3.65625 38.578125 10.390625 45.796875 
Q 17.140625 53.03125 27.875 53.03125 
Q 38.28125 53.03125 44.875 45.953125 
Q 51.46875 38.875 51.46875 26.03125 
Q 51.46875 25.25 51.421875 23.6875 
L 12.75 23.6875 
Q 13.234375 15.140625 17.578125 10.59375 
Q 21.921875 6.0625 28.421875 6.0625 
Q 33.25 6.0625 36.671875 8.59375 
Q 40.09375 11.140625 42.09375 16.703125 
z
M 13.234375 30.90625 
L 42.1875 30.90625 
Q 41.609375 37.453125 38.875 40.71875 
Q 34.671875 45.796875 27.984375 45.796875 
Q 21.921875 45.796875 17.796875 41.75 
Q 13.671875 37.703125 13.234375 30.90625 
z
" id="ArialMT-101"/>
      <path d="M 3.078125 15.484375 
L 11.765625 16.84375 
Q 12.5 11.625 15.84375 8.84375 
Q 19.1875 6.0625 25.203125 6.0625 
Q 31.25 6.0625 34.171875 8.515625 
Q 37.109375 10.984375 37.109375 14.3125 
Q 37.109375 17.28125 34.515625 19 
Q 32.71875 20.171875 25.53125 21.96875 
Q 15.875 24.421875 12.140625 26.203125 
Q 8.40625 27.984375 6.46875 31.125 
Q 4.546875 34.28125 4.546875 38.09375 
Q 4.546875 41.546875 6.125 44.5 
Q 7.71875 47.46875 10.453125 49.421875 
Q 12.5 50.921875 16.03125 51.96875 
Q 19.578125 53.03125 23.640625 53.03125 
Q 29.734375 53.03125 34.34375 51.265625 
Q 38.96875 49.515625 41.15625 46.5 
Q 43.359375 43.5 44.1875 38.484375 
L 35.59375 37.3125 
Q 35.015625 41.3125 32.203125 43.546875 
Q 29.390625 45.796875 24.265625 45.796875 
Q 18.21875 45.796875 15.625 43.796875 
Q 13.03125 41.796875 13.03125 39.109375 
Q 13.03125 37.40625 14.109375 36.03125 
Q 15.1875 34.625 17.484375 33.6875 
Q 18.796875 33.203125 25.25 31.453125 
Q 34.578125 28.953125 38.25 27.359375 
Q 41.9375 25.78125 44.03125 22.75 
Q 46.140625 19.734375 46.140625 15.234375 
Q 46.140625 10.84375 43.578125 6.953125 
Q 41.015625 3.078125 36.171875 0.953125 
Q 31.34375 -1.171875 25.25 -1.171875 
Q 15.140625 -1.171875 9.84375 3.03125 
Q 4.546875 7.234375 3.078125 15.484375 
z
" id="ArialMT-115"/>
      <path d="M 6.203125 -19.96875 
L 5.21875 -11.71875 
Q 8.109375 -12.5 10.25 -12.5 
Q 13.1875 -12.5 14.9375 -11.515625 
Q 16.703125 -10.546875 17.828125 -8.796875 
Q 18.65625 -7.46875 20.515625 -2.25 
Q 20.75 -1.515625 21.296875 -0.09375 
L 1.609375 51.859375 
L 11.078125 51.859375 
L 21.875 21.828125 
Q 23.96875 16.109375 25.640625 9.8125 
Q 27.15625 15.875 29.25 21.625 
L 40.328125 51.859375 
L 49.125 51.859375 
L 29.390625 -0.875 
Q 26.21875 -9.421875 24.46875 -12.640625 
Q 22.125 -17 19.09375 -19.015625 
Q 16.0625 -21.046875 11.859375 -21.046875 
Q 9.328125 -21.046875 6.203125 -19.96875 
z
" id="ArialMT-121"/>
      <path id="ArialMT-32"/>
      <path d="M 25.921875 0 
L 25.921875 63.140625 
L 2.34375 63.140625 
L 2.34375 71.578125 
L 59.078125 71.578125 
L 59.078125 63.140625 
L 35.40625 63.140625 
L 35.40625 0 
z
" id="ArialMT-84"/>
      <path d="M 6.5 0 
L 6.5 51.859375 
L 14.40625 51.859375 
L 14.40625 44 
Q 17.4375 49.515625 20 51.265625 
Q 22.5625 53.03125 25.640625 53.03125 
Q 30.078125 53.03125 34.671875 50.203125 
L 31.640625 42.046875 
Q 28.421875 43.953125 25.203125 43.953125 
Q 22.3125 43.953125 20.015625 42.21875 
Q 17.71875 40.484375 16.75 37.40625 
Q 15.28125 32.71875 15.28125 27.15625 
L 15.28125 0 
z
" id="ArialMT-114"/>
      <path d="M 40.4375 6.390625 
Q 35.546875 2.25 31.03125 0.53125 
Q 26.515625 -1.171875 21.34375 -1.171875 
Q 12.796875 -1.171875 8.203125 3 
Q 3.609375 7.171875 3.609375 13.671875 
Q 3.609375 17.484375 5.34375 20.625 
Q 7.078125 23.78125 9.890625 25.6875 
Q 12.703125 27.59375 16.21875 28.5625 
Q 18.796875 29.25 24.03125 29.890625 
Q 34.671875 31.15625 39.703125 32.90625 
Q 39.75 34.71875 39.75 35.203125 
Q 39.75 40.578125 37.25 42.78125 
Q 33.890625 45.75 27.25 45.75 
Q 21.046875 45.75 18.09375 43.578125 
Q 15.140625 41.40625 13.71875 35.890625 
L 5.125 37.0625 
Q 6.296875 42.578125 8.984375 45.96875 
Q 11.671875 49.359375 16.75 51.1875 
Q 21.828125 53.03125 28.515625 53.03125 
Q 35.15625 53.03125 39.296875 51.46875 
Q 43.453125 49.90625 45.40625 47.53125 
Q 47.359375 45.171875 48.140625 41.546875 
Q 48.578125 39.3125 48.578125 33.453125 
L 48.578125 21.734375 
Q 48.578125 9.46875 49.140625 6.21875 
Q 49.703125 2.984375 51.375 0 
L 42.1875 0 
Q 40.828125 2.734375 40.4375 6.390625 
z
M 39.703125 26.03125 
Q 34.90625 24.078125 25.34375 22.703125 
Q 19.921875 21.921875 17.671875 20.9375 
Q 15.4375 19.96875 14.203125 18.09375 
Q 12.984375 16.21875 12.984375 13.921875 
Q 12.984375 10.40625 15.640625 8.0625 
Q 18.3125 5.71875 23.4375 5.71875 
Q 28.515625 5.71875 32.46875 7.9375 
Q 36.421875 10.15625 38.28125 14.015625 
Q 39.703125 17 39.703125 22.796875 
z
" id="ArialMT-97"/>
      <path d="M 6.546875 61.375 
L 6.546875 71.578125 
L 15.328125 71.578125 
L 15.328125 61.375 
z
M -4.59375 -20.125 
L -2.9375 -12.640625 
Q -0.296875 -13.328125 1.21875 -13.328125 
Q 3.90625 -13.328125 5.21875 -11.546875 
Q 6.546875 -9.765625 6.546875 -2.640625 
L 6.546875 51.859375 
L 15.328125 51.859375 
L 15.328125 -2.828125 
Q 15.328125 -12.40625 12.84375 -16.15625 
Q 9.671875 -21.046875 2.296875 -21.046875 
Q -1.265625 -21.046875 -4.59375 -20.125 
z
" id="ArialMT-106"/>
      <path d="M 40.4375 19 
L 49.078125 17.875 
Q 47.65625 8.9375 41.8125 3.875 
Q 35.984375 -1.171875 27.484375 -1.171875 
Q 16.84375 -1.171875 10.375 5.78125 
Q 3.90625 12.75 3.90625 25.734375 
Q 3.90625 34.125 6.6875 40.421875 
Q 9.46875 46.734375 15.15625 49.875 
Q 20.84375 53.03125 27.546875 53.03125 
Q 35.984375 53.03125 41.359375 48.75 
Q 46.734375 44.484375 48.25 36.625 
L 39.703125 35.296875 
Q 38.484375 40.53125 35.375 43.15625 
Q 32.28125 45.796875 27.875 45.796875 
Q 21.234375 45.796875 17.078125 41.03125 
Q 12.9375 36.28125 12.9375 25.984375 
Q 12.9375 15.53125 16.9375 10.796875 
Q 20.953125 6.0625 27.390625 6.0625 
Q 32.5625 6.0625 36.03125 9.234375 
Q 39.5 12.40625 40.4375 19 
z
" id="ArialMT-99"/>
      <path d="M 25.78125 7.859375 
L 27.046875 0.09375 
Q 23.34375 -0.6875 20.40625 -0.6875 
Q 15.625 -0.6875 12.984375 0.828125 
Q 10.359375 2.34375 9.28125 4.8125 
Q 8.203125 7.28125 8.203125 15.1875 
L 8.203125 45.015625 
L 1.765625 45.015625 
L 1.765625 51.859375 
L 8.203125 51.859375 
L 8.203125 64.703125 
L 16.9375 69.96875 
L 16.9375 51.859375 
L 25.78125 51.859375 
L 25.78125 45.015625 
L 16.9375 45.015625 
L 16.9375 14.703125 
Q 16.9375 10.9375 17.40625 9.859375 
Q 17.875 8.796875 18.921875 8.15625 
Q 19.96875 7.515625 21.921875 7.515625 
Q 23.390625 7.515625 25.78125 7.859375 
z
" id="ArialMT-116"/>
      <path d="M 3.328125 25.921875 
Q 3.328125 40.328125 11.328125 47.265625 
Q 18.015625 53.03125 27.640625 53.03125 
Q 38.328125 53.03125 45.109375 46.015625 
Q 51.90625 39.015625 51.90625 26.65625 
Q 51.90625 16.65625 48.90625 10.90625 
Q 45.90625 5.171875 40.15625 2 
Q 34.421875 -1.171875 27.640625 -1.171875 
Q 16.75 -1.171875 10.03125 5.8125 
Q 3.328125 12.796875 3.328125 25.921875 
z
M 12.359375 25.921875 
Q 12.359375 15.96875 16.703125 11.015625 
Q 21.046875 6.0625 27.640625 6.0625 
Q 34.1875 6.0625 38.53125 11.03125 
Q 42.875 16.015625 42.875 26.21875 
Q 42.875 35.84375 38.5 40.796875 
Q 34.125 45.75 27.640625 45.75 
Q 21.046875 45.75 16.703125 40.8125 
Q 12.359375 35.890625 12.359375 25.921875 
z
" id="ArialMT-111"/>
      <path d="M 8.890625 0 
L 8.890625 10.015625 
L 18.890625 10.015625 
L 18.890625 0 
Q 18.890625 -5.515625 16.9375 -8.90625 
Q 14.984375 -12.3125 10.75 -14.15625 
L 8.296875 -10.40625 
Q 11.078125 -9.1875 12.390625 -6.8125 
Q 13.71875 -4.4375 13.875 0 
z
" id="ArialMT-44"/>
      <path d="M 7.625 0 
L 7.625 71.578125 
L 17.328125 71.578125 
L 54.9375 15.375 
L 54.9375 71.578125 
L 64.015625 71.578125 
L 64.015625 0 
L 54.296875 0 
L 16.703125 56.25 
L 16.703125 0 
z
" id="ArialMT-78"/>
      <path d="M 58.796875 25.09375 
L 68.265625 22.703125 
Q 65.28125 11.03125 57.546875 4.90625 
Q 49.8125 -1.21875 38.625 -1.21875 
Q 27.046875 -1.21875 19.796875 3.484375 
Q 12.546875 8.203125 8.765625 17.140625 
Q 4.984375 26.078125 4.984375 36.328125 
Q 4.984375 47.515625 9.25 55.828125 
Q 13.53125 64.15625 21.40625 68.46875 
Q 29.296875 72.796875 38.765625 72.796875 
Q 49.515625 72.796875 56.828125 67.328125 
Q 64.15625 61.859375 67.046875 51.953125 
L 57.71875 49.75 
Q 55.21875 57.5625 50.484375 61.125 
Q 45.75 64.703125 38.578125 64.703125 
Q 30.328125 64.703125 24.78125 60.734375 
Q 19.234375 56.78125 16.984375 50.109375 
Q 14.75 43.453125 14.75 36.375 
Q 14.75 27.25 17.40625 20.4375 
Q 20.0625 13.625 25.671875 10.25 
Q 31.296875 6.890625 37.84375 6.890625 
Q 45.796875 6.890625 51.3125 11.46875 
Q 56.84375 16.0625 58.796875 25.09375 
z
" id="ArialMT-67"/>
      <path d="M 6.390625 0 
L 6.390625 71.578125 
L 15.1875 71.578125 
L 15.1875 0 
z
" id="ArialMT-108"/>
      <path d="M 6.640625 61.46875 
L 6.640625 71.578125 
L 15.4375 71.578125 
L 15.4375 61.46875 
z
M 6.640625 0 
L 6.640625 51.859375 
L 15.4375 51.859375 
L 15.4375 0 
z
" id="ArialMT-105"/>
      <path d="M 6.59375 0 
L 6.59375 51.859375 
L 14.5 51.859375 
L 14.5 44.484375 
Q 20.21875 53.03125 31 53.03125 
Q 35.6875 53.03125 39.625 51.34375 
Q 43.5625 49.65625 45.515625 46.921875 
Q 47.46875 44.1875 48.25 40.4375 
Q 48.734375 37.984375 48.734375 31.890625 
L 48.734375 0 
L 39.9375 0 
L 39.9375 31.546875 
Q 39.9375 36.921875 38.90625 39.578125 
Q 37.890625 42.234375 35.28125 43.8125 
Q 32.671875 45.40625 29.15625 45.40625 
Q 23.53125 45.40625 19.453125 41.84375 
Q 15.375 38.28125 15.375 28.328125 
L 15.375 0 
z
" id="ArialMT-110"/>
     </defs>
     <use xlink:href="#ArialMT-77"/>
     <use x="83.300781" xlink:href="#ArialMT-101"/>
     <use x="138.916016" xlink:href="#ArialMT-115"/>
     <use x="188.916016" xlink:href="#ArialMT-115"/>
     <use x="238.916016" xlink:href="#ArialMT-121"/>
     <use x="288.916016" xlink:href="#ArialMT-32"/>
     <use x="314.949219" xlink:href="#ArialMT-84"/>
     <use x="372.283203" xlink:href="#ArialMT-114"/>
     <use x="405.583984" xlink:href="#ArialMT-97"/>
     <use x="461.199219" xlink:href="#ArialMT-106"/>
     <use x="483.416016" xlink:href="#ArialMT-101"/>
     <use x="539.03125" xlink:href="#ArialMT-99"/>
     <use x="589.03125" xlink:href="#ArialMT-116"/>
     <use x="616.814453" xlink:href="#ArialMT-111"/>
     <use x="672.429688" xlink:href="#ArialMT-114"/>
     <use x="705.730469" xlink:href="#ArialMT-121"/>
     <use x="748.355469" xlink:href="#ArialMT-44"/>
     <use x="776.138672" xlink:href="#ArialMT-32"/>
     <use x="803.921875" xlink:href="#ArialMT-78"/>
     <use x="876.138672" xlink:href="#ArialMT-101"/>
     <use x="931.753906" xlink:href="#ArialMT-97"/>
     <use x="987.369141" xlink:href="#ArialMT-114"/>
     <use x="1020.669922" xlink:href="#ArialMT-32"/>
     <use x="1048.453125" xlink:href="#ArialMT-67"/>
     <use x="1120.669922" xlink:href="#ArialMT-111"/>
     <use x="1176.285156" xlink:href="#ArialMT-108"/>
     <use x="1198.501953" xlink:href="#ArialMT-108"/>
     <use x="1220.71875" xlink:href="#ArialMT-105"/>
     <use x="1242.935547" xlink:href="#ArialMT-115"/>
     <use x="1292.935547" xlink:href="#ArialMT-105"/>
     <use x="1315.152344" xlink:href="#ArialMT-111"/>
     <use x="1370.767578" xlink:href="#ArialMT-110"/>
    </g>
   </g>
   <g id="legend_1">
    <g id="line2d_64">
     <path d="M 525.01875 101.589375 
L 549.01875 101.589375 
" style="fill:none;stroke:#4682b4;stroke-linecap:round;stroke-width:1.75;"/>
    </g>
    <g id="line2d_65"/>
    <g id="text_29">
     <!-- First Body -->
     <g style="fill:#262626;" transform="translate(558.61875 105.789375)scale(0.12 -0.12)">
      <defs>
       <path d="M 8.203125 0 
L 8.203125 71.578125 
L 56.5 71.578125 
L 56.5 63.140625 
L 17.671875 63.140625 
L 17.671875 40.96875 
L 51.265625 40.96875 
L 51.265625 32.515625 
L 17.671875 32.515625 
L 17.671875 0 
z
" id="ArialMT-70"/>
       <path d="M 7.328125 0 
L 7.328125 71.578125 
L 34.1875 71.578125 
Q 42.390625 71.578125 47.34375 69.40625 
Q 52.296875 67.234375 55.09375 62.71875 
Q 57.90625 58.203125 57.90625 53.265625 
Q 57.90625 48.6875 55.421875 44.625 
Q 52.9375 40.578125 47.90625 38.09375 
Q 54.390625 36.1875 57.875 31.59375 
Q 61.375 27 61.375 20.75 
Q 61.375 15.71875 59.25 11.390625 
Q 57.125 7.078125 54 4.734375 
Q 50.875 2.390625 46.15625 1.1875 
Q 41.453125 0 34.625 0 
z
M 16.796875 41.5 
L 32.28125 41.5 
Q 38.578125 41.5 41.3125 42.328125 
Q 44.921875 43.40625 46.75 45.890625 
Q 48.578125 48.390625 48.578125 52.15625 
Q 48.578125 55.71875 46.875 58.421875 
Q 45.171875 61.140625 41.984375 62.140625 
Q 38.8125 63.140625 31.109375 63.140625 
L 16.796875 63.140625 
z
M 16.796875 8.453125 
L 34.625 8.453125 
Q 39.203125 8.453125 41.0625 8.796875 
Q 44.34375 9.375 46.53125 10.734375 
Q 48.734375 12.109375 50.140625 14.71875 
Q 51.5625 17.328125 51.5625 20.75 
Q 51.5625 24.75 49.515625 27.703125 
Q 47.46875 30.671875 43.828125 31.859375 
Q 40.1875 33.0625 33.34375 33.0625 
L 16.796875 33.0625 
z
" id="ArialMT-66"/>
       <path d="M 40.234375 0 
L 40.234375 6.546875 
Q 35.296875 -1.171875 25.734375 -1.171875 
Q 19.53125 -1.171875 14.328125 2.25 
Q 9.125 5.671875 6.265625 11.796875 
Q 3.421875 17.921875 3.421875 25.875 
Q 3.421875 33.640625 6 39.96875 
Q 8.59375 46.296875 13.765625 49.65625 
Q 18.953125 53.03125 25.34375 53.03125 
Q 30.03125 53.03125 33.6875 51.046875 
Q 37.359375 49.078125 39.65625 45.90625 
L 39.65625 71.578125 
L 48.390625 71.578125 
L 48.390625 0 
z
M 12.453125 25.875 
Q 12.453125 15.921875 16.640625 10.984375 
Q 20.84375 6.0625 26.5625 6.0625 
Q 32.328125 6.0625 36.34375 10.765625 
Q 40.375 15.484375 40.375 25.140625 
Q 40.375 35.796875 36.265625 40.765625 
Q 32.171875 45.75 26.171875 45.75 
Q 20.3125 45.75 16.375 40.96875 
Q 12.453125 36.1875 12.453125 25.875 
z
" id="ArialMT-100"/>
      </defs>
      <use xlink:href="#ArialMT-70"/>
      <use x="61.083984" xlink:href="#ArialMT-105"/>
      <use x="83.300781" xlink:href="#ArialMT-114"/>
      <use x="116.601562" xlink:href="#ArialMT-115"/>
      <use x="166.601562" xlink:href="#ArialMT-116"/>
      <use x="194.384766" xlink:href="#ArialMT-32"/>
      <use x="222.167969" xlink:href="#ArialMT-66"/>
      <use x="288.867188" xlink:href="#ArialMT-111"/>
      <use x="344.482422" xlink:href="#ArialMT-100"/>
      <use x="400.097656" xlink:href="#ArialMT-121"/>
     </g>
    </g>
    <g id="line2d_66">
     <path d="M 525.01875 118.850625 
L 549.01875 118.850625 
" style="fill:none;stroke:#2e8b57;stroke-linecap:round;stroke-width:1.75;"/>
    </g>
    <g id="line2d_67"/>
    <g id="text_30">
     <!-- Second Body -->
     <g style="fill:#262626;" transform="translate(558.61875 123.050625)scale(0.12 -0.12)">
      <defs>
       <path d="M 4.5 23 
L 13.421875 23.78125 
Q 14.0625 18.40625 16.375 14.96875 
Q 18.703125 11.53125 23.578125 9.40625 
Q 28.46875 7.28125 34.578125 7.28125 
Q 39.984375 7.28125 44.140625 8.890625 
Q 48.296875 10.5 50.3125 13.296875 
Q 52.34375 16.109375 52.34375 19.4375 
Q 52.34375 22.796875 50.390625 25.3125 
Q 48.4375 27.828125 43.953125 29.546875 
Q 41.0625 30.671875 31.203125 33.03125 
Q 21.34375 35.40625 17.390625 37.5 
Q 12.25 40.1875 9.734375 44.15625 
Q 7.234375 48.140625 7.234375 53.078125 
Q 7.234375 58.5 10.296875 63.203125 
Q 13.375 67.921875 19.28125 70.359375 
Q 25.203125 72.796875 32.421875 72.796875 
Q 40.375 72.796875 46.453125 70.234375 
Q 52.546875 67.671875 55.8125 62.6875 
Q 59.078125 57.71875 59.328125 51.421875 
L 50.25 50.734375 
Q 49.515625 57.515625 45.28125 60.984375 
Q 41.0625 64.453125 32.8125 64.453125 
Q 24.21875 64.453125 20.28125 61.296875 
Q 16.359375 58.15625 16.359375 53.71875 
Q 16.359375 49.859375 19.140625 47.359375 
Q 21.875 44.875 33.421875 42.265625 
Q 44.96875 39.65625 49.265625 37.703125 
Q 55.515625 34.8125 58.484375 30.390625 
Q 61.46875 25.984375 61.46875 20.21875 
Q 61.46875 14.5 58.203125 9.4375 
Q 54.9375 4.390625 48.796875 1.578125 
Q 42.671875 -1.21875 35.015625 -1.21875 
Q 25.296875 -1.21875 18.71875 1.609375 
Q 12.15625 4.4375 8.421875 10.125 
Q 4.6875 15.828125 4.5 23 
z
" id="ArialMT-83"/>
      </defs>
      <use xlink:href="#ArialMT-83"/>
      <use x="66.699219" xlink:href="#ArialMT-101"/>
      <use x="122.314453" xlink:href="#ArialMT-99"/>
      <use x="172.314453" xlink:href="#ArialMT-111"/>
      <use x="227.929688" xlink:href="#ArialMT-110"/>
      <use x="283.544922" xlink:href="#ArialMT-100"/>
      <use x="339.160156" xlink:href="#ArialMT-32"/>
      <use x="366.943359" xlink:href="#ArialMT-66"/>
      <use x="433.642578" xlink:href="#ArialMT-111"/>
      <use x="489.257812" xlink:href="#ArialMT-100"/>
      <use x="544.873047" xlink:href="#ArialMT-121"/>
     </g>
    </g>
    <g id="line2d_68">
     <path d="M 525.01875 135.965625 
L 549.01875 135.965625 
" style="fill:none;stroke:#4b0082;stroke-linecap:round;stroke-width:1.75;"/>
    </g>
    <g id="line2d_69"/>
    <g id="text_31">
     <!-- Third Body -->
     <g style="fill:#262626;" transform="translate(558.61875 140.165625)scale(0.12 -0.12)">
      <defs>
       <path d="M 6.59375 0 
L 6.59375 71.578125 
L 15.375 71.578125 
L 15.375 45.90625 
Q 21.53125 53.03125 30.90625 53.03125 
Q 36.671875 53.03125 40.921875 50.75 
Q 45.171875 48.484375 47 44.484375 
Q 48.828125 40.484375 48.828125 32.859375 
L 48.828125 0 
L 40.046875 0 
L 40.046875 32.859375 
Q 40.046875 39.453125 37.1875 42.453125 
Q 34.328125 45.453125 29.109375 45.453125 
Q 25.203125 45.453125 21.75 43.421875 
Q 18.3125 41.40625 16.84375 37.9375 
Q 15.375 34.46875 15.375 28.375 
L 15.375 0 
z
" id="ArialMT-104"/>
      </defs>
      <use xlink:href="#ArialMT-84"/>
      <use x="61.083984" xlink:href="#ArialMT-104"/>
      <use x="116.699219" xlink:href="#ArialMT-105"/>
      <use x="138.916016" xlink:href="#ArialMT-114"/>
      <use x="172.216797" xlink:href="#ArialMT-100"/>
      <use x="227.832031" xlink:href="#ArialMT-32"/>
      <use x="255.615234" xlink:href="#ArialMT-66"/>
      <use x="322.314453" xlink:href="#ArialMT-111"/>
      <use x="377.929688" xlink:href="#ArialMT-100"/>
      <use x="433.544922" xlink:href="#ArialMT-121"/>
     </g>
    </g>
   </g>
  </g>
 </g>
 <defs>
  <clipPath id="p9db0b3109b">
   <rect height="543.6" width="543.6" x="97.2" y="86.4"/>
  </clipPath>
 </defs>
</svg>
